<svg xmlns="http://www.w3.org/2000/svg" width="20.332" height="20.332" viewBox="0 0 20.332 20.332">
  <defs>
    <style>
      .cls-cable {
        fill: currentColor;
      }
    </style>
  </defs>
  <g id="noun_Cable_1590171" transform="translate(-9.205 -9.205)">
    <path id="Tracé_666" data-name="Tracé 666" class="cls-cable" d="M19.371,10.006a9.366,9.366,0,1,1-9.366,9.366,9.376,9.376,0,0,1,9.366-9.366m0-.8A10.166,10.166,0,1,0,29.537,19.371,10.178,10.178,0,0,0,19.371,9.2Zm0,5.214A1.384,1.384,0,1,1,17.987,15.8a1.386,1.386,0,0,1,1.384-1.384m0-.755A2.138,2.138,0,1,0,21.51,15.8a2.141,2.141,0,0,0-2.138-2.138Zm-3.122,6.106a1.384,1.384,0,1,1-1.384,1.384,1.386,1.386,0,0,1,1.384-1.384m0-.755a2.138,2.138,0,1,0,2.138,2.138,2.141,2.141,0,0,0-2.138-2.138Zm6.244.755a1.384,1.384,0,1,1-1.384,1.384,1.386,1.386,0,0,1,1.384-1.384m0-.755a2.138,2.138,0,1,0,2.138,2.138,2.141,2.141,0,0,0-2.138-2.138Zm.462,7.035a.223.223,0,0,0-.211-.393,7.135,7.135,0,0,1-10.508-6.288,7.056,7.056,0,0,1,.754-3.178.223.223,0,1,0-.4-.2,7.491,7.491,0,0,0-.8,3.377,7.581,7.581,0,0,0,11.165,6.681Zm3.1-3.1A7.577,7.577,0,0,0,13.9,14.129a.223.223,0,1,0,.322.308,7.13,7.13,0,0,1,12.283,4.934,7.15,7.15,0,0,1-.847,3.373.223.223,0,1,0,.392.211Z"/>
  </g>
</svg>
