<svg width="24" height="24" viewBox="0 0 24 24" fill="none" xmlns="http://www.w3.org/2000/svg">
<g id="content_copy_FILL0_wght400_GRAD0_opsz48">
<path id="Vector" d="M7.5 18.9751C7.1 18.9751 6.75 18.8251 6.45 18.5251C6.15 18.2251 6 17.8751 6 17.4751V3.4751C6 3.0751 6.15 2.7251 6.45 2.4251C6.75 2.1251 7.1 1.9751 7.5 1.9751H18.5C18.9 1.9751 19.25 2.1251 19.55 2.4251C19.85 2.7251 20 3.0751 20 3.4751V17.4751C20 17.8751 19.85 18.2251 19.55 18.5251C19.25 18.8251 18.9 18.9751 18.5 18.9751H7.5ZM7.5 17.4751H18.5V3.4751H7.5V17.4751ZM4.5 21.9751C4.1 21.9751 3.75 21.8251 3.45 21.5251C3.15 21.2251 3 20.8751 3 20.4751V5.4001H4.5V20.4751H16.35V21.9751H4.5ZM7.5 3.4751V17.4751V3.4751Z" fill="black"/>
</g>
</svg>
