<svg width="22" height="24" viewBox="0 0 22 24" fill="none" xmlns="http://www.w3.org/2000/svg">
<path id="Creation Date" d="M19.5556 2.4H18.3333V0H15.8889V2.4H6.11111V0H3.66667V2.4H2.44444C1.1 2.4 0 3.48 0 4.8V21.6C0 22.92 1.1 24 2.44444 24H19.5556C20.9 24 22 22.92 22 21.6V4.8C22 3.48 20.9 2.4 19.5556 2.4ZM19.5556 21.6H2.44444V9.6H19.5556V21.6ZM2.44444 7.2V4.8H19.5556V7.2H2.44444ZM9.24 19.752L16.4878 12.636L15.1922 11.364L9.24 17.208L6.66111 14.676L5.36556 15.948L9.24 19.752Z" fill="black"/>
</svg>
