<svg width="24" height="24" viewBox="0 0 24 24" fill="none" xmlns="http://www.w3.org/2000/svg">
<g id="drag_indicator_FILL0_wght400_GRAD0_opsz48 1">
<path id="Vector" d="M8.75 20C8.26667 20 7.85417 19.8292 7.5125 19.4875C7.17083 19.1458 7 18.7333 7 18.25C7 17.7667 7.17083 17.3542 7.5125 17.0125C7.85417 16.6708 8.26667 16.5 8.75 16.5C9.23333 16.5 9.64583 16.6708 9.9875 17.0125C10.3292 17.3542 10.5 17.7667 10.5 18.25C10.5 18.7333 10.3292 19.1458 9.9875 19.4875C9.64583 19.8292 9.23333 20 8.75 20ZM15.25 20C14.7667 20 14.3542 19.8292 14.0125 19.4875C13.6708 19.1458 13.5 18.7333 13.5 18.25C13.5 17.7667 13.6708 17.3542 14.0125 17.0125C14.3542 16.6708 14.7667 16.5 15.25 16.5C15.7333 16.5 16.1458 16.6708 16.4875 17.0125C16.8292 17.3542 17 17.7667 17 18.25C17 18.7333 16.8292 19.1458 16.4875 19.4875C16.1458 19.8292 15.7333 20 15.25 20ZM8.75 13.75C8.26667 13.75 7.85417 13.5792 7.5125 13.2375C7.17083 12.8958 7 12.4833 7 12C7 11.5167 7.17083 11.1042 7.5125 10.7625C7.85417 10.4208 8.26667 10.25 8.75 10.25C9.23333 10.25 9.64583 10.4208 9.9875 10.7625C10.3292 11.1042 10.5 11.5167 10.5 12C10.5 12.4833 10.3292 12.8958 9.9875 13.2375C9.64583 13.5792 9.23333 13.75 8.75 13.75ZM15.25 13.75C14.7667 13.75 14.3542 13.5792 14.0125 13.2375C13.6708 12.8958 13.5 12.4833 13.5 12C13.5 11.5167 13.6708 11.1042 14.0125 10.7625C14.3542 10.4208 14.7667 10.25 15.25 10.25C15.7333 10.25 16.1458 10.4208 16.4875 10.7625C16.8292 11.1042 17 11.5167 17 12C17 12.4833 16.8292 12.8958 16.4875 13.2375C16.1458 13.5792 15.7333 13.75 15.25 13.75ZM8.75 7.5C8.26667 7.5 7.85417 7.32917 7.5125 6.9875C7.17083 6.64583 7 6.23333 7 5.75C7 5.26667 7.17083 4.85417 7.5125 4.5125C7.85417 4.17083 8.26667 4 8.75 4C9.23333 4 9.64583 4.17083 9.9875 4.5125C10.3292 4.85417 10.5 5.26667 10.5 5.75C10.5 6.23333 10.3292 6.64583 9.9875 6.9875C9.64583 7.32917 9.23333 7.5 8.75 7.5ZM15.25 7.5C14.7667 7.5 14.3542 7.32917 14.0125 6.9875C13.6708 6.64583 13.5 6.23333 13.5 5.75C13.5 5.26667 13.6708 4.85417 14.0125 4.5125C14.3542 4.17083 14.7667 4 15.25 4C15.7333 4 16.1458 4.17083 16.4875 4.5125C16.8292 4.85417 17 5.26667 17 5.75C17 6.23333 16.8292 6.64583 16.4875 6.9875C16.1458 7.32917 15.7333 7.5 15.25 7.5Z" fill="black"/>
</g>
</svg>
