<svg xmlns="http://www.w3.org/2000/svg" width="20.027" height="20.001" viewBox="0 0 20.027 20.001">
  <defs>
    <style>
      .cls-software {
        fill: currentColor;
      }
    </style>
  </defs>
  <g id="noun_Software_3137070" transform="translate(-1.997 -2)">
    <g id="_15" data-name="15">
      <path id="Tracé_667" data-name="Tracé 667" class="cls-software" d="M12,2a10,10,0,1,0,8.29,15.59,1,1,0,0,0-.24-1.36L15,12.46A3,3,0,0,0,15,12a3,3,0,1,0-1,2.23l4.07,3a8,8,0,1,1,1.61-2.93,1,1,0,0,0,1.92.58A10,10,0,0,0,12,2Zm0,11a1,1,0,1,1,1-1A1,1,0,0,1,12,13Z"/>
    </g>
  </g>
</svg>
