<svg xmlns="http://www.w3.org/2000/svg" width="13.247" height="18.846" viewBox="0 0 13.247 18.846">
  <defs>
    <style>
      .cls-land {
        fill: currentColor;
      }
    </style>
  </defs>
  <g id="noun_land_3405764" transform="translate(-16.625 -2.5)">
    <path id="Tracé_665" data-name="Tracé 665" class="cls-land" d="M29.634,5.476a.589.589,0,0,0-.476-.1,5.2,5.2,0,0,1-2.837-.139,6.037,6.037,0,0,0-3.015-.179V4.484a1.071,1.071,0,1,0-1.111,0V17.021c-4.761.238-5.515,3.531-5.555,3.67a.484.484,0,0,0,.119.456.511.511,0,0,0,.436.2H28.324a.553.553,0,0,0,.555-.655c-.04-.139-.794-3.432-5.555-3.67V10.971a4.9,4.9,0,0,1,2.738.119,7.882,7.882,0,0,0,2.043.317,4.86,4.86,0,0,0,1.349-.179.554.554,0,0,0,.417-.536V5.912A.6.6,0,0,0,29.634,5.476ZM27.491,20.235H18.029c.476-.833,1.726-2.142,4.721-2.142C25.765,18.093,27,19.4,27.491,20.235Zm1.25-9.978a5.7,5.7,0,0,1-2.42-.238,6.037,6.037,0,0,0-3.015-.179V6.19a4.894,4.894,0,0,1,2.738.119,6.777,6.777,0,0,0,2.7.278Z" transform="translate(0)"/>
  </g>
</svg>
