<svg width="21" height="25" viewBox="0 0 21 25" fill="none" xmlns="http://www.w3.org/2000/svg">
<path d="M7.29952 6.68588C5.88888 6.86946 4.59133 7.58641 3.65181 8.70139C2.71228 9.81636 2.19578 11.2522 2.19978 12.738V14.8828C2.20145 15.8187 1.89254 16.7263 1.32568 17.4508L0.431988 18.5969C0.202714 18.8907 0.0577956 19.2464 0.0140252 19.6228C-0.0297452 19.9992 0.0294235 20.3809 0.184676 20.7236C0.339928 21.0663 0.584909 21.356 0.891232 21.5591C1.19756 21.7622 1.55268 21.8705 1.91546 21.8714H4.72263C4.81009 22.7303 5.1985 23.5251 5.81307 24.1027C6.42765 24.6803 7.22493 24.9999 8.05144 24.9999C8.87794 24.9999 9.67523 24.6803 10.2898 24.1027C10.9044 23.5251 11.2928 22.7303 11.3802 21.8714H14.1843C14.5466 21.8718 14.9016 21.7642 15.2075 21.5612C15.5134 21.3582 15.7576 21.0682 15.9113 20.7253C16.0554 20.3795 16.107 19.9994 16.0605 19.6254C16.014 19.2514 15.8712 18.8976 15.6474 18.6018L14.7333 17.4557C14.1664 16.7306 13.8578 15.8224 13.86 14.886V12.7412C13.8747 11.2524 13.3619 9.81058 12.4204 8.69325C11.4789 7.57591 10.1752 6.86207 8.76028 6.68915C8.27502 6.63077 7.78501 6.62968 7.29952 6.68588ZM8.03107 23.5086C7.58494 23.5068 7.15396 23.3393 6.81518 23.0359C6.47639 22.7325 6.2519 22.313 6.18182 21.8525H9.87954C9.80948 22.3129 9.5851 22.7322 9.24648 23.0356C8.90786 23.339 8.47707 23.5066 8.03107 23.5086ZM14.5736 20.0704C14.5401 20.1537 14.4834 20.2245 14.4109 20.2737C14.3384 20.3229 14.2535 20.3482 14.167 20.3463H1.89431C1.8079 20.3482 1.72291 20.3229 1.65042 20.2737C1.57792 20.2245 1.52126 20.1537 1.48781 20.0704C1.4494 19.9884 1.43472 19.8965 1.44557 19.8059C1.45642 19.7153 1.49233 19.63 1.5489 19.5604L2.44259 18.4143C3.21819 17.4101 3.64138 16.1586 3.64174 14.868V12.738C3.63904 11.5243 4.09774 10.3592 4.91694 9.49905C5.73613 8.63887 6.84871 8.15404 8.00992 8.15121C9.17114 8.14839 10.2859 8.62781 11.1089 9.484C11.9319 10.3402 12.3958 11.503 12.3985 12.7167V14.8615C12.3988 16.152 12.822 17.4036 13.5976 18.4078L14.4913 19.5538C14.5544 19.6193 14.5962 19.7038 14.611 19.7954C14.6257 19.8871 14.6126 19.9812 14.5736 20.0647V20.0704Z" fill="black"/>
<path d="M19.4992 4.87098C19.4992 6.75377 18.0443 8.24196 16.2955 8.24196C14.5467 8.24196 13.0918 6.75377 13.0918 4.87098C13.0918 2.98819 14.5467 1.5 16.2955 1.5C18.0443 1.5 19.4992 2.98819 19.4992 4.87098Z" fill="black" stroke="black"/>
<path d="M16.2958 8.44379C18.1839 8.44379 19.7146 6.84401 19.7146 4.87058C19.7146 2.89714 18.1839 1.29736 16.2958 1.29736C14.4076 1.29736 12.877 2.89714 12.877 4.87058C12.877 6.84401 14.4076 8.44379 16.2958 8.44379Z" fill="black" stroke="black"/>
</svg>
