<svg width="17" height="19" viewBox="0 0 17 19" fill="none" xmlns="http://www.w3.org/2000/svg">
<g id="Group 100">
<path id="Path 743" d="M7.29952 0.0413442C5.88888 0.224931 4.59133 0.941877 3.65181 2.05685C2.71228 3.17183 2.19578 4.6077 2.19978 6.09344V8.23823C2.20145 9.17416 1.89254 10.0817 1.32568 10.8063L0.431988 11.9523C0.202714 12.2462 0.0577956 12.6019 0.0140252 12.9783C-0.0297452 13.3547 0.0294235 13.7364 0.184676 14.079C0.339928 14.4217 0.584909 14.7114 0.891232 14.9146C1.19756 15.1177 1.55268 15.226 1.91546 15.2268H4.72263C4.81009 16.0858 5.1985 16.8806 5.81307 17.4582C6.42765 18.0358 7.22493 18.3554 8.05144 18.3554C8.87794 18.3554 9.67523 18.0358 10.2898 17.4582C10.9044 16.8806 11.2928 16.0858 11.3802 15.2268H14.1843C14.5466 15.2273 14.9016 15.1197 15.2075 14.9167C15.5134 14.7137 15.7576 14.4237 15.9113 14.0808C16.0554 13.735 16.107 13.3548 16.0605 12.9808C16.014 12.6068 15.8712 12.253 15.6474 11.9572L14.7333 10.8112C14.1664 10.0861 13.8578 9.17789 13.86 8.24151V6.09671C13.8747 4.60791 13.3619 3.16605 12.4204 2.04871C11.4789 0.931376 10.1752 0.217539 8.76028 0.0446193C8.27502 -0.0137569 7.78501 -0.0148559 7.29952 0.0413442ZM8.03107 16.8641C7.58494 16.8623 7.15396 16.6947 6.81518 16.3913C6.47639 16.0879 6.2519 15.6685 6.18182 15.208H9.87954C9.80948 15.6684 9.5851 16.0877 9.24648 16.3911C8.90786 16.6944 8.47707 16.8621 8.03107 16.8641ZM14.5736 13.4259C14.5401 13.5092 14.4834 13.58 14.4109 13.6292C14.3384 13.6784 14.2535 13.7037 14.167 13.7017H1.89431C1.8079 13.7037 1.72291 13.6784 1.65042 13.6292C1.57792 13.58 1.52126 13.5092 1.48781 13.4259C1.4494 13.3439 1.43472 13.2519 1.44557 13.1613C1.45642 13.0707 1.49233 12.9854 1.5489 12.9159L2.44259 11.7698C3.21819 10.7656 3.64138 9.51406 3.64174 8.2235V6.09344C3.63904 4.87978 4.09774 3.7147 4.91694 2.85452C5.73613 1.99434 6.84871 1.5095 8.00992 1.50668C9.17114 1.50386 10.2859 1.98328 11.1089 2.83947C11.9319 3.69566 12.3958 4.85849 12.3985 6.07215V8.21695C12.3988 9.50751 12.822 10.759 13.5976 11.7632L14.4913 12.9093C14.5544 12.9748 14.5962 13.0593 14.611 13.1509C14.6257 13.2425 14.6126 13.3367 14.5736 13.4201V13.4259Z" fill="black"/>
</g>
</svg>
