<svg width="24" height="24" viewBox="0 0 24 24" fill="none" xmlns="http://www.w3.org/2000/svg">
<g id="percent_FILL0_wght400_GRAD0_opsz48 1">
<path id="Vector" d="M7.24747 10.5C6.34916 10.5 5.58333 10.1825 4.95 9.54747C4.31667 8.91246 4 8.14579 4 7.24747C4 6.34916 4.31751 5.58333 4.95252 4.95C5.58754 4.31667 6.35421 4 7.25253 4C8.15084 4 8.91667 4.31751 9.55 4.95253C10.1833 5.58754 10.5 6.35421 10.5 7.25253C10.5 8.15084 10.1825 8.91667 9.54747 9.55C8.91246 10.1833 8.14579 10.5 7.24747 10.5ZM7.24705 9C7.73235 9 8.14583 8.83015 8.4875 8.49045C8.82917 8.15073 9 7.73823 9 7.25295C9 6.76765 8.83015 6.35417 8.49045 6.0125C8.15073 5.67083 7.73823 5.5 7.25295 5.5C6.76765 5.5 6.35417 5.66985 6.0125 6.00955C5.67083 6.34927 5.5 6.76177 5.5 7.24705C5.5 7.73235 5.66985 8.14583 6.00955 8.4875C6.34927 8.82917 6.76177 9 7.24705 9ZM16.7475 20C15.8492 20 15.0833 19.6825 14.45 19.0475C13.8167 18.4125 13.5 17.6458 13.5 16.7475C13.5 15.8492 13.8175 15.0833 14.4525 14.45C15.0875 13.8167 15.8542 13.5 16.7525 13.5C17.6508 13.5 18.4167 13.8175 19.05 14.4525C19.6833 15.0875 20 15.8542 20 16.7525C20 17.6508 19.6825 18.4167 19.0475 19.05C18.4125 19.6833 17.6458 20 16.7475 20ZM16.7471 18.5C17.2324 18.5 17.6458 18.3301 17.9875 17.9904C18.3292 17.6507 18.5 17.2382 18.5 16.7529C18.5 16.2676 18.3301 15.8542 17.9904 15.5125C17.6507 15.1708 17.2382 15 16.7529 15C16.2676 15 15.8542 15.1699 15.5125 15.5096C15.1708 15.8493 15 16.2618 15 16.7471C15 17.2324 15.1699 17.6458 15.5096 17.9875C15.8493 18.3292 16.2618 18.5 16.7471 18.5ZM5.05 20L4 18.95L18.95 4L20 5.05L5.05 20Z" fill="black"/>
</g>
</svg>
