<svg width="20" height="24" viewBox="0 0 20 24" fill="none" xmlns="http://www.w3.org/2000/svg">
<path d="M10.2379 11.5442H2.70374C2.46071 11.5442 2.24805 11.3315 2.24805 11.0885C2.24805 10.8455 2.46071 10.6328 2.70374 10.6328H10.2379C10.481 10.6328 10.6936 10.8455 10.6936 11.0885C10.6936 11.3315 10.481 11.5442 10.2379 11.5442Z" fill="black"/>
<path d="M10.2379 13.5493H2.70374C2.46071 13.5493 2.24805 13.3367 2.24805 13.0936C2.24805 12.8506 2.46071 12.6379 2.70374 12.6379H10.2379C10.481 12.6379 10.6936 12.8506 10.6936 13.0936C10.6936 13.3367 10.481 13.5493 10.2379 13.5493Z" fill="black"/>
<path d="M10.2379 15.5847H2.70374C2.46071 15.5847 2.24805 15.3721 2.24805 15.129C2.24805 14.886 2.46071 14.6733 2.70374 14.6733H10.2379C10.481 14.6733 10.6936 14.886 10.6936 15.129C10.6936 15.3721 10.481 15.5847 10.2379 15.5847Z" fill="black"/>
<path d="M10.2379 17.5899H2.70374C2.46071 17.5899 2.24805 17.3772 2.24805 17.1342C2.24805 16.8911 2.46071 16.6785 2.70374 16.6785H10.2379C10.481 16.6785 10.6936 16.8911 10.6936 17.1342C10.6936 17.3772 10.481 17.5899 10.2379 17.5899Z" fill="black"/>
<path d="M16.3145 11.5442H13.9752C13.7322 11.5442 13.5195 11.3315 13.5195 11.0885C13.5195 10.8455 13.7322 10.6328 13.9752 10.6328H16.3145C16.5575 10.6328 16.7702 10.8455 16.7702 11.0885C16.7702 11.3315 16.5575 11.5442 16.3145 11.5442Z" fill="black"/>
<path d="M16.3145 13.5493H13.9752C13.7322 13.5493 13.5195 13.3367 13.5195 13.0936C13.5195 12.8506 13.7322 12.6379 13.9752 12.6379H16.3145C16.5575 12.6379 16.7702 12.8506 16.7702 13.0936C16.7702 13.3367 16.5575 13.5493 16.3145 13.5493Z" fill="black"/>
<path d="M16.3145 15.5847H13.9752C13.7322 15.5847 13.5195 15.3721 13.5195 15.129C13.5195 14.886 13.7322 14.6733 13.9752 14.6733H16.3145C16.5575 14.6733 16.7702 14.886 16.7702 15.129C16.7702 15.3721 16.5575 15.5847 16.3145 15.5847Z" fill="black"/>
<path d="M16.3145 17.5899H13.9752C13.7322 17.5899 13.5195 17.3772 13.5195 17.1342C13.5195 16.8911 13.7322 16.6785 13.9752 16.6785H16.3145C16.5575 16.6785 16.7702 16.8911 16.7702 17.1342C16.7702 17.3772 16.5575 17.5899 16.3145 17.5899Z" fill="black"/>
<path d="M10.2379 19.5947H2.70374C2.46071 19.5947 2.24805 19.3821 2.24805 19.139C2.24805 18.896 2.46071 18.6833 2.70374 18.6833H10.2379C10.481 18.6833 10.6936 18.896 10.6936 19.139C10.6936 19.3821 10.481 19.5947 10.2379 19.5947Z" fill="black"/>
<path d="M10.2379 21.6304H2.70374C2.46071 21.6304 2.24805 21.4177 2.24805 21.1747C2.24805 20.9317 2.46071 20.719 2.70374 20.719H10.2379C10.481 20.719 10.6936 20.9317 10.6936 21.1747C10.6936 21.4177 10.481 21.6304 10.2379 21.6304Z" fill="black"/>
<path d="M16.3145 19.5947H13.9752C13.7322 19.5947 13.5195 19.3821 13.5195 19.139C13.5195 18.896 13.7322 18.6833 13.9752 18.6833H16.3145C16.5575 18.6833 16.7702 18.896 16.7702 19.139C16.7702 19.3821 16.5575 19.5947 16.3145 19.5947Z" fill="black"/>
<path d="M16.3145 21.6304H13.9752C13.7322 21.6304 13.5195 21.4177 13.5195 21.1747C13.5195 20.9317 13.7322 20.719 13.9752 20.719H16.3145C16.5575 20.719 16.7702 20.9317 16.7702 21.1747C16.7702 21.4177 16.5575 21.6304 16.3145 21.6304Z" fill="black"/>
<path d="M10.1778 2.15694V2.6734C10.4816 2.73416 10.7246 2.8253 10.9373 2.94682C11.1499 3.06834 11.2411 3.25061 11.2411 3.46327C11.2411 3.73669 11.0284 3.97973 10.7246 3.97973C10.5423 3.97973 10.4208 3.91897 10.2385 3.85821C9.96511 3.76707 9.78283 3.67593 9.41828 3.67593C9.14486 3.67593 8.7803 3.73669 8.7803 4.10125C8.7803 4.34428 8.9322 4.4658 9.32714 4.64808L10.2385 5.04302C10.755 5.25568 11.3322 5.62023 11.3322 6.53163C11.3322 7.29112 10.8765 7.83796 10.117 8.05061V8.56707C10.117 8.90125 9.87397 9.1139 9.57017 9.1139C9.236 9.1139 9.02334 8.90125 9.02334 8.56707V8.11137C8.6284 8.05061 8.29422 7.95947 7.99043 7.80758C7.74739 7.68606 7.65625 7.53416 7.65625 7.29112C7.65625 6.95694 7.86891 6.74428 8.1727 6.74428C8.3246 6.74428 8.41574 6.77466 8.65878 6.89618C8.87144 6.98732 9.11448 7.07846 9.47903 7.07846C9.96511 7.07846 10.2385 6.89618 10.2385 6.56201C10.2385 6.28859 10.0866 6.16707 9.66131 5.98479L8.68916 5.55947C8.1727 5.34682 7.68663 4.89112 7.68663 4.13163C7.68663 3.31137 8.23346 2.79492 9.0841 2.64302V2.15694C9.0841 1.82277 9.32714 1.61011 9.63093 1.61011C9.93473 1.61011 10.1778 1.82277 10.1778 2.15694Z" fill="black"/>
<path d="M18.562 24H0.455696C0.212658 24 0 23.7873 0 23.5443V0.455696C0 0.212658 0.212658 0 0.455696 0H18.5924C18.8354 0 19.0481 0.212658 19.0481 0.455696V23.5443C19.0177 23.7873 18.8354 24 18.562 24ZM0.911392 23.0886H18.1367V0.911392H0.911392V23.0886Z" fill="black"/>
</svg>
