<svg xmlns="http://www.w3.org/2000/svg" width="20.998" height="11.881" viewBox="0 0 20.998 11.881">
  <defs>
    <style>
      .cls-sea {
        fill: currentColor;
      }
    </style>
  </defs>
  <g id="noun_Sea_1525125" transform="translate(-0.834 -14.582)">
    <path id="Tracé_662" data-name="Tracé 662" class="cls-sea" d="M1.331,15.577c.437,0,.663.286,1.023.792a2.219,2.219,0,0,0,1.833,1.208A2.218,2.218,0,0,0,6.02,16.368c.361-.506.587-.792,1.023-.792s.663.286,1.024.792A2.219,2.219,0,0,0,9.9,17.577a2.22,2.22,0,0,0,1.834-1.208c.361-.506.587-.792,1.024-.792s.663.286,1.024.792a2.219,2.219,0,0,0,1.833,1.208,2.22,2.22,0,0,0,1.834-1.208c.361-.506.587-.792,1.025-.792s.663.286,1.025.792a2.22,2.22,0,0,0,1.834,1.208.5.5,0,1,0,0-.995c-.438,0-.664-.286-1.025-.792a2.22,2.22,0,0,0-1.834-1.208,2.22,2.22,0,0,0-1.834,1.208c-.361.506-.587.792-1.025.792s-.663-.286-1.024-.792a2.219,2.219,0,0,0-1.833-1.208,2.219,2.219,0,0,0-1.833,1.208c-.361.506-.587.792-1.025.792s-.663-.286-1.024-.792a2.219,2.219,0,0,0-1.833-1.208,2.218,2.218,0,0,0-1.833,1.208c-.361.506-.587.792-1.023.792s-.662-.286-1.023-.792a2.219,2.219,0,0,0-1.833-1.208.5.5,0,0,0,0,.995Z"/>
    <path id="Tracé_663" data-name="Tracé 663" class="cls-sea" d="M21.335,29.981c-.438,0-.664-.286-1.025-.792a2.22,2.22,0,0,0-1.834-1.208,2.22,2.22,0,0,0-1.834,1.208c-.361.506-.587.792-1.025.792s-.663-.286-1.024-.792A2.219,2.219,0,0,0,12.76,27.98a2.219,2.219,0,0,0-1.833,1.208c-.361.506-.587.792-1.024.792s-.663-.286-1.024-.792A2.219,2.219,0,0,0,7.045,27.98a2.217,2.217,0,0,0-1.833,1.209c-.361.506-.587.792-1.023.792s-.662-.286-1.023-.792A2.218,2.218,0,0,0,1.332,27.98a.5.5,0,1,0,0,.995c.437,0,.662.286,1.023.792a2.218,2.218,0,0,0,1.833,1.209,2.217,2.217,0,0,0,1.833-1.209c.361-.506.587-.792,1.023-.792s.663.286,1.024.792A2.219,2.219,0,0,0,9.9,30.976a2.219,2.219,0,0,0,1.834-1.209c.361-.506.587-.792,1.024-.792s.662.286,1.024.792a2.22,2.22,0,0,0,1.833,1.209,2.219,2.219,0,0,0,1.834-1.209c.361-.506.587-.792,1.025-.792s.663.286,1.025.792a2.221,2.221,0,0,0,1.834,1.209.5.5,0,1,0,0-.995Z" transform="translate(-0.001 -8.956)"/>
    <path id="Tracé_664" data-name="Tracé 664" class="cls-sea" d="M21.335,43.383c-.438,0-.664-.286-1.025-.792a2.22,2.22,0,0,0-1.834-1.208,2.219,2.219,0,0,0-1.834,1.209c-.361.506-.587.792-1.025.792s-.663-.286-1.024-.792a2.22,2.22,0,0,0-1.833-1.209,2.219,2.219,0,0,0-1.833,1.208c-.361.506-.587.792-1.024.792s-.663-.286-1.024-.792a2.219,2.219,0,0,0-1.833-1.209,2.217,2.217,0,0,0-1.833,1.209c-.361.506-.587.792-1.023.792s-.662-.286-1.023-.792a2.219,2.219,0,0,0-1.833-1.209.5.5,0,1,0,0,.995c.437,0,.662.286,1.023.792a2.218,2.218,0,0,0,1.833,1.209,2.217,2.217,0,0,0,1.833-1.209c.361-.506.587-.792,1.023-.792s.663.286,1.024.792A2.219,2.219,0,0,0,9.9,44.378a2.219,2.219,0,0,0,1.834-1.209c.361-.506.587-.792,1.024-.792s.662.286,1.024.792a2.22,2.22,0,0,0,1.833,1.209,2.219,2.219,0,0,0,1.834-1.209c.361-.506.587-.792,1.025-.792s.663.286,1.025.792a2.221,2.221,0,0,0,1.834,1.209.5.5,0,1,0,0-.995Z" transform="translate(-0.001 -17.915)"/>
  </g>
</svg>
