<?xml version="1.0" encoding="UTF-8"?>
<svg width="700pt" height="700pt" version="1.1" viewBox="0 0 700 700" xmlns="http://www.w3.org/2000/svg" xmlns:xlink="http://www.w3.org/1999/xlink">
<defs>
</defs>
 <g>
  <path d="m513.52 399.84 19.602 11.199 0.55859-1.1211c27.441-38.078 42-83.441 42-131.04 0.55859-61.039-22.398-118.16-64.961-160.72-42.559-43.121-99.68-66.641-160.16-66.641-124.88 0-226.24 101.36-226.24 226.24 0 124.88 101.36 226.24 226.24 226.24 21.84 0 42.559-2.8008 62.16-8.9609l1.1211-0.55859-4.4805-22.398-1.6797 0.55859c-19.039 5.6016-38.641 8.9609-58.238 8.9609-112 0-203.28-91.281-203.28-203.28s91.281-203.28 203.28-203.28 203.28 91.281 203.28 203.28c0 43.121-13.441 84.559-39.199 120.4z"/>
  <path d="m541.52 89.602c-50.961-51.523-118.72-79.523-190.96-79.523-25.199 0-49.281 3.3594-72.238 10.078l-1.1211 0.003906 3.9219 20.719h1.6797c22.398-6.1602 45.359-9.5195 67.762-9.5195 137.2 0 249.2 111.44 249.2 249.2 0 137.76-112 248.64-249.2 248.64-137.2-0.55859-249.2-112.56-249.2-249.76 0-52.078 15.68-101.36 45.922-143.92l1.1172-1.1211-18.48-10.641-0.55859 1.1211c-31.918 45.359-49.281 99.121-49.281 155.12 0 148.4 120.96 269.36 269.36 269.36 148.96 0 269.92-120.96 269.92-269.36 1.1211-71.68-26.879-139.44-77.84-190.4z"/>
  <path d="m464.8 262.08h-19.602c-2.8008-11.762-7.2812-22.398-13.441-32.48l15.68-15.68c1.1211-1.1211 1.6797-2.8008 1.6797-4.4805s-0.55859-3.3594-1.6797-4.4805l-21.84-21.84c-2.2383-2.2383-6.1602-2.2383-8.3984 0l-16.238 16.238c-8.9609-5.6016-19.039-9.5195-29.121-12.32v-20.719c0-3.3594-2.8008-6.1602-6.1602-6.1602h-30.238c-3.3594 0-6.1602 2.8008-6.1602 6.1602v20.16c-11.199 2.2383-21.281 6.7188-30.238 12.32l-17.359-17.359c-2.2383-2.2383-6.1602-2.2383-8.3984 0l-21.84 21.84c-1.1211 1.1211-1.6797 2.8008-1.6797 4.4805 0 1.6797 0.55859 3.3594 1.6797 4.4805l16.801 16.801c-6.7188 10.078-11.199 20.719-14 33.039h-19.602c-3.3594 0-6.1602 2.8008-6.1602 6.1602v30.238c0 3.3594 2.8008 6.1602 6.1602 6.1602h19.602c2.2383 10.641 6.7188 20.719 12.32 29.68l-15.68 15.68c-1.125 1.125-1.6875 2.8047-1.6875 4.4844 0 1.6797 0.55859 3.3594 1.6797 4.4805l21.84 21.84c1.1211 1.1211 2.8008 1.6797 4.4805 1.6797 1.6797 0 3.3594-0.55859 4.4805-1.6797l15.121-15.121c10.078 6.7188 21.281 11.199 33.602 14v17.359c0 3.3594 2.8008 6.1602 6.1602 6.1602h30.238c3.3594 0 6.1602-2.8008 6.1602-6.1602v-17.922c11.762-2.8008 22.398-7.2812 31.922-13.441l12.879 12.879c1.1211 1.1211 2.8008 1.6797 4.4805 1.6797 1.6797 0 3.3594-0.55859 4.4805-1.6797l21.281-21.281c1.1211-1.1211 1.6797-2.8008 1.6797-4.4805 0-1.6797-0.55859-3.3594-1.6797-4.4805l-13.441-13.441c5.6016-8.9609 9.5195-19.039 12.32-30.238h19.602c3.3594 0 6.1602-2.8008 6.1602-6.1602v-30.238c-1.6836-3.3555-4.4844-6.1562-7.8438-6.1562zm-115.36 81.203c-33.039 0-59.922-26.879-59.922-59.922 0-33.039 26.879-60.48 59.922-60.48 33.039 0 59.922 26.879 59.922 59.922-0.003906 33.039-26.324 60.48-59.922 60.48z"/>
  <use x="70" y="644" xlink:href="#t"/>
  <use x="90.550781" y="644" xlink:href="#c"/>
  <use x="104.359375" y="644" xlink:href="#a"/>
  <use x="123.347656" y="644" xlink:href="#m"/>
  <use x="142.242188" y="644" xlink:href="#b"/>
  <use x="155.628906" y="644" xlink:href="#a"/>
  <use x="174.617188" y="644" xlink:href="#f"/>
  <use x="204.410156" y="644" xlink:href="#l"/>
  <use x="224.453125" y="644" xlink:href="#k"/>
  <use x="252.453125" y="644" xlink:href="#e"/>
  <use x="274.121094" y="644" xlink:href="#j"/>
  <use x="294.054688" y="644" xlink:href="#a"/>
  <use x="313.046875" y="644" xlink:href="#a"/>
  <use x="332.035156" y="644" xlink:href="#s"/>
  <use x="352.078125" y="644" xlink:href="#i"/>
  <use x="372.011719" y="644" xlink:href="#a"/>
  <use x="400.75" y="644" xlink:href="#e"/>
  <use x="422.421875" y="644" xlink:href="#h"/>
  <use x="442.351562" y="644" xlink:href="#g"/>
  <use x="471.53125" y="644" xlink:href="#a"/>
  <use x="490.519531" y="644" xlink:href="#f"/>
  <use x="70" y="672" xlink:href="#r"/>
  <use x="82.183594" y="672" xlink:href="#c"/>
  <use x="95.992188" y="672" xlink:href="#d"/>
  <use x="115.226562" y="672" xlink:href="#g"/>
  <use x="154.152344" y="672" xlink:href="#b"/>
  <use x="167.535156" y="672" xlink:href="#h"/>
  <use x="187.46875" y="672" xlink:href="#a"/>
  <use x="216.207031" y="672" xlink:href="#q"/>
  <use x="239.640625" y="672" xlink:href="#d"/>
  <use x="258.878906" y="672" xlink:href="#i"/>
  <use x="278.8125" y="672" xlink:href="#j"/>
  <use x="308.492188" y="672" xlink:href="#p"/>
  <use x="329.015625" y="672" xlink:href="#c"/>
  <use x="342.820312" y="672" xlink:href="#d"/>
  <use x="362.058594" y="672" xlink:href="#o"/>
  <use x="371.65625" y="672" xlink:href="#a"/>
  <use x="390.648438" y="672" xlink:href="#n"/>
  <use x="407.242188" y="672" xlink:href="#b"/>
 </g>
</svg>
