<svg width="16" height="16" viewBox="0 0 16 16" fill="none" xmlns="http://www.w3.org/2000/svg">
<circle cx="8" cy="8" r="7.25" stroke="#36A0B4" stroke-width="1.5"/>
<path d="M6.1 6.43333C6.18889 6.43333 6.26667 6.4 6.33333 6.33333C6.4 6.26667 6.43333 6.18889 6.43333 6.1C6.43333 6.01111 6.4 5.93333 6.33333 5.86667C6.26667 5.8 6.18889 5.76667 6.1 5.76667C6.01111 5.76667 5.93333 5.8 5.86667 5.86667C5.8 5.93333 5.76667 6.01111 5.76667 6.1C5.76667 6.18889 5.8 6.26667 5.86667 6.33333C5.93333 6.4 6.01111 6.43333 6.1 6.43333ZM6.1 8.33333C6.18889 8.33333 6.26667 8.3 6.33333 8.23333C6.4 8.16667 6.43333 8.08889 6.43333 8C6.43333 7.91111 6.4 7.83333 6.33333 7.76667C6.26667 7.7 6.18889 7.66667 6.1 7.66667C6.01111 7.66667 5.93333 7.7 5.86667 7.76667C5.8 7.83333 5.76667 7.91111 5.76667 8C5.76667 8.08889 5.8 8.16667 5.86667 8.23333C5.93333 8.3 6.01111 8.33333 6.1 8.33333ZM6.1 10.2333C6.18889 10.2333 6.26667 10.2 6.33333 10.1333C6.4 10.0667 6.43333 9.98889 6.43333 9.9C6.43333 9.81111 6.4 9.73333 6.33333 9.66667C6.26667 9.6 6.18889 9.56667 6.1 9.56667C6.01111 9.56667 5.93333 9.6 5.86667 9.66667C5.8 9.73333 5.76667 9.81111 5.76667 9.9C5.76667 9.98889 5.8 10.0667 5.86667 10.1333C5.93333 10.2 6.01111 10.2333 6.1 10.2333ZM4.66667 12C4.48889 12 4.33333 11.9333 4.2 11.8C4.06667 11.6667 4 11.5111 4 11.3333V4.66667C4 4.48889 4.06667 4.33333 4.2 4.2C4.33333 4.06667 4.48889 4 4.66667 4H9.8L12 6.2V11.3333C12 11.5111 11.9333 11.6667 11.8 11.8C11.6667 11.9333 11.5111 12 11.3333 12H4.66667ZM4.66667 11.3333H11.3333V6.56667H9.43333V4.66667H4.66667V11.3333Z" fill="#36A0B4"/>
</svg>

