<svg width="24" height="24" viewBox="0 0 24 24" fill="none" xmlns="http://www.w3.org/2000/svg">
<g id="trail_length_medium_FILL0_wght400_GRAD0_opsz48">
<path id="Vector" d="M6.875 17V15.5H12.45C12.1 15.15 11.8 14.7375 11.55 14.2625C11.3 13.7875 11.1333 13.2833 11.05 12.75H5V11.25H11.05C11.1333 10.7667 11.2958 10.2708 11.5375 9.7625C11.7792 9.25417 12.0833 8.83333 12.45 8.5H7V7H16C17.3833 7 18.5625 7.4875 19.5375 8.4625C20.5125 9.4375 21 10.6167 21 12C21 13.3833 20.5125 14.5625 19.5375 15.5375C18.5625 16.5125 17.3833 17 16 17H6.875ZM16 15.5C16.9667 15.5 17.7917 15.1583 18.475 14.475C19.1583 13.7917 19.5 12.9667 19.5 12C19.5 11.0333 19.1583 10.2083 18.475 9.525C17.7917 8.84167 16.9667 8.5 16 8.5C15.0333 8.5 14.2083 8.84167 13.525 9.525C12.8417 10.2083 12.5 11.0333 12.5 12C12.5 12.9667 12.8417 13.7917 13.525 14.475C14.2083 15.1583 15.0333 15.5 16 15.5ZM3 17V15.5H6.125V17H3Z" fill="black"/>
</g>
</svg>
