<svg width="19" height="24" viewBox="0 0 19 24" fill="none" xmlns="http://www.w3.org/2000/svg">
<path id="Vector" d="M1.71429 24C1.24286 24 0.839286 23.8321 0.503571 23.4964C0.167857 23.1607 0 22.7571 0 22.2857V9.88571C0 9.41429 0.167857 9.01071 0.503571 8.675C0.839286 8.33929 1.24286 8.17143 1.71429 8.17143H3.71429V5.42857C3.71429 3.92667 4.24387 2.64643 5.30303 1.58786C6.36219 0.529286 7.64314 0 9.14589 0C10.6486 0 11.9286 0.529286 12.9857 1.58786C14.0429 2.64643 14.5714 3.92667 14.5714 5.42857V8.17143H16.5714C17.0429 8.17143 17.4464 8.33929 17.7821 8.675C18.1179 9.01071 18.2857 9.41429 18.2857 9.88571V22.2857C18.2857 22.7571 18.1179 23.1607 17.7821 23.4964C17.4464 23.8321 17.0429 24 16.5714 24H1.71429ZM1.71429 22.2857H16.5714V9.88571H1.71429V22.2857ZM9.14766 18.2857C9.75398 18.2857 10.2714 18.0759 10.7 17.6563C11.1286 17.2366 11.3429 16.7322 11.3429 16.1429C11.3429 15.5714 11.127 15.0524 10.6952 14.5857C10.2634 14.119 9.74438 13.8857 9.13806 13.8857C8.53173 13.8857 8.01429 14.119 7.58571 14.5857C7.15714 15.0524 6.94286 15.5762 6.94286 16.1571C6.94286 16.7381 7.15874 17.2381 7.59051 17.6571C8.02229 18.0762 8.54133 18.2857 9.14766 18.2857ZM5.42857 8.17143H12.8571V5.42857C12.8571 4.39682 12.4964 3.51984 11.7748 2.79763C11.0532 2.0754 10.177 1.71429 9.14623 1.71429C8.11541 1.71429 7.2381 2.0754 6.51429 2.79763C5.79048 3.51984 5.42857 4.39682 5.42857 5.42857V8.17143Z" fill="black"/>
</svg>
