<svg width="24" height="24" viewBox="0 0 24 24" fill="none" xmlns="http://www.w3.org/2000/svg">
<path id="Vector" d="M6.3 7.3C6.56667 7.3 6.8 7.2 7 7C7.2 6.8 7.3 6.56667 7.3 6.3C7.3 6.03333 7.2 5.8 7 5.6C6.8 5.4 6.56667 5.3 6.3 5.3C6.03333 5.3 5.8 5.4 5.6 5.6C5.4 5.8 5.3 6.03333 5.3 6.3C5.3 6.56667 5.4 6.8 5.6 7C5.8 7.2 6.03333 7.3 6.3 7.3ZM6.3 13C6.56667 13 6.8 12.9 7 12.7C7.2 12.5 7.3 12.2667 7.3 12C7.3 11.7333 7.2 11.5 7 11.3C6.8 11.1 6.56667 11 6.3 11C6.03333 11 5.8 11.1 5.6 11.3C5.4 11.5 5.3 11.7333 5.3 12C5.3 12.2667 5.4 12.5 5.6 12.7C5.8 12.9 6.03333 13 6.3 13ZM6.3 18.7C6.56667 18.7 6.8 18.6 7 18.4C7.2 18.2 7.3 17.9667 7.3 17.7C7.3 17.4333 7.2 17.2 7 17C6.8 16.8 6.56667 16.7 6.3 16.7C6.03333 16.7 5.8 16.8 5.6 17C5.4 17.2 5.3 17.4333 5.3 17.7C5.3 17.9667 5.4 18.2 5.6 18.4C5.8 18.6 6.03333 18.7 6.3 18.7ZM2 24C1.46667 24 1 23.8 0.6 23.4C0.2 23 0 22.5333 0 22V2C0 1.46667 0.2 1 0.6 0.6C1 0.2 1.46667 0 2 0H17.4L24 6.6V22C24 22.5333 23.8 23 23.4 23.4C23 23.8 22.5333 24 22 24H2ZM2 22H22V7.7H16.3V2H2V22Z" fill="black"/>
</svg>
