<svg width="26" height="26" viewBox="0 0 26 26" fill="none" xmlns="http://www.w3.org/2000/svg">
<g clip-path="url(#clip0_2527_32617)">
<path d="M19.9018 12.2386C18.9309 11.3117 17.8688 10.5725 16.7158 10.0208C15.5627 9.46906 14.3242 9.19321 13.0001 9.19321C12.5919 9.19321 12.2001 9.21803 11.825 9.26769C11.4498 9.31734 11.1354 9.3863 10.8816 9.47457L9.67337 8.26636C10.1589 8.08981 10.6857 7.95189 11.254 7.85258C11.8222 7.75328 12.4043 7.70362 13.0001 7.70362C14.5449 7.70362 15.9986 8.02361 17.3613 8.66358C18.724 9.30355 19.9184 10.1476 20.9446 11.1959L19.9018 12.2386ZM17.1047 15.0357C16.7406 14.6826 16.4096 14.3985 16.1117 14.1833C15.8138 13.9681 15.4331 13.7557 14.9697 13.5461L13.0994 11.6758C14.1476 11.6979 15.0717 11.9131 15.8717 12.3213C16.6717 12.7296 17.4302 13.2868 18.1474 13.993L17.1047 15.0357ZM18.3792 19.8024L11.8581 13.2813C11.2623 13.4247 10.7133 13.6564 10.2113 13.9764C9.70923 14.2964 9.27063 14.6495 8.89548 15.0357L7.85277 13.993C8.26103 13.5847 8.68308 13.2261 9.11892 12.9172C9.55476 12.6082 10.0761 12.3324 10.683 12.0896L8.84583 10.2525C8.32723 10.5062 7.83622 10.8069 7.37279 11.1545C6.90937 11.5021 6.48456 11.8634 6.09837 12.2386L5.05566 11.1959C5.45289 10.7876 5.87769 10.4069 6.33009 10.0539C6.78248 9.70077 7.2459 9.39734 7.72036 9.14355L6.19768 7.62087L6.90937 6.90918L19.0908 19.0907L18.3792 19.8024ZM13.0001 19.1403L10.5506 16.6742C10.8706 16.3542 11.2374 16.1032 11.6512 15.9212C12.065 15.7391 12.5146 15.6481 13.0001 15.6481C13.4856 15.6481 13.9352 15.7391 14.349 15.9212C14.7628 16.1032 15.1297 16.3542 15.4496 16.6742L13.0001 19.1403Z" fill="#000000"/>
</g>
<circle cx="13" cy="13" r="12.25" stroke="#000000" stroke-width="1.5"/>
<defs>
<clipPath id="clip0_2527_32617">
<rect width="15.8889" height="15.8889" fill="white" transform="translate(5.05566 5.05566)"/>
</clipPath>
</defs>
</svg>
