<svg width="24" height="25" viewBox="0 0 24 25" fill="none" xmlns="http://www.w3.org/2000/svg">
<path d="M12.9 8.06L11.1 8.06L11.1 13.52L8.88 11.3L7.62 12.56L12 16.94L16.38 12.56L15.12 11.3L12.9 13.52L12.9 8.06ZM12 0.500001C13.64 0.500001 15.19 0.815002 16.65 1.445C18.11 2.075 19.385 2.935 20.475 4.025C21.565 5.115 22.425 6.39 23.055 7.85C23.685 9.31 24 10.86 24 12.5C24 14.16 23.685 15.72 23.055 17.18C22.425 18.64 21.565 19.91 20.475 20.99C19.385 22.07 18.11 22.925 16.65 23.555C15.19 24.185 13.64 24.5 12 24.5C10.34 24.5 8.78 24.185 7.32 23.555C5.86 22.925 4.59 22.07 3.51 20.99C2.43 19.91 1.575 18.64 0.945002 17.18C0.315003 15.72 2.8113e-06 14.16 2.95642e-06 12.5C3.0998e-06 10.86 0.315004 9.31 0.945003 7.85C1.575 6.39 2.43 5.115 3.51 4.025C4.59 2.935 5.86 2.075 7.32 1.445C8.78 0.815001 10.34 0.500001 12 0.500001ZM12 2.3C9.16 2.3 6.75 3.295 4.77 5.285C2.79 7.275 1.8 9.68 1.8 12.5C1.8 15.34 2.79 17.75 4.77 19.73C6.75 21.71 9.16 22.7 12 22.7C14.82 22.7 17.225 21.71 19.215 19.73C21.205 17.75 22.2 15.34 22.2 12.5C22.2 9.68 21.205 7.275 19.215 5.285C17.225 3.295 14.82 2.3 12 2.3Z" fill="#36A0B4"/>
</svg>
