<svg width="24" height="19" viewBox="0 0 24 19" fill="none" xmlns="http://www.w3.org/2000/svg">
<path d="M13.6364 11.163C12.7273 11.163 11.9545 10.8397 11.3182 10.1929C10.6818 9.5462 10.3636 8.76087 10.3636 7.83696C10.3636 6.91304 10.6818 6.12772 11.3182 5.48098C11.9545 4.83424 12.7273 4.51087 13.6364 4.51087C14.5455 4.51087 15.3182 4.83424 15.9545 5.48098C16.5909 6.12772 16.9091 6.91304 16.9091 7.83696C16.9091 8.76087 16.5909 9.5462 15.9545 10.1929C15.3182 10.8397 14.5455 11.163 13.6364 11.163ZM4.90909 15.0435C4.45909 15.0435 4.07386 14.8806 3.75341 14.555C3.43295 14.2293 3.27273 13.8378 3.27273 13.3804V2.29348C3.27273 1.83614 3.43295 1.44463 3.75341 1.11895C4.07386 0.793276 4.45909 0.630436 4.90909 0.630436H22.3636C22.8136 0.630436 23.1989 0.793276 23.5193 1.11895C23.8398 1.44463 24 1.83614 24 2.29348V13.3804C24 13.8378 23.8398 14.2293 23.5193 14.555C23.1989 14.8806 22.8136 15.0435 22.3636 15.0435H4.90909ZM7.63636 13.3804H19.6364C19.6364 12.6043 19.9 11.9484 20.4273 11.4125C20.9545 10.8766 21.6 10.6087 22.3636 10.6087V5.06522C21.6 5.06522 20.9545 4.79728 20.4273 4.26141C19.9 3.72554 19.6364 3.06957 19.6364 2.29348H7.63636C7.63636 3.06957 7.37273 3.72554 6.84545 4.26141C6.31818 4.79728 5.67273 5.06522 4.90909 5.06522V10.6087C5.67273 10.6087 6.31818 10.8766 6.84545 11.4125C7.37273 11.9484 7.63636 12.6043 7.63636 13.3804ZM20.7273 18.3696H1.63636C1.18636 18.3696 0.801136 18.2067 0.480682 17.881C0.160227 17.5554 0 17.1639 0 16.7065V3.95652H1.63636V16.7065H20.7273V18.3696Z" fill="#36A0B4"/>
</svg>
