<svg id="Calque_1" data-name="Calque 1" xmlns="http://www.w3.org/2000/svg" viewBox="0 0 252.24 252.24"><circle cx="126.12" cy="126.12" r="126.12" fill="#fff"/><path d="M190,67.27c-1.29-6.79-7-12.36-14.07-12.66a10.78,10.78,0,0,0-2.91.27c-2.16.11-5.1,1.48-5.26,3.84a1.36,1.36,0,0,0,1.65,1.49,2.91,2.91,0,0,0,1.52-.89c.41-.42.83-.79,1.27-1.16a7.6,7.6,0,0,1,3.87-.85h0a8.9,8.9,0,0,1,3.52.9,9.22,9.22,0,0,1,4.86,8.52c0,6.92-5.26,12.07-11.56,14-15.16,4.62-27.67-7.42-38.34-16.29-5.69-4.73-11.77-9.33-18.91-11.58s-14.85-1.76-22,.37C81.59,56.83,71.47,64.58,61.81,72.56,60.87,72,59.92,71.4,59,70.87c-13.34-7.22-30.57-7.41-43,1.86a33.47,33.47,0,0,0-4,3.58.18.18,0,0,0,.26.26,37.9,37.9,0,0,1,23.06-9.84A41.83,41.83,0,0,1,59.44,72.6c.45.26.89.54,1.33.82-1.55,1.28-3.08,2.57-4.61,3.84-2,1.65-4,3.29-6,4.89A20.12,20.12,0,0,0,45,80.05c-1.87-.58-3.61-1-5.71-1.43-1.38-.25-2.54-.44-3.83-.58a29,29,0,0,0-8.61.45,28.28,28.28,0,0,0-6.15,2A39.48,39.48,0,0,0,15.29,83l-2.76,1.67a37.8,37.8,0,0,0-3.73,2.8,17.7,17.7,0,0,0-4.21,4.34c-.35.61.4,1.53,1,1,1.47-1.12,2.65-2.65,4-3.87q1.24-1.08,2.58-2l.08-.06c.39-.28.64-.42,1-.68l.74.95.31.4c.06.09.13.17.19.25s.2.26.31.42l.29.38.33.46.52.72.29.41.44.66c.12.17.34.49.55.84l.35.54.24.38.68,1.15.41.77a17.36,17.36,0,0,0-2.14.3c-.48.1-.64.11-1.16.22a5.1,5.1,0,0,0-.65.16c-.57.18-1.12.66-.92,1.27s1.23,1.07,1.47,1.16a17.86,17.86,0,0,0,2.57.56c4,.53,8.38-.57,12.13-2.22C37.67,92.73,44.35,88,50.69,83.13,55.16,79.67,59.55,76,64,72.36l5.27-4.13C76.18,63,83.41,58.37,91.59,55.5L93,55a44.2,44.2,0,0,1,7.31-1.27,45.11,45.11,0,0,1,21.18,3.42c.47.19.93.39,1.39.6l.5.3,1.92,1.2.42.28-.23-.1c-.75-.32-1.5-.62-2.26-.9a51.09,51.09,0,0,0-7-2c-1.59-.33-3.2-.59-4.81-.76A48.53,48.53,0,0,0,99.12,56c-.81.13-1.63.26-2.43.42l-.59.12c-.27.07-1.22.26-1.49.34-.5.12-1,.24-1.49.38-.27.09-1.21.34-1.47.44s-.6.17-.73.22l-.73.24-1.45.52-1.42.55a51.21,51.21,0,0,0-7.38,3.57,62.3,62.3,0,0,0-6.77,4.58,104.31,104.31,0,0,0-8.34,6.91q-4,3.69-7.7,7.61c2.61-2.48,5.24-5,8-7.3s5.52-4.62,8.45-6.7a77.76,77.76,0,0,1,9.18-5.62,57.37,57.37,0,0,1,9.92-4.05,48.43,48.43,0,0,1,10.54-1.92,50.49,50.49,0,0,1,21.13,3.1c.89.33,1.77.69,2.63,1.07l.36.26,1.06.77.29.21-1.34-.51a56.25,56.25,0,0,0-10.46-2.64,55,55,0,0,0-16.4,0A56.88,56.88,0,0,0,85,62.89a61.62,61.62,0,0,0-15.66,10c-.79.61-1.42,1.26-2.14,1.93l-1.34,1.33a72.18,72.18,0,0,0-6.48,7.46C52,93.39,46.63,104.55,38.55,113.8,29.76,123.86,17,131.4,3.36,127.37c-.63-.19-.89.78-.27,1a27.77,27.77,0,0,0,14.64.13A44.25,44.25,0,0,0,22.07,127c.61-.22,3.42-1.57,3.71-1.72,1.57-.8,3.08-1.85,3.42-2s2.66-1.87,3.88-2.89l.68-.58,4.45-4.36c1.44-1.56,2.79-3.19,4.09-4.87l1.57-2.1c1.66-2.29,3.24-4.64,4.77-7l2.64-4.14c1-1.62,2-3.24,3.08-4.84a100.52,100.52,0,0,1,11.08-14.7,64.68,64.68,0,0,1,8.31-7.38c.77-.51,1.54-1,2.32-1.49a69.4,69.4,0,0,1,19.5-8.56,55.57,55.57,0,0,1,16.85-1.59,51,51,0,0,1,15.53,4,45.07,45.07,0,0,1,6.78,3.75c.75.63,1.49,1.27,2.24,1.89,10.62,9,24.66,19,39.08,12.4,5.75-2.64,10.21-8.38,9.57-15a10.92,10.92,0,0,0-3.14-6.9,14.62,14.62,0,0,1,3.12,2.41,14.07,14.07,0,0,1,3.66,12.51.16.16,0,0,0,0,.14,22.87,22.87,0,0,1-7.66,13.13C175,92.88,166.28,93.93,158,91.49a47.61,47.61,0,0,1-5.25-1.91l-2.07-.94c-5.5-2.6-10.64-6-15.94-8.93-6-3.34-13.11-6.12-18.87-6.9a38.25,38.25,0,0,0-4.28-.45,49.63,49.63,0,0,0-7.52.28A43.7,43.7,0,0,0,99,73.5a55.75,55.75,0,0,0-9.3,3.21l-1.63.81c-7,3.67-12.73,8.92-18,14.74l-3.87,4.5c-1.81,2.17-3.58,4.39-5.34,6.59L58,107l-1.49,1.83c-.2.22-.26.32-.44.53l-.7.83c-.1.12-.16.18-.26.31l-.39.47a90.16,90.16,0,0,1-11.84,11.76l-3.51,2.63a47.64,47.64,0,0,1-6.16,3.67l-.84.4A40.12,40.12,0,0,1,28.58,131l-.59.2a33.3,33.3,0,0,1-4.18,1.08l-.51.09a29.77,29.77,0,0,1-3,.37l-.22,0-1,0h-.35a31.45,31.45,0,0,1-5.6-.38A35.22,35.22,0,0,1,7.51,131c-.66-.22-1.13.85-.48,1.13a23.43,23.43,0,0,0,3.76,1.27.22.22,0,0,0-.21.25c.75,4.35,3.43,7.84,6.71,10.66a67.35,67.35,0,0,0,11.76,7.86q2.31,1.27,4.71,2.34c-2.93.38-5.84,1-8.67,1.6q-7.53,1.69-15,3.55c0,.21,0,.41.07.61,5.31-1.18,10.61-2.4,15.93-3.52a91.76,91.76,0,0,1,9.31-1.56c.91.37,1.83.71,2.75,1l.47.15-.16,2c0,.45,0,.9-.09,1.36-.93.37-1.51,1-1.5,1.59a1.68,1.68,0,0,0,1.07,1.32q-.12.58-.27,1.17c-1-.06-2.09-.08-3.14-.06l-1.22-.43c1.46-.47,2.41-1.31,2.3-2.16-.15-1.09-2-1.72-4.17-1.43-2,.26-3.47,1.16-3.64,2.14a23.57,23.57,0,0,0-9.24.14c-6.14,1.41-11.26,6.22-10.4,12.93.87,6.87,7.18,11.5,13.58,12.87a24.8,24.8,0,0,0,19.7-4.42,28.13,28.13,0,0,0,6-6.09c.64.33,1.28.64,1.94.95a25.9,25.9,0,0,0-5.2,8.5c-2.33,6.31-1.85,13.45,3,18.48,4.47,4.68,11.34,6,16.86,2.28,5.79-3.87,8-10.91,7.66-17.61a40.66,40.66,0,0,0-.88-6.4,18.85,18.85,0,0,0,8.93-1.58c1.59,1.06,3.15,2.16,4.74,3.19,5.45,3.52,12.83,6.62,18.91,2.74.33-.22,0-.81-.36-.61h0a15.65,15.65,0,0,1-6.06-.87,33,33,0,0,1-10.48-5.67c-.91-.74-1.79-1.51-2.66-2.3.12-.17.23-.35.34-.53a.63.63,0,0,0-1.09-.63c-.05.07-.05,0-.13.13s-.08.09-.13.11a40.17,40.17,0,0,0-6.47-5.09,18.25,18.25,0,0,0-10.56-2.42c-.43-.8-.87-1.58-1.33-2.34a29.13,29.13,0,0,0-8.83-9.33c.56-.07,1.12-.15,1.68-.25a44.72,44.72,0,0,0,4.48-1l.2.11a84.47,84.47,0,0,1,13,9.11c7.85,6.42,15.44,13.6,24.94,17.53a30,30,0,0,0,15,2.47c5-.59,9.38-2.88,13.37-5.8,7.83-5.74,15.41-15.33,26-15.18,4.91.06,10.35,2.45,12,7.46.81,2.55.57,5.72-1.49,7.64a5.7,5.7,0,0,1-6.81.74c-.13-.14-.21-.28-.36-.47a2,2,0,0,0-1.11-.72,1.07,1.07,0,0,0-1.35,1.15c.11,1.63,2.21,2.74,3.75,2.71,3.83.9,8-1.18,10.19-4.38,3-4.33,2.36-10.44-.34-14.73a17.32,17.32,0,0,0-12.35-7.84c-6.08-.8-12,1.57-17.21,4.45-5.68,3.15-11,7-17.46,8.53a31,31,0,0,1-18.33-1.23c-9.42-3.64-15.71-11.63-21.88-19.37l1.48-.61c8.25-3.38,18.41-6.56,27.15-3.05,4.94,2,9.17,7,8,12.61a6.4,6.4,0,0,1-.48,1.48c-.07.14-.13.27-.21.4a10,10,0,0,1-.7,1.12c-.07.11-.16.21-.24.32-2.22,2.65-6.12,3.9-9.23,1.92A1.75,1.75,0,0,0,107,163a1,1,0,0,0-1.21-.29,1.25,1.25,0,0,0-.85,1,1.27,1.27,0,0,0,0,.4c.07,4.69,5.55,5.18,9,4.38a17.62,17.62,0,0,0,8.94-29.37c-6.24-6.66-16.09-7.79-24.68-6.64-9,1.21-17.81,4.65-26.9,5.37A37.77,37.77,0,0,0,61.38,131a27.77,27.77,0,0,0-9.85-2.56c-1.42-2.74-2.34-5.68-3.54-8.57l0,0a.38.38,0,0,0,.15,0c3.1,2.94,8.19,3.83,12.28,3.72a28.22,28.22,0,0,0,13.51-4c.3-.17.6-.36.89-.55a5.07,5.07,0,0,0,1.06-.42l.18-.1c3.75,4,7.92,7.72,12.86,10.1,7,3.36,14.61,3.07,21.71.26.83-.33,1.66-.69,2.49-1.07a18.24,18.24,0,0,0,9.87,4.43c4.37.51,8.75-.38,13.11-.51a32.71,32.71,0,0,1,11.77,1.79,15.67,15.67,0,0,1,5.37,3v0c.16.36.79.1.65-.28-2.5-6.76-10.26-8.73-16.73-9.21-4.64-.33-9.4-.2-13.88-1.65a17.39,17.39,0,0,1-3.18-1.41,45.27,45.27,0,0,0,9.75-8.47c4.32-5.12,6.78-12.09,4.49-18.67-2.18-6.27-8.44-9.38-14.83-8.34-6.86,1.11-11.55,6.52-13.5,13a26.23,26.23,0,0,0-.54,12.84,24.57,24.57,0,0,1-16.14-7.54l-.86-1c2.2-2.92,4.28-5.93,6.59-8.77A30.15,30.15,0,0,1,102,90.44a19.38,19.38,0,0,1,4.67-2.13c.78,0,1.58-.11,2.34-.18s1.78,0,2.33-.62a.93.93,0,0,0,.22-1,.37.37,0,0,0-.17-.41c-7.21-3.18-15.14,0-21,4.49a78.94,78.94,0,0,0-7.5,6.8c-2-3.47-3.85-7-6.11-10.31A58.69,58.69,0,0,1,86,80,44.68,44.68,0,0,1,111,73.48c9.28.35,17.46,3.91,25.37,8.52S151.9,91.59,161,93.16a25.71,25.71,0,0,0,21.55-5.66C188.2,82.53,191.43,74.8,190,67.27Zm-3.81-6.15a14.57,14.57,0,0,0-6.3-3.8,9.45,9.45,0,0,0-6.37-.47,7.36,7.36,0,0,0-3.12,1.83c-.4.24-1.69,1.44-2,.19a2.13,2.13,0,0,1,.57-1.46,5.87,5.87,0,0,1,3.27-1.92,14.47,14.47,0,0,1,16.14,8.86A13.49,13.49,0,0,0,186.2,61.12Zm-154.72,99c1.62-.21,3.51.16,3.62,1s-1.22,1.51-2.65,1.82a32.5,32.5,0,0,0-4.21-1.08C28.35,161.12,30,160.37,31.48,160.17ZM30.12,175c-1.83,1.39-5.63,2.43-8.1,1.47s-5-5.34.32-8.28S35,169.93,35,169.93A15.74,15.74,0,0,1,30.12,175ZM38,162.12c-.41-.23-.67-.51-.68-.84s.39-.76,1-1C38.22,160.87,38.12,161.5,38,162.12ZM26.05,133.86c1.61-1.78,6.47.35,9.82,3.38s6,7.65,4.35,9.43-6.48-.34-9.83-3.37S24.43,135.65,26.05,133.86ZM52.9,203.29a9.29,9.29,0,0,1-5.56-8.92c0-5.67,3.34-10.71,7.93-13.84.63.2,1.26.4,1.9.58,4.24,4.94,7.25,12,4.95,18.18A6.77,6.77,0,0,1,52.9,203.29Zm1.22-31.73a24.46,24.46,0,0,0-2.73-1.88c.11-.31.22-.61.32-.92a27.18,27.18,0,0,1,9.65,9,72.32,72.32,0,0,1-11-5.61c.3-.64.57-1.29.82-1.95.91.53,1.79,1.1,2.66,1.7,1.08.76,2.12,1.57,3.14,2.42A21.57,21.57,0,0,0,54.12,171.56Zm10.13,7.2a.56.56,0,0,1,.2-.11c.27-.08.58.09.87.4Zm2.25,4.33c-.07.47-.26.82-.56.9-.46.13-1-.42-1.42-1.19h0Zm-1.7,4.73a21.67,21.67,0,0,1-.61,7.12c0-4.68-2.13-9.52-4.91-13.24,1.47.37,2.94.69,4.43,1A21.53,21.53,0,0,1,64.8,187.82Zm-4.63-16.3c.71-.4,2,.8,2.81,2.13s1.1,3.1.39,3.5-2-.8-2.8-2.13S59.46,171.93,60.17,171.52Zm10.48,21.06a8.1,8.1,0,0,1-.12,1.31,22.64,22.64,0,0,1-1.1,4.57A20.72,20.72,0,0,1,67.71,202a10.24,10.24,0,0,1-1.58,2.11A12.71,12.71,0,0,1,60.24,208l-.71.2-.63-3.69a7.8,7.8,0,0,0,4.17-4.14c.15-.33.24-.66.39-1a20.51,20.51,0,0,0,1.18-2.78c0,1,.41,1.75,1,1.88.86.19,1.83-1,2.22-2.74s0-3.24-.86-3.43c-.55-.12-1.14.33-1.6,1.12a20.71,20.71,0,0,0,.24-2.95c.32.65.76,1,1.24,1,.88,0,1.51-1.46,1.43-3.23s-.84-3.12-1.72-3.08c-.53,0-1,.56-1.22,1.36a23.71,23.71,0,0,0-.54-2.61,1.28,1.28,0,0,0,1.22.47,1.39,1.39,0,0,0,.83-1.22c.75.09,1.5.17,2.24.23l.7,0c.17.75.33,1.69.44,2.25a35.17,35.17,0,0,1,.43,4.68C70.7,191.65,70.69,191.84,70.65,192.58Zm-5.49,2.51c.28-1.28,1.07-2.6,1.76-2.45s.84,1.68.56,3-1.08,2.61-1.76,2.46S64.88,196.37,65.16,195.09Zm.39-7.12c0-1.2.42-2.42,1.06-2.45s1.25,1.41,1.31,2.72-.36,2.8-1,2.83-1.08-1-1.26-2.1C65.6,188.64,65.58,188.31,65.55,188Zm4.27-8.13c-.26-.88-.55-1.74-.85-2.6a17.28,17.28,0,0,1,3.38.79,25.74,25.74,0,0,1,3.71,1.66A25,25,0,0,1,69.82,179.84Zm13.44-.79c.55.49,1.11,1,1.67,1.45,4.69,3.93,10.94,7.61,17.21,7.13l-.25.12-.19.08a9,9,0,0,1-1.07.38c-.22.06-.85.23-1.35.31a15.93,15.93,0,0,1-1.63.18C91,189,85.86,185,80.55,181.41a9.2,9.2,0,0,0,1-.66l.56-.46A10,10,0,0,0,83.26,179.05Zm-7.55-5.94a38.89,38.89,0,0,1,6.22,4.77s-2.69,1.06-3.13,1.17c-.28.09-.9.28-1.38.39a29,29,0,0,0-3.57-1.79,19.44,19.44,0,0,0-5.22-1.32q-.28-.77-.6-1.53c-.5-1.15-1.28-2.87-1.84-4A17.15,17.15,0,0,1,75.71,173.11ZM64.76,170l.45.87c1.15,2.26,3,6.81,3.08,7.19.31,1,.42,1.61.07,1.57L68,179.6l-1.08-.19-1-.21c-.48-.7-1.07-1.07-1.58-.92a.89.89,0,0,0-.5.36c-.43-.13-.86-.27-1.28-.42-.17-.3-.34-.6-.52-.9a1.5,1.5,0,0,0,1.54.22c.9-.51.8-2.31-.22-4.11s-2.52-2.8-3.42-2.3c-.69.4-.78,1.58-.31,2.92A28.57,28.57,0,0,0,52,167.87c.23-.8.44-1.6.62-2.42a1.38,1.38,0,0,0,.87-.77,1.64,1.64,0,0,0-.43-1.57,37.9,37.9,0,0,0,.43-4.65l.71-.05A29.59,29.59,0,0,1,64.76,170Zm-12-5.19c.07-.34.13-.68.19-1a.86.86,0,0,1,.08.69A.71.71,0,0,1,52.74,164.84Zm22.66.31a85.58,85.58,0,0,0-12.47-8.48,90.48,90.48,0,0,0,9.61-3.61c1.88,3,3.72,5.95,5.73,8.8.7,1,1.42,1.95,2.18,2.89Zm83,18.1a4.08,4.08,0,0,1-2.44-1.49c-.22-.35-.63-1.19.32-1,.22,0,.44.33.64.43l.07,0a6.11,6.11,0,0,0,6.78.81,10.37,10.37,0,0,0,4-2.36A9.81,9.81,0,0,1,158.4,183.25ZM84.18,154.4l3.22,3.73a61.86,61.86,0,0,0,4.81,4.77l.84.73c1.08.9,2.19,1.75,3.37,2.55.8.54,1.6,1,2.46,1.5a21.17,21.17,0,0,0,2.67,1.32,40,40,0,0,0,5.4,1.81,33.18,33.18,0,0,0,4.26.73,39.61,39.61,0,0,0,4.46.16,30.92,30.92,0,0,0,3.86-.37,34.14,34.14,0,0,0,8-2.32c4.85-2.13,10-5.79,15.28-8.44l2.28-1.06c5-2.14,10.18-3.08,15.47-.76a16.45,16.45,0,0,1,6.24,4.81l.29.37a14.82,14.82,0,0,1,3,7.52,9.52,9.52,0,0,1-2.72,7.7A10,10,0,0,1,166,180.3a5.6,5.6,0,0,0,.49-.68,8.94,8.94,0,0,0,.1-8.87l-.27-.5a11,11,0,0,0-2-2.56l-.18-.14-1.11-.88a16.37,16.37,0,0,0-10.75-2.6,24.81,24.81,0,0,0-10.69,4l-1.25.81c-.89.59-1.76,1.22-2.6,1.85-2.31,1.75-4.49,3.67-6.73,5.52-.8.5-1.63,1-2.48,1.39a35.12,35.12,0,0,1-11.29,3.26q-1.33.16-2.67.21A38.05,38.05,0,0,1,105,179.9a47.45,47.45,0,0,1-12.89-5.54,42.25,42.25,0,0,1-4.13-3.13s-.72-.64-2.66-2.45a65.42,65.42,0,0,1-7.65-9.45c-.66-1-3.48-5-4.1-6.76.78-.29.76-.27,1.13-.39,2.24,2.66,4.43,3.25,5.16,2.62s.41-2.69-1.06-4.46l1.58-.7C81.61,151.24,82.88,152.83,84.18,154.4Zm-5.69-1.81a2.2,2.2,0,0,0-.47-.71,3.84,3.84,0,0,1,.23.78.48.48,0,0,1,0,.17l0,.09h0l-.13,0-.15-.09a1.84,1.84,0,0,0-.16-.73c-.5-1.16-.06-.28-.54-.82l-.14-.15,1.22-.54,0,0c1.13,1.32,1.9,3.22,1.19,3.82S77,154,75.89,152.63a6.31,6.31,0,0,1-.58-.78l.69-.3a6.26,6.26,0,0,0,.49.66,5,5,0,0,0,.62.6c.12.09.23.17.36.25a1.52,1.52,0,0,0,.43.19.57.57,0,0,0,.27,0,.47.47,0,0,0,.16,0,.36.36,0,0,0,.15-.12.52.52,0,0,0,.07-.3A.84.84,0,0,0,78.49,152.59Zm-4-14c.73-.1,1.45-.21,2.17-.34h0c2.17-.38,4.33-.86,6.47-1.38,9.47-2.26,19.46-5.39,29.18-2.68a20.65,20.65,0,0,1,10.49,6.44,16.92,16.92,0,0,1,3.6,12.3,16.25,16.25,0,0,1-4.26,9.34s.05-.08.07-.13a13.73,13.73,0,0,0,3.27-5.92,15.07,15.07,0,0,0,.54-3.4,18.07,18.07,0,0,0-1-6.76,19.91,19.91,0,0,0-1.46-3.1,18.72,18.72,0,0,0-2-2.76,20.81,20.81,0,0,0-2.46-2.33,20.37,20.37,0,0,0-2.85-1.84,19.09,19.09,0,0,0-3.13-1.25,17,17,0,0,0-3.3-.56l-5.88,3.86a37,37,0,0,0-9.92,0c-6.27.75-12.29,2.72-18.46,4l-2.74-3.34C73.43,138.73,73.67,138.73,74.44,138.64Zm-14.36-7a33.38,33.38,0,0,1,9.67,6.23,37.28,37.28,0,0,1-4.48-.07,16.77,16.77,0,0,1-6.37-1.73q-.93-.62-1.92-1.17a15.83,15.83,0,0,1-3.25-3.1,17.44,17.44,0,0,1-1.34-1.92A24.06,24.06,0,0,1,60.08,131.68Zm5.12,12.48a50.93,50.93,0,0,0,9.56-1l1.86-.37c1.76-.37,3.5-.79,5.25-1.22l4.07-1c.74-.17,1.11-.27,2.24-.51s3.49-.74,5-1c1-.14,1.18-.15,2.31-.29a27.71,27.71,0,0,1,5.24-.16c1.09.1,1.55.09,2.24.18s2.13.34,2.67.47.49.11.73.18a17.77,17.77,0,0,1,12.18,10.08l.05.19c.1.43.2.86.26,1.29a13.11,13.11,0,0,1,.16,3,11.53,11.53,0,0,0-.54-1.82c-2.2-5.59-7.4-8.24-13-9.12,0,0-1.75-.26-3.09-.32-.76,0-.82,0-1.93,0a37.63,37.63,0,0,0-4.28.32c-.5.06-.7.1-1,.16l-1.2.23a43.84,43.84,0,0,0-4.57,1.16c-.79.24-1.54.48-2.1.67s-2.39.83-3.92,1.46c-.61.25-2.79,1.15-4.18,1.76l-3.48,1.54c-1.22.54-2.43,1.08-3.65,1.6l-.1,0a1.46,1.46,0,0,1-.23.1l-1.88.79-5.29,2A48.79,48.79,0,0,1,56,156.78c-2.29.29-4.5.38-4.5.38a39.41,39.41,0,0,1-13.41-2.27c-1.47-.5-2.15-.76-4.34-1.69a65.36,65.36,0,0,1-6.06-3c-1.07-.63-4-2.39-6-3.69-4.67-3.1-9.56-7.1-10.7-12.9a.18.18,0,0,0-.07-.11c6.12,1.07,8.2.85,13.52.21-.79,2.53,1.19,7.12,5.07,10.62,4.52,4.09,9.66,5.53,11.7,3.28a1.56,1.56,0,0,0,.16-.2c-.11,1.92,2.58,4,6.39,5,4,1,7.57.16,8-1.85s-2.3-4.34-6.33-5.31c-3.35-.81-6.35-.38-7.55.93.52-2.56-1.46-6.49-5.16-9.84a16.79,16.79,0,0,0-7.49-4.18c1.93-.43,7.42-3.54,8.8-4.41C41.66,139,54.07,144.18,65.2,144.16Zm-22.91,3.06c.38-1.59,4-1.91,7-1.19s6.05,2.63,5.67,4.23-4,1.9-7,1.18S41.9,148.81,42.29,147.22Zm20.55-44.53q2.35,2.91,4.74,5.79a17.26,17.26,0,0,1-9.89.63C59.42,107,61.13,104.84,62.84,102.69Zm-3.93,19c-.14.34-.57.5-1.13.53s-1.1-.11-1.65-.2a8.24,8.24,0,0,1-.88-.29c-1.48-.62-2.89-1.85-2.56-2.63s2.19-.65,3.66,0S59.24,120.88,58.91,121.67ZM69,120.49a26.84,26.84,0,0,1-3.07,1c-1.2-.06-2.4-.49-2.42-1.12s1.44-1.22,2.75-1.25,2.78.42,2.8,1.12A.54.54,0,0,1,69,120.49Zm.44-.17v-.09c0-.88-1.42-1.54-3.19-1.5s-3.14.77-3.12,1.65c0,.62.71,1.12,1.73,1.36l-.63.13a25,25,0,0,1-5.19.41,1.22,1.22,0,0,0,.34-.44c.41-1-.83-2.41-2.82-3.23s-3.87-.7-4.28.29c-.31.75.32,1.74,1.5,2.54a39,39,0,0,1-4.88-2.07A25.67,25.67,0,0,0,53,115l.24-.3,1.2-1.54.77-1.08.39-.47a12.68,12.68,0,0,0,2.5,1.87,7.77,7.77,0,0,0,1.65.76,16.14,16.14,0,0,0,3.6.74,14.33,14.33,0,0,0,4.83-.42,29.12,29.12,0,0,0,2.81-.86s.7-.34.83-.19l.46.54.3.36.25.29.07.08.58.68.3.35.36.4c-1.15.73-1.77,1.69-1.44,2.33a.75.75,0,0,0,.07.12A31.46,31.46,0,0,1,69.41,120.32Zm4.8-2.51s0,0,0,0l0-.07.08-.09s0,0,0,0l.14,0Zm.32-.8a2,2,0,0,0-.44.43.64.64,0,0,0-.08.14.44.44,0,0,0,0,.21s0,0,0,.06l0,.06h0l-1,.58a.61.61,0,0,1-.07-.1c-.25-.5.46-1.33,1.36-1.9l.35.39Zm49.76,9.45c8.38,2.21,18.46-.41,25.65,5.53a12,12,0,0,1,2.23,2.4c-.45-.28-.91-.54-1.37-.8s-.76-.57-1.16-.84a3.33,3.33,0,0,0-.34-.24,7.59,7.59,0,0,0-.66-.42,25.47,25.47,0,0,0-11.87-3.76c-6.87-.45-14.06,1.81-20-2.43.87-.49,1.74-1,2.59-1.53A19.4,19.4,0,0,0,124.29,126.46ZM113.21,97.13A9.3,9.3,0,0,1,123,93.37a6.78,6.78,0,0,1,5,8.76c-2,6.81-9.64,10.73-16.42,11.8C109.39,108.44,109.58,101.94,113.21,97.13ZM90,101.57l-1.35,1.82c-.39.26-.78.38-1,.2s0-1.15.57-1.75,1.34-1.08,1.66-.8A.52.52,0,0,1,90,101.57Zm2.47-3.43c-.43.5-1.1.89-1.37.66s0-1,.47-1.44,1.11-.89,1.37-.66S92.9,97.65,92.46,98.14Zm1.72-3c-.23-.21,0-.85.42-1.29s1-.8,1.23-.59,0,.85-.42,1.29S94.42,95.34,94.18,95.14Zm4.4-3.56-.38.32-.39.36c-.43.25-.92.37-1.08.16s.22-.82.69-1.17,1.13-.57,1.32-.32S98.76,91.33,98.58,91.58ZM85.5,101.37l2.11-2.58c.47-.58,1-1.15,1.45-1.72l2-2.22c.42-.44.68-.67,1.29-1.29s2-1.76,2.26-2l.58-.45a28.19,28.19,0,0,1,2.92-1.9,15.63,15.63,0,0,1,9.5-2.34c-3.18.44-6.28,2.39-8.7,4.4a.49.49,0,0,0,0-.46c-.24-.32-.92-.2-1.56.28s-1,1.09-.72,1.41.45.22.81.11c-.53.5-1,1-1.54,1.55.25-.44.29-.86.07-1.05s-.94,0-1.47.6-.7,1.28-.4,1.54.58.1,1-.16c-.66.74-1.29,1.51-1.91,2.29.13-.36.12-.68-.07-.84-.34-.29-1,0-1.64.67s-.79,1.42-.45,1.71.68.12,1.13-.21c-.63.83-1.25,1.67-1.87,2.51a.59.59,0,0,0-.18-.38c-.41-.35-1.29,0-2,.82s-1,1.73-.55,2.09a.78.78,0,0,0,.81,0l-.22.3c-.14.18-.27.36-.41.53-.53-.66-1-1.34-1.52-2l-.18-.26-.54-.79Zm3.75,7a24.79,24.79,0,0,0,2.62,2.25,26.67,26.67,0,0,0,19.2,4.7l1-.15.64-.11c5.13-1,11-3.79,14.31-8.23a21.34,21.34,0,0,1-2.72,4.76,23.1,23.1,0,0,1-13.4,8.31c-10.86,2.44-21.76-2.47-29.25-10.25-.67-.7-1.31-1.41-1.94-2.14Zm4.74,11a30.19,30.19,0,0,0,16.86,1.37,17.78,17.78,0,0,0,3.83-1.11c.78-.3,1.58-.64,2.67-1.18A29.27,29.27,0,0,0,121,116a19.12,19.12,0,0,0,1.75-1.54,27.27,27.27,0,0,0,2.67-3.17c.44-.66,1-1.55,1.58-2.64a15.17,15.17,0,0,0,1.15-2.66c.24-.75.47-1.43.79-2.56.15-.57.27-1.1.38-1.6a7.7,7.7,0,0,0-1.06-6.17l2.62-2.6a11,11,0,0,1,.78,1,13.33,13.33,0,0,1,2.35,6.65v2.64a18.67,18.67,0,0,1-.75,3.83l-1.87,4.31c-.22.38-.45.75-.7,1.11-.41.62-.85,1.22-1.31,1.8l-3.17,3.48c-.82.78-1.68,1.53-2.57,2.25l-3.57,2.62c-1.06.7-2.14,1.37-3.23,2l-4.51,2.34c-6.62,3-14,4.18-21,1.56-7.27-2.74-12.86-8.6-17.85-14.33-3.49-4-6.9-8.07-10.34-12.12,2-2.54,4.08-5.07,6.2-7.51,1.13,1.84,2.27,3.68,3.47,5.5.16.29.33.59.51.88a20.46,20.46,0,0,0,1.64,2.27C80,110.21,85.79,116.28,94,119.34Z" fill="#0c3c51"/><path d="M18.23,123.57a23.72,23.72,0,0,0,3-.92c.65-.23,1.28-.51,1.91-.79s1.2-.58,1.78-.91,1.14-.68,1.71-1,1.11-.74,1.64-1.14a35.3,35.3,0,0,0,5.82-5.37,37.88,37.88,0,0,0,2.48-3.16,26.6,26.6,0,0,0,2-3.44,72,72,0,0,1-5.38,5.77,55,55,0,0,1-6,5c-1,.76-2.12,1.48-3.24,2.14-.55.34-1.12.64-1.68,1s-1.15.6-1.75.87a39.13,39.13,0,0,1-7.41,2.59A21.85,21.85,0,0,0,18.23,123.57Z" fill="#fff"/><path d="M19.79,114.11c.4-.13.78-.29,1.17-.46s.52-.25.77-.39.51-.28.76-.43l.72-.47a16.94,16.94,0,0,0,2.6-2.25,16.13,16.13,0,0,0,1.33-1.54,11.75,11.75,0,0,0,1.1-1.7,37.08,37.08,0,0,1-2.89,2.73,26.38,26.38,0,0,1-3.17,2.3c-.55.34-1.11.66-1.7.95-.28.15-.58.28-.88.42s-.59.26-.9.38a23.6,23.6,0,0,1-3.81,1.11A11.49,11.49,0,0,0,18,114.6,12.74,12.74,0,0,0,19.79,114.11Z" fill="#1e2939"/><path d="M42.14,67.39A33.16,33.16,0,0,0,36,67.12,32.47,32.47,0,0,0,24.1,70a33.4,33.4,0,0,0-5.34,3,31.1,31.1,0,0,0-8.45,8.7,40.13,40.13,0,0,1,9-7.78,37.57,37.57,0,0,1,5.27-2.73,36.43,36.43,0,0,1,11.46-2.77,39.14,39.14,0,0,1,5.93,0,39.88,39.88,0,0,1,11.6,2.79A31.05,31.05,0,0,0,42.14,67.39Z" fill="#0c3c51"/><path d="M28.37,73.24a30.29,30.29,0,0,0-9.62,4,26.83,26.83,0,0,0-7.5,7.09,38.51,38.51,0,0,1,8.16-6A36,36,0,0,1,38.68,74a39.92,39.92,0,0,1,10,1.8,27.71,27.71,0,0,0-9.85-3.08A31,31,0,0,0,28.37,73.24Z" fill="#0c3c51"/><path d="M100.41,69.25c3.83-.48,6.65-2.36,6.41-4.27s-3.43-3-7.27-2.55-6.65,2.36-6.41,4.27S96.57,69.73,100.41,69.25Zm-.75-6c2.84-.36,6.14.3,6.33,1.82s-2.85,3-5.69,3.32-6.14-.3-6.33-1.82S96.81,63.62,99.66,63.27Z" fill="#0c3c51"/><path d="M96.78,66.56a.94.94,0,0,0,.37.23,3.13,3.13,0,0,0,1.42.08,4.43,4.43,0,0,1-1.24-.45.48.48,0,0,1-.18-.16c0-.06,0-.06,0-.09a.51.51,0,0,1,.13-.13l.24-.15.07,0a1.85,1.85,0,0,0,.8.47,3.4,3.4,0,0,0,1.27,0,5.38,5.38,0,0,0,1.58-.39,2.88,2.88,0,0,0,1-.72l.28.07.21.09.05,0h0a.24.24,0,0,1-.06.16,1,1,0,0,1-.2.2,5.86,5.86,0,0,1-1.14.69,3.73,3.73,0,0,0,1.36-.34,2.1,2.1,0,0,0,.33-.22.73.73,0,0,0,.25-.44.56.56,0,0,0,0-.31.67.67,0,0,0-.16-.23,1.09,1.09,0,0,0-.37-.26,2.87,2.87,0,0,0-.72-.23,4.78,4.78,0,0,0-.72-.1,8.52,8.52,0,0,0-1.43,0,9.51,9.51,0,0,0-1.39.28,5.1,5.1,0,0,0-1.33.6,2.51,2.51,0,0,0-.31.26,1.07,1.07,0,0,0-.25.42.38.38,0,0,0,0,.15.44.44,0,0,0,0,.16A.48.48,0,0,0,96.78,66.56Z" fill="#0c3c51"/><path d="M30.61,139.69a7,7,0,0,1-.74-1.94.92.92,0,0,1,0-.38c0-.09.07-.07.11-.08a.9.9,0,0,1,.3,0c.13,0,.27.08.42.13l.1.05a2.71,2.71,0,0,0,.27,1.45,5.56,5.56,0,0,0,1.24,1.58A8.05,8.05,0,0,0,34.41,142a4.79,4.79,0,0,0,1.89.47c.07.13.14.26.2.39a1.18,1.18,0,0,1,.1.35s0,.07,0,.09,0,0,0,0-.11.08-.24.09a2.33,2.33,0,0,1-.45,0,10,10,0,0,1-2-.66A6.05,6.05,0,0,0,35.73,144a2.78,2.78,0,0,0,.6.16,1.13,1.13,0,0,0,.79-.14,1,1,0,0,0,.33-.38,1.19,1.19,0,0,0,.11-.43,1.94,1.94,0,0,0-.07-.7,4.64,4.64,0,0,0-.47-1.11,10.59,10.59,0,0,0-.63-1,12.5,12.5,0,0,0-1.51-1.66,13.25,13.25,0,0,0-1.77-1.37,7.49,7.49,0,0,0-2.08-1,3.19,3.19,0,0,0-.63-.1,1.55,1.55,0,0,0-.76.13.62.62,0,0,0-.19.14.58.58,0,0,0-.17.18.91.91,0,0,0-.14.42,1.46,1.46,0,0,0,.1.68A4.87,4.87,0,0,0,30.61,139.69Z" fill="#0c3c51"/><path d="M45.41,148.62a3.32,3.32,0,0,0,1.39.61,4.9,4.9,0,0,1-1.08-.91.5.5,0,0,1-.11-.24c0-.06,0-.06,0-.08a.74.74,0,0,1,.19-.08l.29,0h.08a1.84,1.84,0,0,0,.63.78,3.77,3.77,0,0,0,1.25.54,5.65,5.65,0,0,0,1.73.2A3.29,3.29,0,0,0,51.1,149a2.2,2.2,0,0,1,.25.17,1.52,1.52,0,0,1,.18.17l0,.06,0,0a.25.25,0,0,1-.12.13,1.2,1.2,0,0,1-.28.13,6.29,6.29,0,0,1-1.41.27,4.41,4.41,0,0,0,1.51.17,2.43,2.43,0,0,0,.41-.1.82.82,0,0,0,.42-.34.77.77,0,0,0,.07-.34.88.88,0,0,0-.07-.29,1.48,1.48,0,0,0-.27-.4,3.27,3.27,0,0,0-.64-.5,5.8,5.8,0,0,0-.69-.37,8.47,8.47,0,0,0-1.44-.5,8.63,8.63,0,0,0-1.51-.24,5.16,5.16,0,0,0-1.56.09,2.26,2.26,0,0,0-.41.15,1,1,0,0,0-.41.33.46.46,0,0,0-.07.14.42.42,0,0,0,0,.16.7.7,0,0,0,0,.3A.92.92,0,0,0,45.41,148.62Z" fill="#0c3c51"/><path d="M63.3,152.26c2.9-.34,5-1.74,4.88-3.19s-2.58-2.32-5.49-2-5,1.74-4.88,3.18S60.39,152.6,63.3,152.26Zm-.53-4.53c2.15-.26,4.64.26,4.78,1.41s-2.18,2.23-4.33,2.48-4.64-.26-4.78-1.41S60.61,148,62.77,147.73Z" fill="#0c3c51"/><path d="M60.57,150.2a.67.67,0,0,0,.28.18,2.3,2.3,0,0,0,1.07.06,3.27,3.27,0,0,1-.94-.34.4.4,0,0,1-.13-.13s0,0,0-.06a.45.45,0,0,1,.1-.1l.18-.11,0,0a1.31,1.31,0,0,0,.61.36,2.58,2.58,0,0,0,1,.05A3.71,3.71,0,0,0,64,149.8a2.17,2.17,0,0,0,.77-.53l.2,0a.62.62,0,0,1,.16.07l0,0a0,0,0,0,1,0,0s0,.07,0,.12a1.06,1.06,0,0,1-.15.15,4.66,4.66,0,0,1-.87.52,3,3,0,0,0,1-.26,1,1,0,0,0,.25-.16.57.57,0,0,0,.2-.33.5.5,0,0,0,0-.24.57.57,0,0,0-.12-.17,1,1,0,0,0-.28-.2,2.36,2.36,0,0,0-.55-.18,5,5,0,0,0-.54-.08,7.79,7.79,0,0,0-1.08,0,6.3,6.3,0,0,0-1.05.21,3.61,3.61,0,0,0-1,.44,2.12,2.12,0,0,0-.24.2.76.76,0,0,0-.19.32.61.61,0,0,0,0,.22A.4.4,0,0,0,60.57,150.2Z" fill="#0c3c51"/><path d="M75.06,148.75c2.16-.74,3.57-2.17,3.2-3.24s-2.36-1.34-4.52-.6-3.57,2.17-3.2,3.25S72.89,149.49,75.06,148.75Zm-1.16-3.37c1.6-.55,3.59-.57,3.89.29s-1.29,2.06-2.89,2.61-3.6.57-3.89-.29S72.3,145.93,73.9,145.38Z" fill="#0c3c51"/><path d="M72.52,147.51a.36.36,0,0,0,.11.13.67.67,0,0,0,.24.08,1.86,1.86,0,0,0,.83-.12,3.11,3.11,0,0,1-.77-.11.28.28,0,0,1-.12-.08s0,0,0,0a.43.43,0,0,1,.06-.09.65.65,0,0,1,.12-.11l0,0a1,1,0,0,0,.53.18,2.34,2.34,0,0,0,.74-.12,3.12,3.12,0,0,0,.86-.42,1.72,1.72,0,0,0,.5-.54h.16a.42.42,0,0,1,.14,0h0a.1.1,0,0,1,0,.09.6.6,0,0,1-.09.15,4.3,4.3,0,0,1-.58.54,2.28,2.28,0,0,0,.75-.37.87.87,0,0,0,.16-.17.42.42,0,0,0,.1-.28.45.45,0,0,0-.07-.18.32.32,0,0,0-.12-.11.86.86,0,0,0-.24-.11,2.35,2.35,0,0,0-.45,0,3,3,0,0,0-.43,0,5.74,5.74,0,0,0-.82.19,4.75,4.75,0,0,0-.77.34,2.81,2.81,0,0,0-.7.5l-.15.19a.71.71,0,0,0-.09.28.25.25,0,0,0,0,.08A.32.32,0,0,0,72.52,147.51Z" fill="#0c3c51"/><path d="M84.79,144.66c1.64-.56,2.71-1.65,2.43-2.46s-1.79-1-3.44-.46-2.71,1.65-2.43,2.47S83.14,145.23,84.79,144.66Zm-.88-2.56c1.22-.42,2.73-.43,3,.22s-1,1.57-2.2,2-2.73.43-3-.22S82.69,142.52,83.91,142.1Z" fill="#0c3c51"/><path d="M82.86,143.72a.39.39,0,0,0,.08.1.54.54,0,0,0,.18.06,1.35,1.35,0,0,0,.64-.09,1.83,1.83,0,0,1-.59-.09.15.15,0,0,1-.09,0s0,0,0,0l.05-.07.09-.09,0,0a.8.8,0,0,0,.4.14,1.54,1.54,0,0,0,.56-.1,2.34,2.34,0,0,0,.66-.31,1.49,1.49,0,0,0,.38-.41h.12l.1,0,0,0h0s0,0,0,.07a.41.41,0,0,1-.07.11,2.88,2.88,0,0,1-.44.41,1.68,1.68,0,0,0,.57-.28.68.68,0,0,0,.12-.12.29.29,0,0,0,.07-.22.25.25,0,0,0-.14-.22.71.71,0,0,0-.18-.08,1.37,1.37,0,0,0-.34,0l-.33,0a3.3,3.3,0,0,0-.62.15,4.35,4.35,0,0,0-.59.25,2,2,0,0,0-.53.39.76.76,0,0,0-.11.14.35.35,0,0,0-.07.21s0,0,0,.06S82.84,143.7,82.86,143.72Z" fill="#0c3c51"/><path d="M92.22,142.62c1.47-.2,2.54-.93,2.44-1.66s-1.33-1.14-2.79-.94-2.53.93-2.43,1.65S90.76,142.82,92.22,142.62Zm-.31-2.28c1.09-.15,2.35.09,2.43.67s-1.08,1.14-2.16,1.29-2.35-.09-2.43-.67S90.83,140.48,91.91,140.34Z" fill="#0c3c51"/><path d="M90.83,141.61a.29.29,0,0,0,.14.08,1.25,1.25,0,0,0,.54,0,1.63,1.63,0,0,1-.47-.17.14.14,0,0,1-.07-.06s0,0,0,0,0,0,0-.05l.09-.06h0a.67.67,0,0,0,.31.17,1.11,1.11,0,0,0,.48,0,2,2,0,0,0,.6-.15,1.08,1.08,0,0,0,.38-.28l.11,0a.2.2,0,0,1,.08,0h0a.15.15,0,0,1,0,0,.27.27,0,0,1-.07.08,1.92,1.92,0,0,1-.44.27,1.47,1.47,0,0,0,.53-.13l.12-.09a.28.28,0,0,0,.09-.17.25.25,0,0,0,0-.12l-.06-.09-.15-.09a.92.92,0,0,0-.28-.09,1.24,1.24,0,0,0-.27,0,3.21,3.21,0,0,0-.54,0,3.12,3.12,0,0,0-.53.11,2,2,0,0,0-.51.24l-.12.1a.4.4,0,0,0-.09.16.13.13,0,0,0,0,.06.07.07,0,0,0,0,0A.21.21,0,0,0,90.83,141.61Z" fill="#0c3c51"/><path d="M98.89,142.06c1.48,0,2.63-.63,2.61-1.37s-1.18-1.28-2.66-1.25-2.62.63-2.61,1.36S97.42,142.09,98.89,142.06Zm0-2.3c1.09,0,2.32.36,2.33.94s-1.2,1-2.29,1-2.33-.36-2.34-.94S97.75,139.78,98.85,139.76Z" fill="#0c3c51"/><path d="M97.62,140.9a.38.38,0,0,0,.13.1,1.13,1.13,0,0,0,.54.08,1.57,1.57,0,0,1-.45-.22.16.16,0,0,1-.07-.07s0,0,0,0a.15.15,0,0,1,.06,0l.09-.05h0a.61.61,0,0,0,.29.21,1.31,1.31,0,0,0,.48.08,2,2,0,0,0,.61-.09,1.18,1.18,0,0,0,.41-.23l.1,0,.08.05h0s0,0,0,.06l-.09.07a2.15,2.15,0,0,1-.46.21,1.36,1.36,0,0,0,.53-.07.5.5,0,0,0,.14-.08.26.26,0,0,0,.11-.15.24.24,0,0,0,0-.12l0-.1-.13-.11a1.59,1.59,0,0,0-.27-.12l-.27-.06a3.26,3.26,0,0,0-1.08,0,1.75,1.75,0,0,0-.53.18.57.57,0,0,0-.13.08.35.35,0,0,0-.11.15.13.13,0,0,0,0,.06.06.06,0,0,0,0,.06A.18.18,0,0,0,97.62,140.9Z" fill="#0c3c51"/><path d="M105,142.38c1.29.3,2.42,0,2.56-.62s-.75-1.38-2-1.67-2.42,0-2.57.62S103.73,142.09,105,142.38Zm.45-2c1,.21,2,.81,1.83,1.32s-1.26.63-2.22.41-1.94-.82-1.83-1.33S104.53,140.15,105.48,140.37Z" fill="#0c3c51"/><path d="M104.26,141.28a1.06,1.06,0,0,0,.46.16,1.66,1.66,0,0,1-.36-.26l0-.07s0,0,0,0,0,0,0,0l.09,0h0a.69.69,0,0,0,.22.23,1.23,1.23,0,0,0,.42.14,2,2,0,0,0,.55,0,1.14,1.14,0,0,0,.4-.15l.08.05.06.05,0,0h0s0,0,0,.05l-.09,0a1.89,1.89,0,0,1-.44.12,1.34,1.34,0,0,0,.49,0l.12,0a.22.22,0,0,0,.13-.12.2.2,0,0,0,0-.11.16.16,0,0,0,0-.09,1.25,1.25,0,0,0-.09-.12,1.35,1.35,0,0,0-.22-.14l-.23-.1a2.9,2.9,0,0,0-1-.16,1.8,1.8,0,0,0-.5.08l-.12.05a.34.34,0,0,0-.12.12.08.08,0,0,0,0,.05.07.07,0,0,0,0,.05.24.24,0,0,0,0,.09A.36.36,0,0,0,104.26,141.28Z" fill="#0c3c51"/><path d="M71.75,101.11c-1.29-1.79-3-2.69-3.89-2s-.58,2.55.71,4.34,3,2.69,3.9,2S73.05,102.91,71.75,101.11Zm.44,4c-.71.51-2.27-.61-3.23-1.94s-1.53-3.16-.82-3.67,2.27.61,3.22,1.93S72.9,104.56,72.19,105.07Z" fill="#0c3c51"/><path d="M71.25,102.55a4.43,4.43,0,0,0-.41-.7,5.17,5.17,0,0,0-.52-.62,2.79,2.79,0,0,0-.67-.5.67.67,0,0,0-.21-.09.52.52,0,0,0-.28,0l-.08,0a.12.12,0,0,0-.07,0,.31.31,0,0,0-.09.14.5.5,0,0,0,0,.24,1.88,1.88,0,0,0,.35.74,3,3,0,0,1-.12-.75.33.33,0,0,1,0-.13s0,0,0,0l.11,0,.13.08,0,0a1,1,0,0,0,0,.53,2,2,0,0,0,.32.65,2.73,2.73,0,0,0,.63.68,1.73,1.73,0,0,0,.64.31s0,.1,0,.15,0,.1,0,.14,0,0,0,0h0s0,0-.09,0l-.16,0a3,3,0,0,1-.66-.38,2.36,2.36,0,0,0,.55.59.63.63,0,0,0,.2.1.4.4,0,0,0,.29,0,.36.36,0,0,0,.14-.11.27.27,0,0,0,.07-.14.74.74,0,0,0,0-.25,1.83,1.83,0,0,0-.08-.43A2.62,2.62,0,0,0,71.25,102.55Z" fill="#0c3c51"/><path d="M73.06,106.14c-.89.64-.58,2.55.72,4.34s3,2.69,3.89,2,.58-2.55-.71-4.34S74,105.5,73.06,106.14Zm3.51,2.33c1,1.32,1.53,3.16.82,3.67s-2.27-.61-3.22-1.94-1.54-3.16-.83-3.67S75.61,107.14,76.57,108.47Z" fill="#0c3c51"/><path d="M74.35,108.16a.25.25,0,0,1,0-.13s0,0,.05,0l.1,0,.14.08,0,0a1,1,0,0,0,0,.53,1.8,1.8,0,0,0,.32.65,2.69,2.69,0,0,0,.62.68,1.59,1.59,0,0,0,.64.31.75.75,0,0,1,0,.16.3.3,0,0,1,0,.13v0s0,0,0,0,0,0-.1,0a.58.58,0,0,1-.16,0,3.19,3.19,0,0,1-.66-.38,2.2,2.2,0,0,0,.55.59l.2.11a.47.47,0,0,0,.29,0,.33.33,0,0,0,.15-.11.37.37,0,0,0,.07-.14.74.74,0,0,0,0-.25,1.82,1.82,0,0,0-.09-.43,2.62,2.62,0,0,0-.15-.39,4.83,4.83,0,0,0-.93-1.32,2.55,2.55,0,0,0-.66-.5.85.85,0,0,0-.22-.09.52.52,0,0,0-.28,0l-.08,0-.07.05a.29.29,0,0,0-.08.14.51.51,0,0,0,0,.24,2,2,0,0,0,.35.74A2.57,2.57,0,0,1,74.35,108.16Z" fill="#0c3c51"/><path d="M79.61,116.85c1.57,1.55,3.41,2.14,4.18,1.36s.14-2.61-1.43-4.16-3.42-2.15-4.19-1.36S78,115.3,79.61,116.85ZM78.51,113c.62-.62,2.34.22,3.51,1.37s2,2.86,1.43,3.48-2.34-.22-3.51-1.37S77.9,113.64,78.51,113Z" fill="#0c3c51"/><path d="M79.78,114.47a.53.53,0,0,1,0-.14s0,0,0,0h.11l.15.06,0,0a1,1,0,0,0,.07.53,2.23,2.23,0,0,0,.43.59,2.68,2.68,0,0,0,.73.56,1.78,1.78,0,0,0,.68.2.94.94,0,0,1,.06.15.84.84,0,0,1,0,.12v0s0,0,0,0,0,0-.09,0a.52.52,0,0,1-.17,0,3.61,3.61,0,0,1-.71-.26,2.27,2.27,0,0,0,.64.49l.21.07a.46.46,0,0,0,.29-.05.4.4,0,0,0,.13-.13.42.42,0,0,0,0-.15.74.74,0,0,0,0-.26,1.59,1.59,0,0,0-.16-.4,2.12,2.12,0,0,0-.21-.36,3.88,3.88,0,0,0-.52-.62,5.25,5.25,0,0,0-.62-.53,2.87,2.87,0,0,0-.74-.38L80,114a.54.54,0,0,0-.27,0l-.08,0a.17.17,0,0,0-.06.06.47.47,0,0,0-.06.15.64.64,0,0,0,0,.25,1.89,1.89,0,0,0,.47.66A2.38,2.38,0,0,1,79.78,114.47Z" fill="#0c3c51"/><path d="M86.77,122.83c1.73,1.37,3.62,1.78,4.3.91s-.13-2.61-1.86-4-3.63-1.78-4.31-.91S85,121.46,86.77,122.83Zm-1.49-3.69c.54-.68,2.35,0,3.63,1s2.33,2.63,1.79,3.32-2.35,0-3.64-1S84.73,119.83,85.28,119.14Z" fill="#0c3c51"/><path d="M87,121.13a2.62,2.62,0,0,1-.31-.69.31.31,0,0,1,0-.13s0,0,0,0a.2.2,0,0,1,.11,0l.15,0h0a1.18,1.18,0,0,0,.13.52,1.94,1.94,0,0,0,.49.54,3.07,3.07,0,0,0,.79.49,1.83,1.83,0,0,0,.69.12l.09.14a.34.34,0,0,1,0,.12s0,0,0,0,0,0,0,0,0,0-.09,0H89a3.51,3.51,0,0,1-.74-.19,2.28,2.28,0,0,0,.69.42.72.72,0,0,0,.22,0,.39.39,0,0,0,.28-.07.38.38,0,0,0,.11-.14.45.45,0,0,0,0-.16.93.93,0,0,0,0-.25,1.59,1.59,0,0,0-.2-.39,2.85,2.85,0,0,0-.25-.33,4.25,4.25,0,0,0-1.26-1,2.89,2.89,0,0,0-.77-.31l-.23,0a.6.6,0,0,0-.27.07.26.26,0,0,0-.12.12.25.25,0,0,0,0,.16.57.57,0,0,0,.06.24A1.75,1.75,0,0,0,87,121.13Z" fill="#0c3c51"/><path d="M95.7,127c2.21.65,4.19.3,4.52-.79s-1.15-2.47-3.36-3.13-4.18-.3-4.51.79S93.5,126.3,95.7,127Zm-2.87-3c.26-.88,2.26-.94,3.89-.46s3.28,1.63,3,2.51-2.26.93-3.9.45S92.57,124.85,92.83,124Z" fill="#0c3c51"/><path d="M94.52,124.84a1.78,1.78,0,0,0,.75.38,2.69,2.69,0,0,1-.57-.54.3.3,0,0,1-.06-.13s0,0,0,0l.1,0,.17,0h0a1,1,0,0,0,.33.44,2,2,0,0,0,.68.34,3,3,0,0,0,1,.16,1.82,1.82,0,0,0,.72-.15l.13.1.09.1s0,0,0,0,0,0,0,0,0,0-.07.07l-.16.06a3.28,3.28,0,0,1-.79.1,2.07,2.07,0,0,0,.83.14.66.66,0,0,0,.23,0,.44.44,0,0,0,.24-.18.27.27,0,0,0,0-.18.38.38,0,0,0,0-.16.59.59,0,0,0-.14-.23,1.92,1.92,0,0,0-.34-.3,2,2,0,0,0-.37-.22,4.41,4.41,0,0,0-.78-.32,4.54,4.54,0,0,0-.83-.18,2.76,2.76,0,0,0-.86,0,.62.62,0,0,0-.23.07.47.47,0,0,0-.24.17.45.45,0,0,0-.07.16.32.32,0,0,0,0,.17A.47.47,0,0,0,94.52,124.84Z" fill="#0c3c51"/><path d="M104.43,127.44c2.07-.1,3.64-1,3.59-2s-1.71-1.75-3.78-1.64-3.63,1-3.58,2S102.37,127.55,104.43,127.44Zm-.16-3.21c1.52-.08,3.26.4,3.3,1.21s-1.63,1.48-3.16,1.56-3.26-.4-3.3-1.22S102.74,124.31,104.27,124.23Z" fill="#0c3c51"/><path d="M102.61,125.87a.47.47,0,0,0,.18.14,1.68,1.68,0,0,0,.76.09,2,2,0,0,1-.65-.28.41.41,0,0,1-.09-.1s0,0,0,0a.3.3,0,0,1,.08-.07l.13-.06,0,0a.93.93,0,0,0,.41.29,1.89,1.89,0,0,0,.67.07,2.77,2.77,0,0,0,.86-.14,1.56,1.56,0,0,0,.56-.35l.14,0,.11.06,0,0h0a.18.18,0,0,1,0,.08l-.11.1a3.19,3.19,0,0,1-.64.32,1.93,1.93,0,0,0,.74-.13.81.81,0,0,0,.18-.1.42.42,0,0,0,.16-.22.55.55,0,0,0,0-.18.5.5,0,0,0-.08-.12.53.53,0,0,0-.19-.15,1.48,1.48,0,0,0-.37-.16l-.38-.08a4.88,4.88,0,0,0-.76,0,3.86,3.86,0,0,0-.76.1,2.67,2.67,0,0,0-.73.26,1.09,1.09,0,0,0-.17.13.42.42,0,0,0-.15.21s0,.05,0,.08a.28.28,0,0,0,0,.09A.27.27,0,0,0,102.61,125.87Z" fill="#0c3c51"/><path d="M113.38,125.19c1.92-.76,3.13-2.11,2.75-3.07s-2.19-1.11-4.11-.35-3.13,2.11-2.75,3.07S111.46,126,113.38,125.19Zm-1.19-3c1.42-.57,3.22-.66,3.52.1s-1.07,1.92-2.5,2.48-3.22.67-3.52-.1S110.76,122.75,112.19,122.19Z" fill="#0c3c51"/><path d="M111,124.2a.38.38,0,0,0,.11.11.51.51,0,0,0,.22.07,1.81,1.81,0,0,0,.74-.15,2.22,2.22,0,0,1-.7-.07.17.17,0,0,1-.11-.06s0,0,0,0a.28.28,0,0,1,0-.09l.11-.1,0,0a.89.89,0,0,0,.47.14,1.86,1.86,0,0,0,.66-.14,2.8,2.8,0,0,0,.76-.41,1.67,1.67,0,0,0,.42-.5h.15l.12,0,0,0h0a.1.1,0,0,1,0,.09.42.42,0,0,1-.07.13,4,4,0,0,1-.5.51,2,2,0,0,0,.66-.36,1.14,1.14,0,0,0,.14-.16.38.38,0,0,0,.07-.26.39.39,0,0,0-.06-.15.53.53,0,0,0-.12-.1.54.54,0,0,0-.22-.08,1.89,1.89,0,0,0-.41,0l-.38,0a4.49,4.49,0,0,0-1.4.54,2.49,2.49,0,0,0-.6.48.83.83,0,0,0-.13.18.57.57,0,0,0-.07.25.25.25,0,0,0,0,.08Z" fill="#0c3c51"/><path d="M120.55,121.21c1.41-1.08,2.09-2.48,1.55-3.18s-2.06-.41-3.47.67-2.09,2.48-1.55,3.18S119.14,122.29,120.55,121.21Zm-1.69-2.2c1-.8,2.51-1.31,2.94-.75s-.44,1.84-1.48,2.64-2.51,1.31-2.94.75S117.82,119.81,118.86,119Z" fill="#0c3c51"/><path d="M118.32,120.89l0,.06a.34.34,0,0,0,.12.06.42.42,0,0,0,.19,0,1.46,1.46,0,0,0,.58-.3,1.85,1.85,0,0,1-.59.11l-.11,0s0,0,0,0a.2.2,0,0,1,0-.08.24.24,0,0,1,.06-.11s0,0,0,0a.75.75,0,0,0,.42,0,1.72,1.72,0,0,0,.52-.27,2.33,2.33,0,0,0,.52-.52,1.24,1.24,0,0,0,.23-.51l.13,0h.14a.09.09,0,0,1,0,.08.35.35,0,0,1,0,.13,2.78,2.78,0,0,1-.29.53,1.64,1.64,0,0,0,.46-.45.8.8,0,0,0,.08-.16.36.36,0,0,0,0-.23.27.27,0,0,0-.09-.12l-.12,0a.75.75,0,0,0-.2,0,1.13,1.13,0,0,0-.34.08,1.69,1.69,0,0,0-.31.13,3.14,3.14,0,0,0-.55.34,3.89,3.89,0,0,0-.48.43,2.13,2.13,0,0,0-.39.54l-.06.18a.54.54,0,0,0,0,.22Z" fill="#0c3c51"/><path d="M126.23,116.32c1.12-1.36,1.47-2.87.79-3.43s-2.09.06-3.22,1.42-1.47,2.87-.79,3.44S125.1,117.68,126.23,116.32Zm-2.13-1.76c.83-1,2.14-1.82,2.68-1.37s0,1.88-.85,2.89-2.14,1.82-2.68,1.37S123.26,115.57,124.1,114.56Z" fill="#0c3c51"/><path d="M124,116.51s0,0,.06,0a.19.19,0,0,0,.12,0,.49.49,0,0,0,.19,0,1.55,1.55,0,0,0,.5-.41,2,2,0,0,1-.55.23h-.11s0,0,0,0a.28.28,0,0,1,0-.08.53.53,0,0,1,0-.12.05.05,0,0,1,0,0,.75.75,0,0,0,.41-.09,1.42,1.42,0,0,0,.43-.38,2.22,2.22,0,0,0,.4-.61,1.54,1.54,0,0,0,.11-.55l.11-.07.1,0h0a0,0,0,0,1,0,0,.24.24,0,0,1,0,.07v.13a3.53,3.53,0,0,1-.17.59,1.79,1.79,0,0,0,.35-.54.8.8,0,0,0,0-.18.34.34,0,0,0-.06-.22.2.2,0,0,0-.11-.09.3.3,0,0,0-.12,0,.6.6,0,0,0-.2,0,1.57,1.57,0,0,0-.32.15l-.26.19a3.33,3.33,0,0,0-.46.46,3.08,3.08,0,0,0-.37.52,2.2,2.2,0,0,0-.26.61,1.11,1.11,0,0,0,0,.19.36.36,0,0,0,0,.21Z" fill="#0c3c51"/><path d="M127.64,112.31c.8.37,2-.6,2.74-2.21s.67-3.16-.13-3.53-2,.61-2.74,2.22S126.83,112,127.64,112.31Zm.22-3.36c.54-1.19,1.59-2.32,2.23-2s.48,1.82-.06,3-1.59,2.32-2.23,2S127.32,110.14,127.86,109Z" fill="#0c3c51"/><path d="M128.21,110.82l.06,0,.06,0a.28.28,0,0,0,.13,0,.34.34,0,0,0,.18-.09,1.29,1.29,0,0,0,.36-.52,2.2,2.2,0,0,1-.46.37l-.11,0s0,0,0,0a.15.15,0,0,1,0-.08v-.13s0,0,0,0a.75.75,0,0,0,.37-.2,1.44,1.44,0,0,0,.32-.48,2.14,2.14,0,0,0,.23-.7,1.5,1.5,0,0,0,0-.56l.09-.09.08-.06h0s0,0,.05.06l0,.12a3.11,3.11,0,0,1,0,.61,2.07,2.07,0,0,0,.19-.61,1.09,1.09,0,0,0,0-.18.34.34,0,0,0-.11-.2.31.31,0,0,0-.13-.06h-.13a.54.54,0,0,0-.19.08,1.38,1.38,0,0,0-.26.22,2.65,2.65,0,0,0-.21.26,3.86,3.86,0,0,0-.32.56,3.07,3.07,0,0,0-.22.6,2.07,2.07,0,0,0-.09.66,1.13,1.13,0,0,0,0,.18A.47.47,0,0,0,128.21,110.82Z" fill="#0c3c51"/><path d="M130.53,106.1c.69.06,1.33-1,1.46-2.36s-.32-2.51-1-2.58-1.32,1-1.45,2.36S129.84,106,130.53,106.1Zm-.7-2.55c.09-1,.58-2.14,1.13-2.09s.82,1.23.73,2.26-.58,2.13-1.13,2.08S129.74,104.57,129.83,103.55Z" fill="#0c3c51"/><path d="M130.43,104.7a.38.38,0,0,0,.13.12l.05,0h.06a.17.17,0,0,0,.1,0,.26.26,0,0,0,.1-.11,1,1,0,0,0,.14-.49,1.6,1.6,0,0,1-.25.4l-.07,0h0a.15.15,0,0,1,0-.06l0-.1v0a.67.67,0,0,0,.22-.25,1.31,1.31,0,0,0,.12-.44,1.88,1.88,0,0,0,0-.58.9.9,0,0,0-.17-.4l0-.1.05-.07h0s0,0,.05,0l.06.08a3.11,3.11,0,0,1,.16.46,1.46,1.46,0,0,0,0-.51.69.69,0,0,0,0-.13.26.26,0,0,0-.14-.13.2.2,0,0,0-.11,0,.24.24,0,0,0-.09,0,.44.44,0,0,0-.12.11,1.49,1.49,0,0,0-.14.24,1.84,1.84,0,0,0-.09.25,2.1,2.1,0,0,0-.09.5,2.18,2.18,0,0,0,0,.51,1.56,1.56,0,0,0,.11.51A.75.75,0,0,0,130.43,104.7Z" fill="#0c3c51"/><path d="M121.12,66.94c.37-1.81-2.19-3.8-5.81-4.53s-6.75.1-7.12,1.91,2.19,3.79,5.81,4.53S120.76,68.74,121.12,66.94ZM109,64.48c.29-1.44,3.48-1.83,6.17-1.29s5.48,2.15,5.19,3.59-3.49,1.82-6.18,1.28S108.69,65.91,109,64.48Z" fill="#0c3c51"/><path d="M112,65.06a.89.89,0,0,1,.16-.07,1.1,1.1,0,0,1,.26-.06h.07a1.62,1.62,0,0,0,.59.68,3.44,3.44,0,0,0,1.13.43,4.77,4.77,0,0,0,1.55.13,3,3,0,0,0,1.13-.34l.23.14a.78.78,0,0,1,.16.15.13.13,0,0,1,0,0h0a.29.29,0,0,1-.1.13,1,1,0,0,1-.25.12,5.87,5.87,0,0,1-1.25.28,3.81,3.81,0,0,0,1.35.11,1.24,1.24,0,0,0,.36-.11.7.7,0,0,0,.37-.31.8.8,0,0,0,.06-.3.88.88,0,0,0-.08-.26,1.18,1.18,0,0,0-.26-.35,2.9,2.9,0,0,0-.58-.43,6,6,0,0,0-.63-.3,6.73,6.73,0,0,0-1.3-.4,7.55,7.55,0,0,0-1.35-.17,4.44,4.44,0,0,0-1.39.14,1.78,1.78,0,0,0-.36.14.88.88,0,0,0-.35.3.31.31,0,0,0-.06.13.4.4,0,0,0,0,.15.53.53,0,0,0,0,.26.88.88,0,0,0,.27.32,3,3,0,0,0,1.26.51,4.36,4.36,0,0,1-1-.79.68.68,0,0,1-.11-.2C112,65.08,112,65.08,112,65.06Z" fill="#0c3c51"/><path d="M129.38,66.09c-3.15-1.3-6.13-1.09-6.77.48s1.31,3.81,4.46,5.12,6.13,1.09,6.78-.48S132.53,67.39,129.38,66.09Zm3.78,4.84c-.51,1.24-3.47,1-5.81.07s-4.58-2.91-4.06-4.15,3.47-1,5.81-.08S133.68,69.68,133.16,70.93Z" fill="#0c3c51"/><path d="M130.86,69.27a2.79,2.79,0,0,0-.46-.5,4.6,4.6,0,0,0-.51-.39,8.46,8.46,0,0,0-1.11-.59,7.89,7.89,0,0,0-1.19-.39,4.49,4.49,0,0,0-1.28-.12,2.17,2.17,0,0,0-.35.07.86.86,0,0,0-.38.21.41.41,0,0,0-.07.11.21.21,0,0,0-.05.13.43.43,0,0,0,0,.25.86.86,0,0,0,.18.33,2.68,2.68,0,0,0,1,.68,4,4,0,0,1-.75-.88.57.57,0,0,1-.07-.21s0,0,0-.06l.16,0h.31a1.5,1.5,0,0,0,.41.71,3.06,3.06,0,0,0,1,.6,4.43,4.43,0,0,0,1.38.38,2.47,2.47,0,0,0,1.08-.11,1.49,1.49,0,0,1,.18.17,1.1,1.1,0,0,1,.12.16l0,0a0,0,0,0,0,0,0s0,.07-.11.1l-.24.07a5.75,5.75,0,0,1-1.18,0,3.39,3.39,0,0,0,1.2.33,1.42,1.42,0,0,0,.35,0,.63.63,0,0,0,.38-.22.66.66,0,0,0,.11-.26,1,1,0,0,0,0-.25A1.43,1.43,0,0,0,130.86,69.27Z" fill="#0c3c51"/><path d="M136.72,77.33c2.19,1.49,4.49,1.8,5.24.7s-.4-3.11-2.6-4.6-4.5-1.8-5.24-.71S134.52,75.84,136.72,77.33Zm-2.12-4.28c.59-.87,2.81-.25,4.44.85s3,2.94,2.44,3.81-2.81.24-4.44-.86S134,73.91,134.6,73.05Z" fill="#0c3c51"/><path d="M136.84,75.27a3.08,3.08,0,0,1-.43-.79.37.37,0,0,1,0-.17s0,0,0,0h.13l.19,0h.05a1.2,1.2,0,0,0,.2.61,2.12,2.12,0,0,0,.63.6,3.48,3.48,0,0,0,1,.52,2.17,2.17,0,0,0,.84.08.91.91,0,0,1,.11.16.61.61,0,0,1,.07.14s0,0,0,0v0a.14.14,0,0,1-.1,0,.58.58,0,0,1-.19,0,5.12,5.12,0,0,1-.91-.16,2.64,2.64,0,0,0,.87.44,1.09,1.09,0,0,0,.26,0,.45.45,0,0,0,.33-.11.36.36,0,0,0,.12-.18.74.74,0,0,0,0-.19.88.88,0,0,0-.08-.3,2.24,2.24,0,0,0-.27-.45,2.35,2.35,0,0,0-.33-.37,5,5,0,0,0-.75-.63,4.94,4.94,0,0,0-.84-.48,3.36,3.36,0,0,0-1-.3h-.28a.62.62,0,0,0-.32.1l-.07.07a.24.24,0,0,0-.06.09.46.46,0,0,0,0,.19.76.76,0,0,0,.09.29A2.23,2.23,0,0,0,136.84,75.27Z" fill="#0c3c51"/><path d="M147.6,79.11c-2.07-1.4-4.24-1.7-4.94-.66s.37,2.94,2.45,4.34,4.24,1.7,4.94.66S149.67,80.51,147.6,79.11Zm2,4c-.56.82-2.65.23-4.19-.81s-2.86-2.77-2.3-3.59,2.65-.23,4.18.81S150.15,82.33,149.6,83.15Z" fill="#0c3c51"/><path d="M147.93,81.19a3.47,3.47,0,0,0-.31-.36,4.87,4.87,0,0,0-.71-.58,4.79,4.79,0,0,0-.79-.46,3.11,3.11,0,0,0-.91-.28,1.13,1.13,0,0,0-.26,0,.56.56,0,0,0-.3.1.13.13,0,0,0-.07.06l-.06.08a.42.42,0,0,0,0,.18.51.51,0,0,0,.08.27,2,2,0,0,0,.66.65,3.15,3.15,0,0,1-.42-.75.46.46,0,0,1,0-.16s0,0,0,0H145a1.13,1.13,0,0,1,.18,0l0,0a1.17,1.17,0,0,0,.19.57,2.33,2.33,0,0,0,.6.57,3.43,3.43,0,0,0,.93.48,2,2,0,0,0,.8.08l.1.15a.36.36,0,0,1,.06.13.08.08,0,0,1,0,0s0,0,0,0,0,0-.09.05h-.19a3.63,3.63,0,0,1-.84-.15,2.5,2.5,0,0,0,.81.42,1,1,0,0,0,.25,0,.51.51,0,0,0,.31-.1.57.57,0,0,0,.12-.18.55.55,0,0,0,0-.18.82.82,0,0,0-.06-.28A2,2,0,0,0,147.93,81.19Z" fill="#0c3c51"/><path d="M153.33,87.54c2.23,1.12,4.42,1.13,5,0s-.75-2.87-3-4-4.43-1.13-5,0S151.09,86.42,153.33,87.54Zm-2.51-3.74c.44-.89,2.6-.58,4.25.25s3.2,2.38,2.76,3.26-2.6.58-4.26-.25S150.37,84.68,150.82,83.8Z" fill="#0c3c51"/><path d="M153.19,85.6a2.87,2.87,0,0,1-.5-.69.23.23,0,0,1,0-.15s0,0,0,0a.25.25,0,0,1,.12,0,1.07,1.07,0,0,1,.18,0h0a1.1,1.1,0,0,0,.27.55,2.43,2.43,0,0,0,.66.48,3.18,3.18,0,0,0,1,.36,2,2,0,0,0,.8,0l.12.14a.62.62,0,0,1,.08.12.08.08,0,0,1,0,0,0,0,0,0,1,0,0s0,0-.09.06l-.18,0a4.2,4.2,0,0,1-.86,0,2.44,2.44,0,0,0,.86.3,1,1,0,0,0,.25,0,.43.43,0,0,0,.39-.33,1,1,0,0,0,0-.18,1,1,0,0,0-.1-.27,2,2,0,0,0-.31-.38,3.49,3.49,0,0,0-.35-.32,7.85,7.85,0,0,0-.78-.49,6.85,6.85,0,0,0-.85-.34,3.19,3.19,0,0,0-.94-.16l-.26,0a.64.64,0,0,0-.28.13l-.06.08a.41.41,0,0,0-.05.09.37.37,0,0,0,0,.18.63.63,0,0,0,.12.26A2,2,0,0,0,153.19,85.6Z" fill="#0c3c51"/><path d="M167.81,89c.22-1.23-1.53-2.54-4-3s-4.57.16-4.79,1.39,1.53,2.53,4,3S167.59,90.24,167.81,89Zm-8.25-1.51c.18-1,2.33-1.28,4.16-1s3.73,1.39,3.56,2.36-2.34,1.28-4.16,1S159.38,88.49,159.56,87.51Z" fill="#0c3c51"/><path d="M161.61,87.87l.11-.05.18,0h0a1.18,1.18,0,0,0,.41.45,2.3,2.3,0,0,0,.77.28,3.38,3.38,0,0,0,1,.06,1.85,1.85,0,0,0,.76-.25l.16.1a.55.55,0,0,1,.11.1l0,0h0s0,0-.06.09l-.17.08a3.56,3.56,0,0,1-.84.21,2.3,2.3,0,0,0,.91,0,.86.86,0,0,0,.25-.07.5.5,0,0,0,.24-.22.37.37,0,0,0,0-.21.48.48,0,0,0-.05-.17.84.84,0,0,0-.18-.23,1.71,1.71,0,0,0-.4-.28,3.36,3.36,0,0,0-.43-.2,5.5,5.5,0,0,0-.88-.25,4.71,4.71,0,0,0-.92-.1,3.4,3.4,0,0,0-.94.11l-.24.1a.64.64,0,0,0-.23.21.36.36,0,0,0,0,.09.44.44,0,0,0,0,.1.48.48,0,0,0,0,.18.56.56,0,0,0,.19.21,1.9,1.9,0,0,0,.86.33,2.84,2.84,0,0,1-.68-.52.41.41,0,0,1-.08-.14S161.6,87.89,161.61,87.87Z" fill="#0c3c51"/><path d="M173.24,89.15c2.46-.47,4.2-1.8,4-3s-2.35-1.81-4.8-1.33-4.2,1.81-4,3S170.79,89.63,173.24,89.15ZM169,87.72c-.19-1,1.71-2,3.53-2.39s4-.08,4.17.9-1.71,2-3.53,2.39S169.16,88.69,169,87.72Z" fill="#0c3c51"/><path d="M171.13,87.46a.31.31,0,0,1-.12-.1s0,0,0,0l.08-.09.15-.1,0,0a1.07,1.07,0,0,0,.54.27,2.06,2.06,0,0,0,.82,0,3.25,3.25,0,0,0,1-.32,2,2,0,0,0,.62-.51l.17,0,.14.06,0,0h0s0,.05,0,.1a.75.75,0,0,1-.12.14,4.26,4.26,0,0,1-.71.5,2.55,2.55,0,0,0,.87-.29,1,1,0,0,0,.2-.15.57.57,0,0,0,.15-.3.79.79,0,0,0,0-.2.87.87,0,0,0-.12-.14.92.92,0,0,0-.25-.15,2.11,2.11,0,0,0-.48-.12,3.59,3.59,0,0,0-.47,0,5.5,5.5,0,0,0-.91.09,5.58,5.58,0,0,0-.89.24,2.93,2.93,0,0,0-.83.45,1.07,1.07,0,0,0-.19.18.53.53,0,0,0-.14.28.31.31,0,0,0,0,.1s0,.06,0,.1a.42.42,0,0,0,.11.15.57.57,0,0,0,.24.13,2,2,0,0,0,.92,0A2.91,2.91,0,0,1,171.13,87.46Z" fill="#0c3c51"/><path d="M179.39,81.35c-1.48,1.41-2.09,3.1-1.38,3.83s2.41.21,3.89-1.21,2.08-3.1,1.38-3.83S180.87,79.93,179.39,81.35Zm2.2,2.3c-1.09,1-2.7,1.81-3.26,1.22s.27-2.15,1.36-3.2,2.71-1.81,3.27-1.23S182.69,82.6,181.59,83.65Z" fill="#0c3c51"/><path d="M181.86,81.35a.34.34,0,0,0-.14,0,.85.85,0,0,0-.23,0,1.63,1.63,0,0,0-.39.13,2.79,2.79,0,0,0-.33.19,3.74,3.74,0,0,0-.59.46,4.44,4.44,0,0,0-.5.56,2.59,2.59,0,0,0-.38.67,1.6,1.6,0,0,0-.05.21.41.41,0,0,0,0,.26s0,0,0,.07l.05.06a.3.3,0,0,0,.14,0,.58.58,0,0,0,.23,0,1.74,1.74,0,0,0,.63-.42,2.31,2.31,0,0,1-.67.2.27.27,0,0,1-.13,0s0,0,0,0a.41.41,0,0,1,0-.1l.06-.14,0,0a.91.91,0,0,0,.49,0,2.13,2.13,0,0,0,.56-.38,2.84,2.84,0,0,0,.54-.66,1.56,1.56,0,0,0,.2-.62l.14-.06a.3.3,0,0,1,.12,0h0s0,0,0,.08a1,1,0,0,1,0,.16,3.21,3.21,0,0,1-.27.65,1.91,1.91,0,0,0,.47-.58.59.59,0,0,0,.07-.2.31.31,0,0,0,0-.26A.28.28,0,0,0,181.86,81.35Z" fill="#0c3c51"/><path d="M184.07,79.32c.65.28,1.6-.53,2.17-1.84s.49-2.55-.16-2.83-1.6.52-2.17,1.83S183.41,79,184.07,79.32Zm.13-2.72c.41-1,1.24-1.89,1.76-1.67s.41,1.46,0,2.43-1.24,1.9-1.76,1.67S183.78,77.57,184.2,76.6Z" fill="#0c3c51"/><path d="M184.5,78.08l.05,0,0,0a.17.17,0,0,0,.1,0,.3.3,0,0,0,.15-.07,1.25,1.25,0,0,0,.29-.44,1.37,1.37,0,0,1-.38.31l-.08,0s0,0,0,0l0-.07v-.1s0,0,0,0a.65.65,0,0,0,.3-.17,1.24,1.24,0,0,0,.25-.39,1.63,1.63,0,0,0,.17-.57,1.13,1.13,0,0,0,0-.45l.06-.08.07,0h0s0,0,0,0l0,.11a2.64,2.64,0,0,1,0,.49,1.38,1.38,0,0,0,.14-.5.66.66,0,0,0,0-.14.29.29,0,0,0-.09-.17.21.21,0,0,0-.11,0,.17.17,0,0,0-.1,0,.52.52,0,0,0-.15.06,1.29,1.29,0,0,0-.21.19l-.17.21a4.09,4.09,0,0,0-.25.46,3,3,0,0,0-.17.5,1.84,1.84,0,0,0-.06.53.4.4,0,0,0,0,.15A.3.3,0,0,0,184.5,78.08Z" fill="#0c3c51"/><path d="M85.93,73.65c3.52-1.6,5.65-4.23,4.86-6s-4.18-1.88-7.7-.28-5.66,4.23-4.86,6S82.4,75.25,85.93,73.65Zm-2.5-5.49C86,67,89.39,66.62,90,68s-1.83,3.69-4.44,4.87-6,1.54-6.59.14S80.82,69.34,83.43,68.16Z" fill="#0c3c51"/><path d="M81.46,72a.52.52,0,0,0,.2.19,1.05,1.05,0,0,0,.43.11,3.12,3.12,0,0,0,1.37-.35,4.31,4.31,0,0,1-1.31-.06.45.45,0,0,1-.22-.1c-.05-.05,0-.06,0-.09a.54.54,0,0,1,.09-.16,1.8,1.8,0,0,1,.19-.21l0,0a1.68,1.68,0,0,0,.91.21,3.3,3.3,0,0,0,1.23-.32,5.32,5.32,0,0,0,1.39-.84,3,3,0,0,0,.74-1l.28,0a1.17,1.17,0,0,1,.23,0l.06,0h0s0,.08,0,.16a1.05,1.05,0,0,1-.13.26,6.25,6.25,0,0,1-.88,1,3.68,3.68,0,0,0,1.2-.74,1.53,1.53,0,0,0,.25-.3.83.83,0,0,0,.11-.5.71.71,0,0,0-.14-.29.72.72,0,0,0-.22-.17,1.26,1.26,0,0,0-.42-.13,3.32,3.32,0,0,0-.77,0,5.54,5.54,0,0,0-.71.12,8.58,8.58,0,0,0-1.35.46,8.34,8.34,0,0,0-1.24.69,4.75,4.75,0,0,0-1.1,1,4,4,0,0,0-.22.34,1.13,1.13,0,0,0-.11.48.4.4,0,0,0,0,.15A.37.37,0,0,0,81.46,72Z" fill="#0c3c51"/><path d="M73.76,81.57c2.89-2.56,4.16-5.7,2.89-7.14s-4.55-.56-7.44,2-4.17,5.7-2.89,7.14S70.86,84.14,73.76,81.57ZM66.94,83c-1-1.15.68-4.06,2.82-6S75,73.84,76,75s-.67,4.06-2.82,6S68,84.16,66.94,83Z" fill="#0c3c51"/><path d="M73.06,78.78A3.82,3.82,0,0,0,74,77.72a1.94,1.94,0,0,0,.15-.36.64.64,0,0,0-.51-.84,1.38,1.38,0,0,0-.45,0,3.36,3.36,0,0,0-.74.22,4.28,4.28,0,0,0-.64.33,7.4,7.4,0,0,0-1.16.83,8.69,8.69,0,0,0-1,1,5,5,0,0,0-.76,1.25,3.64,3.64,0,0,0-.11.39.91.91,0,0,0,0,.48.31.31,0,0,0,.07.14.52.52,0,0,0,.1.11.56.56,0,0,0,.26.12.77.77,0,0,0,.43,0,3,3,0,0,0,1.21-.73,4.5,4.5,0,0,1-1.27.33.52.52,0,0,1-.24,0s0,0,0-.07a.42.42,0,0,1,0-.19,1.74,1.74,0,0,1,.11-.25l0-.06a1.74,1.74,0,0,0,.93-.07,3.37,3.37,0,0,0,1.08-.67,5.18,5.18,0,0,0,1.08-1.21,3.08,3.08,0,0,0,.43-1.16l.26-.1.22,0a.16.16,0,0,1,.07,0h0a.24.24,0,0,1,0,.16,1,1,0,0,1,0,.29A6.79,6.79,0,0,1,73.06,78.78Z" fill="#0c3c51"/><path d="M59,88.73c-2.39,2.79-3.16,5.91-1.77,7.09s4.34-.07,6.72-2.86,3.16-5.91,1.77-7.09S61.36,85.94,59,88.73Zm4.35,3.71c-1.77,2.07-4.5,3.72-5.61,2.78s.1-3.9,1.86-6,4.5-3.72,5.61-2.78S65.09,90.38,63.33,92.44Z" fill="#0c3c51"/><path d="M63.4,88.28a.85.85,0,0,0-.26,0,1.31,1.31,0,0,0-.42,0,3.08,3.08,0,0,0-.66.3,4.82,4.82,0,0,0-.57.4,7.82,7.82,0,0,0-1,.94,8,8,0,0,0-.8,1.08,5.1,5.1,0,0,0-.55,1.28,3.69,3.69,0,0,0-.05.37,1,1,0,0,0,.1.46.44.44,0,0,0,.08.11.58.58,0,0,0,.12.1.61.61,0,0,0,.25.08.86.86,0,0,0,.41-.08,2.91,2.91,0,0,0,1-.85A4.15,4.15,0,0,1,60,93a.48.48,0,0,1-.24,0s0,0,0-.07a.61.61,0,0,1,0-.18,1.36,1.36,0,0,1,.07-.25l0-.06a1.65,1.65,0,0,0,.87-.19,3.23,3.23,0,0,0,.92-.77,5,5,0,0,0,.86-1.28A2.86,2.86,0,0,0,62.69,89l.24-.13.2-.07h.08s.06.06.06.14a.83.83,0,0,1,0,.27,5.27,5.27,0,0,1-.36,1.22,3.47,3.47,0,0,0,.74-1.12,1.36,1.36,0,0,0,.09-.36.72.72,0,0,0-.1-.47A.63.63,0,0,0,63.4,88.28Z" fill="#0c3c51"/><path d="M51.75,100.17c-2.19,2.57-2.91,5.44-1.63,6.53s4-.06,6.2-2.63,2.92-5.45,1.63-6.54S54,97.59,51.75,100.17Zm5.73-2.08c1,.86-.09,3.59-1.72,5.5s-4.14,3.42-5.16,2.56.09-3.6,1.71-5.51S56.46,97.22,57.48,98.09Z" fill="#0c3c51"/><path d="M51.89,103.78a.75.75,0,0,0,.09.42.38.38,0,0,0,.08.11.39.39,0,0,0,.1.08.57.57,0,0,0,.24.08.84.84,0,0,0,.37-.07,2.67,2.67,0,0,0,1-.79,3.42,3.42,0,0,1-1.06.44.4.4,0,0,1-.22,0c-.05,0,0,0,0-.06a.48.48,0,0,1,0-.16,2.17,2.17,0,0,1,.07-.24l0,0a1.46,1.46,0,0,0,.79-.18,2.94,2.94,0,0,0,.86-.71,4.25,4.25,0,0,0,.78-1.18,2.56,2.56,0,0,0,.23-1.06l.21-.11.2-.07h0a0,0,0,0,1,0,0s.05,0,.06.13a2.26,2.26,0,0,1,0,.25,6.16,6.16,0,0,1-.33,1.12,3.69,3.69,0,0,0,.68-1,2.66,2.66,0,0,0,.08-.33.63.63,0,0,0-.1-.44.52.52,0,0,0-.45-.23,1.19,1.19,0,0,0-.39,0,2.84,2.84,0,0,0-.61.28c-.18.11-.35.24-.52.36a8.14,8.14,0,0,0-.89.87,7.39,7.39,0,0,0-.74,1,4.22,4.22,0,0,0-.5,1.17A2,2,0,0,0,51.89,103.78Z" fill="#0c3c51"/><path d="M44.31,110.73c-1.8,2.11-2.39,4.47-1.34,5.37s3.29-.06,5.09-2.17,2.39-4.47,1.34-5.37S46.11,108.61,44.31,110.73Zm3.29,2.81c-1.33,1.56-3.4,2.81-4.24,2.1s.07-3,1.41-4.52,3.4-2.82,4.24-2.1S48.94,112,47.6,113.54Z" fill="#0c3c51"/><path d="M47.65,110.38a.53.53,0,0,0-.2,0,1.55,1.55,0,0,0-.32,0,2.54,2.54,0,0,0-.5.23c-.15.09-.29.2-.43.3a6.14,6.14,0,0,0-.73.71,5.54,5.54,0,0,0-.61.83,3.31,3.31,0,0,0-.41,1,1.35,1.35,0,0,0,0,.29.61.61,0,0,0,.07.34s0,.06.06.09a.28.28,0,0,0,.09.07.37.37,0,0,0,.19.07.9.9,0,0,0,.31-.06,2.21,2.21,0,0,0,.79-.65,3.39,3.39,0,0,1-.87.37.34.34,0,0,1-.18,0s0,0,0,0a.28.28,0,0,1,0-.13l.06-.19a.17.17,0,0,0,0-.05,1.25,1.25,0,0,0,.66-.14,2.47,2.47,0,0,0,.7-.59,3.75,3.75,0,0,0,.65-1,2,2,0,0,0,.18-.87l.18-.1a.71.71,0,0,1,.16,0h.06a.16.16,0,0,1,0,.11.74.74,0,0,1,0,.21,4.77,4.77,0,0,1-.27.92,2.72,2.72,0,0,0,.55-.84.89.89,0,0,0,.07-.28.51.51,0,0,0-.08-.36A.39.39,0,0,0,47.65,110.38Z" fill="#0c3c51"/><path d="M39.81,122.14c1.9-1.86,2.66-4.06,1.73-5s-3.14-.22-5,1.65-2.65,4.06-1.72,5S37.92,124,39.81,122.14Zm-2.9-3c1.4-1.38,3.48-2.4,4.22-1.65s-.32,2.81-1.72,4.19-3.49,2.4-4.22,1.65S35.5,120.57,36.91,119.19Z" fill="#0c3c51"/><path d="M36.36,122.22a.18.18,0,0,0,.08.07.44.44,0,0,0,.2.07,1,1,0,0,0,.31-.06,2.4,2.4,0,0,0,.79-.65,3,3,0,0,1-.88.36.24.24,0,0,1-.17,0s0,0,0-.05a.31.31,0,0,1,0-.13.7.7,0,0,1,.06-.19.08.08,0,0,1,0,0,1.24,1.24,0,0,0,.65-.14,2.34,2.34,0,0,0,.7-.59,3.51,3.51,0,0,0,.65-1,2.2,2.2,0,0,0,.19-.87l.18-.1a.53.53,0,0,1,.15,0s0,0,.05,0h0s0,0,0,.11a.74.74,0,0,1,0,.21,4.77,4.77,0,0,1-.27.92,2.74,2.74,0,0,0,.56-.84,2.29,2.29,0,0,0,.07-.28.64.64,0,0,0-.08-.36.42.42,0,0,0-.18-.14.45.45,0,0,0-.19,0,1,1,0,0,0-.32,0,2.3,2.3,0,0,0-.5.23,3.61,3.61,0,0,0-.43.3,7.11,7.11,0,0,0-.74.71,5.48,5.48,0,0,0-.6.83,3.33,3.33,0,0,0-.42,1,2.54,2.54,0,0,0,0,.29.55.55,0,0,0,.08.34A.18.18,0,0,0,36.36,122.22Z" fill="#0c3c51"/><path d="M30.23,128.89c2-1,3.09-2.64,2.57-3.62s-2.48-.92-4.44.13-3.1,2.65-2.57,3.63S28.26,130,30.23,128.89Zm-1.64-3.06c1.45-.78,3.37-1.11,3.78-.33s-.91,2.19-2.37,3-3.37,1.1-3.79.33S27.13,126.61,28.59,125.83Z" fill="#0c3c51"/><path d="M27.43,128.14a.22.22,0,0,0,.05.08.31.31,0,0,0,.14.09.5.5,0,0,0,.26,0,2,2,0,0,0,.79-.33,2.76,2.76,0,0,1-.79.08.39.39,0,0,1-.14,0s0,0,0-.05a.51.51,0,0,1,0-.11l.09-.14,0,0a1,1,0,0,0,.56,0,2,2,0,0,0,.71-.31,2.83,2.83,0,0,0,.75-.63,1.78,1.78,0,0,0,.35-.65l.17,0h.17s0,0,0,0,0,0,0,.1a.64.64,0,0,1-.06.16,3.86,3.86,0,0,1-.43.68,2.41,2.41,0,0,0,.65-.55,2,2,0,0,0,.12-.21.43.43,0,0,0,0-.3.36.36,0,0,0-.11-.16.37.37,0,0,0-.15-.08.64.64,0,0,0-.26,0,1.65,1.65,0,0,0-.46.06l-.42.14a5.51,5.51,0,0,0-.76.4,4.23,4.23,0,0,0-.68.52,2.86,2.86,0,0,0-.56.68,1.47,1.47,0,0,0-.1.22.56.56,0,0,0,0,.29A.16.16,0,0,0,27.43,128.14Z" fill="#0c3c51"/><path d="M20.81,131.72c1.88-.44,3.17-1.52,3-2.45S21.91,128,20,128.39s-3.17,1.51-3,2.45S18.94,132.16,20.81,131.72Zm-.68-2.92c1.39-.33,3.05-.18,3.23.56s-1.26,1.63-2.64,1.95-3.06.17-3.24-.57S18.74,129.12,20.13,128.8Z" fill="#0c3c51"/><path d="M18.67,130.54a.22.22,0,0,0,.1.11.46.46,0,0,0,.21.08,1.6,1.6,0,0,0,.73-.1,2.43,2.43,0,0,1-.68-.1.29.29,0,0,1-.1-.07s0,0,0-.05l.06-.08.11-.09,0,0a.82.82,0,0,0,.46.16,1.8,1.8,0,0,0,.65-.09,3,3,0,0,0,.77-.36,1.65,1.65,0,0,0,.44-.47h.15s.09,0,.11,0h0a.1.1,0,0,1,0,.09l-.08.13a3.35,3.35,0,0,1-.52.46,1.94,1.94,0,0,0,.67-.31.67.67,0,0,0,.14-.15.4.4,0,0,0,.09-.24.31.31,0,0,0-.06-.16.32.32,0,0,0-.1-.1.5.5,0,0,0-.21-.1,1.87,1.87,0,0,0-.4,0,2.42,2.42,0,0,0-.38,0,4.65,4.65,0,0,0-.72.16,5.72,5.72,0,0,0-.68.28,2.42,2.42,0,0,0-.62.44,1.15,1.15,0,0,0-.14.17.48.48,0,0,0-.08.24.17.17,0,0,0,0,.07A.19.19,0,0,0,18.67,130.54Z" fill="#0c3c51"/><path d="M100.87,119.2a24.45,24.45,0,0,0,4,.22,20.3,20.3,0,0,0,4-.47c-1.33.06-2.65.08-4,0s-2.63-.16-3.93-.34a39.39,39.39,0,0,1-3.87-.74c-1.28-.31-2.55-.69-3.81-1.1A20.47,20.47,0,0,0,97,118.33,24,24,0,0,0,100.87,119.2Z" fill="#1e2939"/><path d="M57.46,120.61a2.16,2.16,0,0,0-.29-.31,2.43,2.43,0,0,0-.32-.24,4.52,4.52,0,0,0-1.45-.63,3.06,3.06,0,0,0-.81-.07.93.93,0,0,0-.22,0,.48.48,0,0,0-.24.13l-.05.07,0,.08a.43.43,0,0,0,0,.16.61.61,0,0,0,.12.21,1.75,1.75,0,0,0,.66.43,2.41,2.41,0,0,1-.47-.56.19.19,0,0,1,0-.13s0,0,0,0l.11,0h.19a1,1,0,0,0,.26.45,2,2,0,0,0,.6.37,2.71,2.71,0,0,0,.87.25,1.74,1.74,0,0,0,.68-.07l.12.11a.3.3,0,0,1,.07.1l0,0h0s0,0-.07.06l-.15,0a3.62,3.62,0,0,1-.74,0,2.09,2.09,0,0,0,.75.21.86.86,0,0,0,.22,0,.4.4,0,0,0,.24-.14.36.36,0,0,0,.07-.17.71.71,0,0,0,0-.15A1.23,1.23,0,0,0,57.46,120.61Z" fill="#0c3c51"/><path d="M67.74,120.07a.48.48,0,0,0-.16-.13,1,1,0,0,0-.32-.14,1.87,1.87,0,0,0-.32-.08,3.87,3.87,0,0,0-1.3,0A2.15,2.15,0,0,0,65,120a.7.7,0,0,0-.16.1.52.52,0,0,0-.13.18.15.15,0,0,0,0,.07.16.16,0,0,0,0,.07.43.43,0,0,0,.05.12.56.56,0,0,0,.16.12,1.46,1.46,0,0,0,.64.1,2.08,2.08,0,0,1-.54-.26s-.07-.06-.07-.09,0,0,0,0a.22.22,0,0,1,.07-.06l.12,0h0a.84.84,0,0,0,.34.25,1.63,1.63,0,0,0,.58.08,2.32,2.32,0,0,0,.74-.1,1.38,1.38,0,0,0,.48-.28l.13,0,.09,0,0,0h0a.13.13,0,0,1,0,.07.27.27,0,0,1-.1.08,2.33,2.33,0,0,1-.55.26,1.58,1.58,0,0,0,.64-.09.65.65,0,0,0,.16-.09.34.34,0,0,0,.14-.18.38.38,0,0,0,0-.15Z" fill="#0c3c51"/><path d="M89.36,101.57l-.08,0h-.12a.93.93,0,0,0-.2.09l-.17.11a3.83,3.83,0,0,0-.29.28,1.91,1.91,0,0,0-.24.32,1.12,1.12,0,0,0-.16.37.36.36,0,0,0,0,.11.25.25,0,0,0,0,.14l0,0,0,0,.08,0a.16.16,0,0,0,.12,0,1,1,0,0,0,.31-.25,1.22,1.22,0,0,1-.34.14h-.07s0,0,0,0a.11.11,0,0,1,0,0,.24.24,0,0,1,0-.08v0a.47.47,0,0,0,.26-.05.93.93,0,0,0,.27-.22,1.22,1.22,0,0,0,.26-.38.76.76,0,0,0,.08-.33l.07,0,.06,0h0s0,0,0,0a.25.25,0,0,1,0,.08,1.24,1.24,0,0,1-.11.36,1.3,1.3,0,0,0,.23-.33.36.36,0,0,0,0-.11.16.16,0,0,0,0-.13A.19.19,0,0,0,89.36,101.57Z" fill="#0c3c51"/><path d="M92.49,97.14l-.06,0h-.1l-.16.08a.67.67,0,0,0-.14.09,1.7,1.7,0,0,0-.24.22,2.56,2.56,0,0,0-.2.26,1.69,1.69,0,0,0-.13.31.29.29,0,0,0,0,.09.22.22,0,0,0,0,.11l0,0,0,0a.07.07,0,0,0,.06,0,.16.16,0,0,0,.1,0,.67.67,0,0,0,.26-.21,1.31,1.31,0,0,1-.28.12h-.06s0,0,0,0v0s0,0,0-.06v0a.39.39,0,0,0,.21,0,.67.67,0,0,0,.22-.19,1.29,1.29,0,0,0,.22-.3.88.88,0,0,0,.06-.28l.06,0,.05,0h0a.1.1,0,0,1,0,0v.06c0,.1-.06.2-.09.3a1.27,1.27,0,0,0,.18-.27.29.29,0,0,0,0-.09.23.23,0,0,0,0-.11A.13.13,0,0,0,92.49,97.14Z" fill="#0c3c51"/><path d="M95.43,93.65h-.05a.13.13,0,0,0-.09,0,.39.39,0,0,0-.15.06l-.12.08a1.37,1.37,0,0,0-.39.44.83.83,0,0,0-.12.27.31.31,0,0,0,0,.08.18.18,0,0,0,0,.1l0,0s0,0,0,0l.06,0,.09,0a.6.6,0,0,0,.23-.18,1,1,0,0,1-.25.1h-.05s0,0,0,0a0,0,0,0,1,0,0s0,0,0-.06h0a.41.41,0,0,0,.19,0,.78.78,0,0,0,.2-.16,1,1,0,0,0,.19-.28.52.52,0,0,0,0-.24l.06,0h.06s0,0,0,0,0,0,0,.06a1.29,1.29,0,0,1-.08.26.67.67,0,0,0,.16-.24.19.19,0,0,0,0-.08.1.1,0,0,0,0-.1A.1.1,0,0,0,95.43,93.65Z" fill="#0c3c51"/><path d="M98.22,91.2h-.09l-.15,0-.14,0a1.5,1.5,0,0,0-.25.15,2.11,2.11,0,0,0-.23.19.92.92,0,0,0-.17.25.11.11,0,0,0,0,.07.16.16,0,0,0,0,.1l0,0s0,0,0,0l0,0a.14.14,0,0,0,.09,0,.64.64,0,0,0,.26-.13.91.91,0,0,1-.27,0h0s0,0,0,0l0,0a.17.17,0,0,1,0,0l0,0a.28.28,0,0,0,.18,0,.55.55,0,0,0,.24-.12.84.84,0,0,0,.24-.22.67.67,0,0,0,.1-.23l.07,0s0,0,0,0h0a0,0,0,0,1,0,0s0,0,0,.06a1,1,0,0,1-.14.24,1,1,0,0,0,.22-.2l0-.07a.14.14,0,0,0,0-.11.07.07,0,0,0,0,0Z" fill="#0c3c51"/><path d="M33,162.08a1.87,1.87,0,0,0,.37-.23.83.83,0,0,0,.16-.2.34.34,0,0,0,.06-.15.37.37,0,0,0,0-.18.44.44,0,0,0-.21-.2.9.9,0,0,0-.21-.08,2.15,2.15,0,0,0-.8,0,3.44,3.44,0,0,1,.73.22l.14.08s.06.07.05.08h0l0,0-.1.08-.14.07a1.77,1.77,0,0,0-.66-.25,3.22,3.22,0,0,0-.93,0,1.86,1.86,0,0,0-.69.22.85.85,0,0,0-.38.37h0l-.15,0-.1,0s0,0,0-.05a.35.35,0,0,1,.08-.12,2.41,2.41,0,0,1,.62-.42,1.75,1.75,0,0,0-.77.25.46.46,0,0,0-.17.17.3.3,0,0,0-.05.16s0,.06,0,.09l0,.08a.63.63,0,0,0,.2.2,1,1,0,0,0,.21.09,2.67,2.67,0,0,0,.82.14,3.67,3.67,0,0,0,.81,0,5.32,5.32,0,0,0,.79-.18A3.2,3.2,0,0,0,33,162.08Z" fill="#fff"/><path d="M55.25,169c1.58,1.32,3.34,1.75,4,1s-.06-2.44-1.64-3.77-3.34-1.75-4-1S53.67,167.69,55.25,169ZM54,165.53c.52-.62,2.19,0,3.36,1s2.11,2.52,1.59,3.14-2.2,0-3.37-1S53.43,166.16,54,165.53Z" fill="#fff"/><path d="M56,168.21a4.72,4.72,0,0,0,.63.44l.35.16a1.6,1.6,0,0,0,.39.11,1,1,0,0,0,.24,0l.14-.06a.28.28,0,0,0,.11-.13.36.36,0,0,0,0-.27,1.08,1.08,0,0,0-.08-.19,2.08,2.08,0,0,0-.51-.55,3.42,3.42,0,0,1,.31.64.8.8,0,0,1,0,.15.14.14,0,0,1,0,.09h-.05l-.12,0-.14,0a1.47,1.47,0,0,0-.24-.61,2.73,2.73,0,0,0-.59-.63,1.77,1.77,0,0,0-.59-.35.94.94,0,0,0-.5,0l0,0a.84.84,0,0,1-.06-.14.29.29,0,0,1,0-.09.06.06,0,0,1,0-.05l.13,0a2.29,2.29,0,0,1,.69.16,1.87,1.87,0,0,0-.66-.38.59.59,0,0,0-.23,0,.27.27,0,0,0-.14.07l0,.06,0,.07a.58.58,0,0,0,0,.26q0,.12.06.21a2.45,2.45,0,0,0,.43.65A3.86,3.86,0,0,0,56,168.21Z" fill="#fff"/><path d="M62.2,175.89a.63.63,0,0,0,.23.07h.14a.36.36,0,0,0,.15-.08.45.45,0,0,0,.11-.25,1.34,1.34,0,0,0,0-.21,2.07,2.07,0,0,0-.29-.7,3.56,3.56,0,0,1,.07.71.61.61,0,0,1,0,.15s0,.08,0,.08h-.05a.37.37,0,0,1-.1-.06l-.12-.09a1.83,1.83,0,0,0,0-.66,3,3,0,0,0-.34-.8,1.86,1.86,0,0,0-.43-.53.94.94,0,0,0-.46-.19.06.06,0,0,0,0,0c0-.05,0-.1,0-.15s0-.08,0-.1,0,0,0,0a.3.3,0,0,1,.12,0,2.12,2.12,0,0,1,.59.38,1.67,1.67,0,0,0-.49-.58.4.4,0,0,0-.21-.08.26.26,0,0,0-.15,0l-.07,0-.06.06a.42.42,0,0,0-.1.24,1.65,1.65,0,0,0,0,.21,3.09,3.09,0,0,0,.17.77,4.27,4.27,0,0,0,.33.68,3.81,3.81,0,0,0,.43.62l.28.28A1.4,1.4,0,0,0,62.2,175.89Z" fill="#fff"/><path d="M66.6,189.79a.27.27,0,0,0,.12.06.26.26,0,0,0,.15,0,.29.29,0,0,0,.17-.15.6.6,0,0,0,.08-.16,1.75,1.75,0,0,0,0-.64,2.85,2.85,0,0,1-.23.56.52.52,0,0,1-.07.11.13.13,0,0,1-.07,0h0l0,0a.35.35,0,0,1-.06-.09.42.42,0,0,1,0-.12,1.54,1.54,0,0,0,.24-.5,2.31,2.31,0,0,0,0-.74,1.53,1.53,0,0,0-.12-.57.81.81,0,0,0-.28-.33,0,0,0,0,0,0,0,.33.33,0,0,1,.05-.12.21.21,0,0,1,0-.07s0,0,0,0,.06,0,.09.06a2.09,2.09,0,0,1,.3.53,1.5,1.5,0,0,0-.15-.64.34.34,0,0,0-.13-.14.17.17,0,0,0-.12-.05h-.07l-.07,0a.61.61,0,0,0-.26.31,2.17,2.17,0,0,0-.17.64,4.85,4.85,0,0,0,0,.66,4.72,4.72,0,0,0,.1.64,1.31,1.31,0,0,0,.1.32,1.53,1.53,0,0,0,.16.31A.62.62,0,0,0,66.6,189.79Z" fill="#fff"/><path d="M65.7,196.58a.54.54,0,0,0,.1.18.27.27,0,0,0,.1.08.22.22,0,0,0,.14,0,.32.32,0,0,0,.21-.09,1.1,1.1,0,0,0,.11-.14,1.8,1.8,0,0,0,.22-.61,3.64,3.64,0,0,1-.36.49l-.11.08s-.06,0-.07,0h0l0,0a.62.62,0,0,1,0-.1s0-.09,0-.13a1.39,1.39,0,0,0,.37-.43,2.32,2.32,0,0,0,.24-.7,1.42,1.42,0,0,0,0-.58.74.74,0,0,0-.18-.39l0,0,.07-.1.07-.06h0a.35.35,0,0,1,.07.09,2.55,2.55,0,0,1,.15.59,1.42,1.42,0,0,0,0-.65.31.31,0,0,0-.09-.18.27.27,0,0,0-.1-.08h-.07a.08.08,0,0,0-.07,0,.37.37,0,0,0-.2.09.8.8,0,0,0-.13.13,2,2,0,0,0-.33.59,2.77,2.77,0,0,0-.19.62,3.5,3.5,0,0,0-.08.65c0,.11,0,.22,0,.33A1.51,1.51,0,0,0,65.7,196.58Z" fill="#fff"/><path d="M65.57,199c-.59-.36-1.62.27-2.35,1.45s-.85,2.4-.26,2.76,1.62-.27,2.35-1.45S66.16,199.34,65.57,199Zm-.51,2.6c-.55.87-1.48,1.64-1.94,1.35s-.19-1.46.35-2.34,1.48-1.64,1.94-1.35S65.6,200.69,65.06,201.57Z" fill="#fff"/><path d="M64.92,200.06a.05.05,0,0,0,0,0l-.05,0a.24.24,0,0,0-.17,0,.52.52,0,0,0-.13.06,1.89,1.89,0,0,0-.4.34,3.19,3.19,0,0,0-.3.42,2.35,2.35,0,0,0-.22.45,2.41,2.41,0,0,0-.08.25.86.86,0,0,0,0,.28.39.39,0,0,0,0,.15.41.41,0,0,0,.05.09.21.21,0,0,0,.1.06.25.25,0,0,0,.18,0A.35.35,0,0,0,64,202a1.31,1.31,0,0,0,.32-.39,2.55,2.55,0,0,1-.4.27l-.09,0a.11.11,0,0,1-.06,0h0s0,0,0,0v-.09l0-.1a1,1,0,0,0,.38-.22,1.78,1.78,0,0,0,.36-.45,1.1,1.1,0,0,0,.17-.42.65.65,0,0,0,0-.34l0,0,.08-.05.07,0h0a.2.2,0,0,1,0,.09,1.55,1.55,0,0,1,0,.47,1.08,1.08,0,0,0,.19-.48.44.44,0,0,0,0-.15A.16.16,0,0,0,64.92,200.06Z" fill="#fff"/><path d="M109.28,178.86c2.67.34,4.89-.44,5-1.77s-1.79-2.63-4.46-3-4.88.44-5.05,1.77S106.61,178.53,109.28,178.86Zm.52-4.15c2,.25,4.09,1.26,4,2.31s-2.42,1.51-4.4,1.27S105.27,177,105.4,176,107.82,174.46,109.8,174.71Z" fill="#fff"/><path d="M107.42,176.67a1.24,1.24,0,0,0,.22.18,3.45,3.45,0,0,0,.92.42,6.4,6.4,0,0,0,1,.19,5.46,5.46,0,0,0,1,0,2.87,2.87,0,0,0,.5-.07,2.14,2.14,0,0,0,.51-.16.78.78,0,0,0,.25-.18.64.64,0,0,0,.11-.16.41.41,0,0,0,0-.22.48.48,0,0,0-.18-.3,1.43,1.43,0,0,0-.22-.15,2.51,2.51,0,0,0-1-.24,3.87,3.87,0,0,1,.79.48.47.47,0,0,1,.14.14c0,.05,0,.1,0,.11h0l0,0a.46.46,0,0,1-.14.07l-.19,0a2.11,2.11,0,0,0-.7-.49,3.5,3.5,0,0,0-1.1-.28,2.37,2.37,0,0,0-.88,0,1.23,1.23,0,0,0-.56.33l0,0a1.28,1.28,0,0,1-.17-.1s-.09-.07-.09-.09,0,0,0-.06a.45.45,0,0,1,.12-.12,3.25,3.25,0,0,1,.86-.31,2.19,2.19,0,0,0-1,.06.63.63,0,0,0-.26.15.45.45,0,0,0-.1.18.34.34,0,0,0,0,.1.37.37,0,0,0,0,.11A.74.74,0,0,0,107.42,176.67Z" fill="#fff"/><path d="M120.23,178.88c2.52-.51,4.3-1.89,4-3.15s-2.43-1.83-5-1.32-4.29,1.89-4,3.15S117.71,179.39,120.23,178.88Zm-.79-3.93c1.86-.37,4.08-.1,4.29.89s-1.74,2.12-3.61,2.5-4.09.1-4.29-.9S117.57,175.33,119.44,175Z" fill="#fff"/><path d="M117.63,177.24a.57.57,0,0,0,.25.22l.25.1a3.19,3.19,0,0,0,1,.09,4.94,4.94,0,0,0,.94-.12,5,5,0,0,0,.91-.27,4.37,4.37,0,0,0,.43-.22,1.87,1.87,0,0,0,.41-.3.79.79,0,0,0,.18-.24.69.69,0,0,0,.05-.17.46.46,0,0,0,0-.21.45.45,0,0,0-.26-.22.78.78,0,0,0-.25-.07,2.4,2.4,0,0,0-.93.07,4.51,4.51,0,0,1,.86.19l.17.09s.08.07.07.08,0,0,0,0l0,0a.55.55,0,0,1-.11.1l-.16.1a2.14,2.14,0,0,0-.79-.24,3.5,3.5,0,0,0-1.07.09,2.25,2.25,0,0,0-.79.31,1.14,1.14,0,0,0-.41.46h0l-.18,0-.11-.05s0,0,0-.06a.53.53,0,0,1,.08-.14,2.71,2.71,0,0,1,.69-.54,1.94,1.94,0,0,0-.88.35.58.58,0,0,0-.18.22.27.27,0,0,0,0,.18.3.3,0,0,0,0,.1A.19.19,0,0,0,117.63,177.24Z" fill="#fff"/><path d="M129.83,175.78c2.19-.91,3.56-2.47,3.1-3.56s-2.52-1.24-4.71-.33-3.55,2.47-3.1,3.56S127.64,176.68,129.83,175.78Zm-1.41-3.42c1.62-.67,3.68-.81,4,0s-1.2,2.22-2.83,2.89-3.68.82-4-.05S126.8,173,128.42,172.36Z" fill="#fff"/><path d="M127.19,174.75a.64.64,0,0,0,.26.15,1.14,1.14,0,0,0,.24,0,3,3,0,0,0,.9-.09,4.63,4.63,0,0,0,.82-.27,4.37,4.37,0,0,0,.77-.41,2.26,2.26,0,0,0,.36-.27,2.1,2.1,0,0,0,.32-.34.82.82,0,0,0,.11-.25.47.47,0,0,0,0-.17.4.4,0,0,0-.07-.18.52.52,0,0,0-.27-.16,1,1,0,0,0-.24,0,2.14,2.14,0,0,0-.84.23,3.17,3.17,0,0,1,.82,0,.48.48,0,0,1,.17,0c.05,0,.08.05.08.06s0,0,0,0v0l-.09.11a1.36,1.36,0,0,1-.12.12,1.91,1.91,0,0,0-.75-.08,3.12,3.12,0,0,0-1,.27,2.06,2.06,0,0,0-.66.42,1,1,0,0,0-.29.49h0a.48.48,0,0,1-.17,0l-.12,0s0,0,0,0a.3.3,0,0,1,0-.14,2.68,2.68,0,0,1,.52-.62,2.07,2.07,0,0,0-.73.47.6.6,0,0,0-.13.24.33.33,0,0,0,0,.17.36.36,0,0,0,0,.09A.18.18,0,0,0,127.19,174.75Z" fill="#fff"/><path d="M136.77,170.68c1.52-1,2.32-2.44,1.8-3.2s-2.11-.55-3.64.49-2.32,2.44-1.81,3.2S135.24,171.71,136.77,170.68Zm-1.62-2.38c1.13-.77,2.68-1.2,3.09-.6s-.57,1.88-1.7,2.65-2.67,1.2-3.08.59S134,169.06,135.15,168.3Z" fill="#fff"/><path d="M134.54,170.26s0,0,.05.05a.46.46,0,0,0,.22.08h.2a2.31,2.31,0,0,0,.66-.2,4.3,4.3,0,0,0,.59-.34,3.6,3.6,0,0,0,.52-.43c.08-.09.16-.17.23-.26a1.69,1.69,0,0,0,.19-.32.59.59,0,0,0,.05-.2.71.71,0,0,0,0-.14.34.34,0,0,0-.09-.12.32.32,0,0,0-.23-.08l-.18,0a1.89,1.89,0,0,0-.6.31,2.79,2.79,0,0,1,.62-.11h.14s.07,0,.07,0h0s0,0,0,0a.34.34,0,0,1,0,.1,1,1,0,0,0-.08.11,1.47,1.47,0,0,0-.59.05,2.67,2.67,0,0,0-.69.36,1.72,1.72,0,0,0-.43.42.71.71,0,0,0-.14.42h0l-.13,0h-.09s0,0,0,0a.22.22,0,0,1,0-.11,2.33,2.33,0,0,1,.31-.55,1.46,1.46,0,0,0-.49.47.59.59,0,0,0-.06.2.31.31,0,0,0,0,.13A.13.13,0,0,0,134.54,170.26Z" fill="#fff"/><path d="M147.86,163.63c1.55-.78,2.47-2,2.08-2.77s-1.91-.77-3.47,0-2.47,2-2.08,2.77S146.3,164.41,147.86,163.63Zm-1.22-2.43c1.15-.57,2.65-.79,3-.17s-.76,1.68-1.91,2.26-2.65.79-3,.18S145.49,161.78,146.64,161.2Z" fill="#fff"/><path d="M145.83,163a.1.1,0,0,0,0,.05.53.53,0,0,0,.2.1l.18,0a2.33,2.33,0,0,0,.65-.11,4.35,4.35,0,0,0,.59-.25,3.06,3.06,0,0,0,.54-.34,2.32,2.32,0,0,0,.25-.21,1.94,1.94,0,0,0,.21-.27.54.54,0,0,0,.07-.19.53.53,0,0,0,0-.13.47.47,0,0,0-.07-.12.28.28,0,0,0-.2-.1h-.18a2,2,0,0,0-.6.22,3.09,3.09,0,0,1,.6,0,.5.5,0,0,1,.13,0s.06,0,.06,0,0,0,0,0,0,0,0,0l-.06.08a.39.39,0,0,1-.08.1,1.32,1.32,0,0,0-.56,0,2.2,2.2,0,0,0-.69.25,1.53,1.53,0,0,0-.46.34.72.72,0,0,0-.18.37h-.16l-.08,0s0,0,0,0a.26.26,0,0,1,0-.11,1.85,1.85,0,0,1,.35-.47,1.34,1.34,0,0,0-.51.38.43.43,0,0,0-.08.18.2.2,0,0,0,0,.13A.09.09,0,0,0,145.83,163Z" fill="#fff"/><path d="M142.51,166.72c1.45-1,2.21-2.28,1.73-3s-2-.53-3.44.43-2.21,2.28-1.73,3S141.06,167.69,142.51,166.72Zm-1.5-2.26c1.07-.71,2.54-1.1,2.92-.53s-.55,1.76-1.63,2.48-2.53,1.11-2.91.53S139.94,165.18,141,164.46Z" fill="#fff"/><path d="M140.42,166.31l.05.05a.44.44,0,0,0,.2.07h.19a2.29,2.29,0,0,0,.63-.19,3.7,3.7,0,0,0,.55-.31,3.2,3.2,0,0,0,.5-.41,2.61,2.61,0,0,0,.22-.24,2,2,0,0,0,.18-.29,1,1,0,0,0,.05-.2.6.6,0,0,0,0-.12.2.2,0,0,0-.08-.12.33.33,0,0,0-.21-.08l-.18,0a1.57,1.57,0,0,0-.56.29,2.51,2.51,0,0,1,.59-.1h.13l.06,0h0a0,0,0,0,1,0,0,.26.26,0,0,1,0,.1.86.86,0,0,0-.07.1,1.51,1.51,0,0,0-.56,0,2.34,2.34,0,0,0-.65.33,1.56,1.56,0,0,0-.42.39.82.82,0,0,0-.13.4h0l-.13,0h-.08s0,0,0,0a.22.22,0,0,1,0-.11,2.07,2.07,0,0,1,.29-.52,1.59,1.59,0,0,0-.46.44.53.53,0,0,0-.06.19.35.35,0,0,0,0,.13A.1.1,0,0,0,140.42,166.31Z" fill="#fff"/><path d="M153.66,162.49c1.74,0,3.11-.66,3.11-1.53s-1.35-1.55-3.09-1.56-3.11.66-3.11,1.53S151.92,162.48,153.66,162.49Zm0-2.71c1.29,0,2.72.49,2.72,1.18s-1.45,1.16-2.74,1.15-2.72-.49-2.71-1.18S152.39,159.77,153.68,159.78Z" fill="#fff"/><path d="M152.3,161.22l.15.1a2.56,2.56,0,0,0,.63.2,4.46,4.46,0,0,0,.63,0,3.39,3.39,0,0,0,.64-.06l.32-.08a2.12,2.12,0,0,0,.31-.14,1,1,0,0,0,.15-.14.24.24,0,0,0,.06-.11.22.22,0,0,0,0-.14.31.31,0,0,0-.13-.19l-.16-.08a1.71,1.71,0,0,0-.63-.08,4,4,0,0,1,.55.25l.1.08s0,.06,0,.07h0s0,0,0,0a.23.23,0,0,1-.09.06l-.11,0a1.47,1.47,0,0,0-.49-.27,2.52,2.52,0,0,0-.73-.09,1.54,1.54,0,0,0-.56.1.75.75,0,0,0-.33.25h0l-.11-.05-.07-.05s0,0,0,0a.18.18,0,0,1,.07-.08,2,2,0,0,1,.53-.27,1.43,1.43,0,0,0-.63.11.53.53,0,0,0-.15.12.33.33,0,0,0,0,.12V161a.11.11,0,0,0,0,.06A.37.37,0,0,0,152.3,161.22Z" fill="#fff"/><path d="M159.71,163.27c1.64.56,3.15.36,3.43-.46s-.79-1.9-2.44-2.46-3.15-.36-3.43.46S158.06,162.71,159.71,163.27Zm-2.08-2.34c.22-.65,1.73-.64,3-.23s2.43,1.34,2.2,2-1.73.64-2.95.22S157.4,161.58,157.63,160.93Z" fill="#fff"/><path d="M158.93,161.78a2.15,2.15,0,0,0,.53.38,3.37,3.37,0,0,0,.59.25,3.3,3.3,0,0,0,.62.15,1.83,1.83,0,0,0,.33,0,1.34,1.34,0,0,0,.34,0,1,1,0,0,0,.19-.08l.09-.09a.33.33,0,0,0,0-.13.29.29,0,0,0-.07-.22l-.12-.13a1.65,1.65,0,0,0-.57-.27,3.44,3.44,0,0,1,.44.4l.07.11s0,.07,0,.08h0l-.1,0h-.13a1.4,1.4,0,0,0-.37-.4,2.34,2.34,0,0,0-.66-.31,1.35,1.35,0,0,0-.56-.09.71.71,0,0,0-.4.13l0,0-.09-.08,0-.07s0,0,0,0a.23.23,0,0,1,.09-.06,1.83,1.83,0,0,1,.59-.08,1.49,1.49,0,0,0-.64-.1.41.41,0,0,0-.18.07.24.24,0,0,0-.08.09s0,.05,0,.07,0,0,0,.07a.36.36,0,0,0,.07.2A.83.83,0,0,0,158.93,161.78Z" fill="#fff"/><path d="M167.28,166.82c.51-.49.15-1.68-.82-2.72s-2.15-1.47-2.66-1-.16,1.68.81,2.72S166.76,167.3,167.28,166.82ZM164,163.34c.41-.39,1.5.2,2.22,1s1.24,1.9.83,2.28-1.5-.2-2.22-1S163.6,163.73,164,163.34Z" fill="#fff"/><path d="M165.19,165.34a2.23,2.23,0,0,0,.4.35,1.64,1.64,0,0,0,.22.14l.26.11a.46.46,0,0,0,.17,0l.1,0a.2.2,0,0,0,.08-.08.24.24,0,0,0,0-.18.33.33,0,0,0,0-.14,1.29,1.29,0,0,0-.3-.42,2.9,2.9,0,0,1,.16.47.34.34,0,0,1,0,.1.13.13,0,0,1,0,.06h0a.19.19,0,0,1-.09,0l-.09,0a1.06,1.06,0,0,0-.12-.43,1.65,1.65,0,0,0-.35-.48,1.25,1.25,0,0,0-.37-.28.68.68,0,0,0-.34-.06,0,0,0,0,0,0,0,.69.69,0,0,1,0-.1.56.56,0,0,0,0-.07s0,0,0,0a.14.14,0,0,1,.09,0,1.8,1.8,0,0,1,.46.16A1.31,1.31,0,0,0,165,164a.41.41,0,0,0-.16,0,.14.14,0,0,0-.1,0l0,0s0,0,0,0a.4.4,0,0,0,0,.18.32.32,0,0,0,0,.14,1.84,1.84,0,0,0,.23.49A3.19,3.19,0,0,0,165.19,165.34Z" fill="#fff"/><path d="M167.59,169.59c.39.9,1,1.45,1.5,1.26s.5-1,.11-1.95-1-1.46-1.5-1.27S167.21,168.69,167.59,169.59Zm.2-1.76c.35-.15.92.48,1.21,1.15s.36,1.52,0,1.67-.93-.48-1.22-1.15S167.43,168,167.79,167.83Z" fill="#fff"/><path d="M168.08,169.41a1.92,1.92,0,0,0,.18.31l.11.15a1,1,0,0,0,.15.13l.1,0h.07a.13.13,0,0,0,.08,0,.24.24,0,0,0,.06-.11.33.33,0,0,0,0-.1.83.83,0,0,0-.1-.35,1.29,1.29,0,0,1,0,.34.14.14,0,0,1,0,.07s0,0,0,0h0l0,0-.06-.06a.62.62,0,0,0,0-.3,1.4,1.4,0,0,0-.11-.4,1.16,1.16,0,0,0-.18-.27.53.53,0,0,0-.21-.11v-.09a.11.11,0,0,0,0,0h0l.06,0a1,1,0,0,1,.26.21.83.83,0,0,0-.2-.3l-.1-.05H168l0,0a.24.24,0,0,0-.06.11s0,.06,0,.1a2,2,0,0,0,.16.71Z" fill="#fff"/><path d="M97.83,175.42c2.45,1.11,4.8,1,5.36-.19s-.93-3-3.38-4.16-4.8-1-5.35.19S95.39,174.3,97.83,175.42ZM95,171.5c.44-1,2.76-.72,4.58.1s3.52,2.42,3.08,3.38-2.76.73-4.57-.09S94.55,172.47,95,171.5Z" fill="#fff"/><path d="M96.87,173a3.26,3.26,0,0,0,.76.68,5.51,5.51,0,0,0,.86.47,5.78,5.78,0,0,0,.94.32,3.86,3.86,0,0,0,.49.09,2.36,2.36,0,0,0,.53,0,.69.69,0,0,0,.3-.09.83.83,0,0,0,.16-.12.52.52,0,0,0,.09-.2.49.49,0,0,0-.08-.34,1,1,0,0,0-.17-.22,2.71,2.71,0,0,0-.84-.51,4.89,4.89,0,0,1,.62.69,1,1,0,0,1,.09.18.17.17,0,0,1,0,.12h0l0,0-.16,0-.19,0a2.16,2.16,0,0,0-.52-.68,3.71,3.71,0,0,0-1-.59,2.54,2.54,0,0,0-.85-.22,1.13,1.13,0,0,0-.63.15l0,0-.13-.14a.43.43,0,0,1-.06-.12s0,0,0-.06a.42.42,0,0,1,.15-.07,3.45,3.45,0,0,1,.92,0,2.2,2.2,0,0,0-1-.24.65.65,0,0,0-.29.07.33.33,0,0,0-.15.14.3.3,0,0,0,0,.1.18.18,0,0,0,0,.1.65.65,0,0,0,.07.33A1.34,1.34,0,0,0,96.87,173Z" fill="#fff"/><path d="M81.08,160.59c1.65,1.94,3.71,2.81,4.67,2s.43-3-1.23-4.93-3.71-2.82-4.67-2S79.42,158.65,81.08,160.59Zm-.87-4.51c.76-.66,2.66.49,3.89,1.92s2.06,3.5,1.29,4.15-2.67-.49-3.89-1.92S79.44,156.73,80.21,156.08Z" fill="#fff"/><path d="M82.15,159.76a5.13,5.13,0,0,0,.67.65,3.6,3.6,0,0,0,.4.28,2,2,0,0,0,.46.21,1.27,1.27,0,0,0,.29,0,.65.65,0,0,0,.18,0,.54.54,0,0,0,.16-.14.45.45,0,0,0,.07-.32,1,1,0,0,0-.06-.26,2.41,2.41,0,0,0-.51-.77,4.46,4.46,0,0,1,.25.84.6.6,0,0,1,0,.19c0,.06,0,.1,0,.1h0a.48.48,0,0,1-.15,0l-.16-.09a2,2,0,0,0-.17-.8,3.53,3.53,0,0,0-.59-.89,2.4,2.4,0,0,0-.65-.54,1.12,1.12,0,0,0-.6-.12l0-.05a1.54,1.54,0,0,1,0-.17.78.78,0,0,1,0-.13s0,0,0,0a.43.43,0,0,1,.16,0,3.11,3.11,0,0,1,.81.34,2.16,2.16,0,0,0-.73-.6.61.61,0,0,0-.28,0,.43.43,0,0,0-.18.06s0,0-.08.06l0,.08a.57.57,0,0,0-.07.32,2.06,2.06,0,0,0,0,.26,3.25,3.25,0,0,0,.39.89A5.17,5.17,0,0,0,82.15,159.76Z" fill="#fff"/><path d="M88.19,169.12c2,1.8,4.25,2.42,5.14,1.43s0-3.17-2-5-4.25-2.42-5.14-1.43S86.2,167.33,88.19,169.12Zm-1.53-4.57c.71-.79,2.84.14,4.32,1.47s2.63,3.35,1.92,4.14-2.85-.14-4.32-1.47S86,165.34,86.66,164.55Z" fill="#fff"/><path d="M89.19,168.12a6.41,6.41,0,0,0,.79.58,2.73,2.73,0,0,0,.45.23,2,2,0,0,0,.51.16,1.07,1.07,0,0,0,.31,0,.51.51,0,0,0,.18-.07.39.39,0,0,0,.15-.16.55.55,0,0,0,0-.35,1.45,1.45,0,0,0-.1-.25,2.56,2.56,0,0,0-.64-.74,3.85,3.85,0,0,1,.37.84.79.79,0,0,1,0,.2c0,.06,0,.11,0,.11h-.06l-.16,0-.18-.07a1.93,1.93,0,0,0-.29-.8,3.33,3.33,0,0,0-.74-.85,2.39,2.39,0,0,0-.74-.47,1.17,1.17,0,0,0-.64,0l0,0a1.42,1.42,0,0,1-.08-.18.45.45,0,0,1,0-.13s0,0,0-.05a.3.3,0,0,1,.17,0,3,3,0,0,1,.88.23,2,2,0,0,0-.84-.51.58.58,0,0,0-.3,0,.33.33,0,0,0-.17.08l-.08.08a.41.41,0,0,0,0,.09.67.67,0,0,0,0,.34,1.76,1.76,0,0,0,.07.27,3.58,3.58,0,0,0,.52.87A6.54,6.54,0,0,0,89.19,168.12Z" fill="#fff"/><path d="M19.48,171.43l.05,0-.05,0Z" fill="#1e2939"/></svg>