<svg width="30" height="30" viewBox="0 0 30 30" fill="none" xmlns="http://www.w3.org/2000/svg">
<path d="M15.0738 0.275415C18.9586 0.314721 22.6706 1.88702 25.4018 4.65004C28.1329 7.41306 29.662 11.1431 29.6562 15.0281C29.6504 18.9131 28.1101 22.6385 25.3708 25.3934C22.6314 28.1482 18.9147 29.7094 15.0298 29.7371C11.1122 29.7143 7.3613 28.1491 4.5896 25.3803C1.81791 22.6116 0.248622 18.8623 0.22168 14.9448C0.263034 11.0354 1.84687 7.30052 4.62846 4.55317C7.41005 1.80582 11.1642 0.268352 15.0738 0.275415Z" fill="white"/>
<path d="M22.5809 7.39093C22.678 7.68093 22.8461 8.13682 22.8461 8.13682L22.8574 8.70103L22.801 9.03389L22.5584 9.64886L22.0687 10.2853L21.2788 10.8213L20.5408 11.0537L19.734 11.0808L18.9441 10.907L18.2163 10.6362L17.274 10.1567L16.3657 9.5981L15.3501 9.0903L14.673 8.8646L13.4882 8.67844L12.3892 8.74049L11.2946 9.05648L10.358 9.54169L9.54444 10.1454L9.27921 10.5121L9.62564 10.8112L10.1571 11.5841L10.6773 12.4868L11.2212 13.0206L12.2368 13.5453L12.8191 13.6232L12.8631 13.6006L12.8507 13.5013L12.7954 13.0612L12.8913 12.2521L13.1384 11.5401L14.0411 10.7333L14.6753 10.5414L15.1549 10.5584L15.6254 10.7435L15.8297 10.9251L16.1682 11.4329L16.3115 11.8459L16.2889 12.4541L16.0993 13.0183L15.8387 13.4696L15.3444 14.0553L14.7881 14.5236L14.5049 14.6985L14.6381 14.8034L15.3647 15.0731L16.237 15.1194L17.0867 15.2052L17.5663 15.3293L18.1226 15.6227L18.4611 16.0007L18.5152 16.1474L17.9432 15.8157L16.5992 15.5369L15.0195 15.6497L14.0603 15.2864L13.7974 15.1171L13.372 15.2864L12.616 15.4963L11.8588 15.5267L11.2415 15.3959L10.4618 15.0167L9.74189 14.422L9.00502 13.6615L8.28062 12.8096L7.72881 12.1596L7.11943 12.8874L6.38373 13.71L6.02152 14.114L5.90864 14.3713L6.35101 15.3372L6.92534 15.4365L7.80554 15.7637L8.45886 16.2151L8.68456 16.4407L9.69451 16.302L11.4458 15.8867L12.8518 15.7671L13.7128 15.9161L14.5241 16.2816L14.9992 16.8165L15.3557 17.5184L15.376 18.3602L15.0883 19.0372L14.5839 19.562L13.6146 19.9569L12.8417 19.6601L12.9409 19.5123L13.574 19.6251L14.2273 19.2686L14.5658 18.4471L14.3582 18.3681L14.0998 17.7554L13.5063 17.304L12.8292 17.1065H11.7008L10.3467 17.4823L9.89534 17.6696L9.97324 17.8682L10.5668 18.5994L11.4966 19.5112L12.1792 19.9761L13.1587 20.3022L14.1573 20.3507L15.0782 20.1826L16.0283 19.7312L16.8689 19.255L17.6419 18.8601L18.5221 18.6818L19.066 18.7315L19.7588 19.0485L20.0849 19.3645L20.402 19.8294L20.5295 20.2943L20.5396 20.7998L20.3907 21.1451L20.2587 21.3911L19.9867 21.6778L19.5703 21.8357L19.2318 21.8549L18.9644 21.7985L18.7771 21.6349L18.7443 21.5006L18.8357 21.4487L18.9407 21.5164L19.145 21.6642L19.541 21.6969L19.8322 21.5491L19.9901 21.372L20.1571 20.8901L19.9901 20.2683L19.6358 19.949L19.2104 19.6725L18.5604 19.5767L17.8665 19.6895L17.3169 19.9569L16.6342 20.415L16.2088 20.8021L15.7574 21.1891L15.2666 21.5999L14.7881 21.8628L13.8572 22.1156H13.3313L12.4613 21.953L11.6207 21.5705L10.9662 21.1688L10.4449 20.7728L9.91456 20.362L9.13595 19.6985L8.15079 18.9244L7.62047 18.5994L6.84187 18.7585L6.80915 18.8206L7.11943 19.0689L7.79651 19.8339L8.03461 20.2537L8.407 20.2627L9.10999 20.4342L9.60649 20.7456L10.0274 21.1237L10.4618 21.4814L11.1592 21.9497L11.7132 22.1844L12.1533 22.2972L12.5144 22.3175L12.3553 22.4078L11.8373 22.5297L10.8996 22.3153L10.2226 21.9294L9.77123 21.5739L8.90006 21.7601L8.65184 21.7273L8.68456 22.0806L8.71052 23.112L8.52092 23.8883L7.99852 24.5416L7.43431 24.8407L6.57333 24.8215L5.88158 24.3126L5.45732 22.9291L5.57013 22.2894L5.83082 21.6834L6.24832 21.1417L5.92896 21.004L5.14698 21.7804L3.90011 22.277L3.09781 22.1855L1.7437 21.5592L1.34651 20.6644L1.45932 20.1363L2.23566 19.3994L2.85634 19.4119L3.90011 19.5033L4.61776 19.6466L4.96419 19.4209L5.02962 18.833L4.94387 18.534L4.46769 18.3444L3.5514 17.9664L2.32258 17.0986L1.75837 16.4216L1.57221 15.9442L1.27881 15.6757L1.84301 15.854L2.72204 15.8958L3.78722 15.6543L4.97996 15.0528L6.22126 14.0158L6.94793 13.1605L8.95537 10.7028L10.9978 7.82194L11.9231 7.06027L12.8585 6.94746L13.8809 6.9903L14.602 7.12012L15.7123 7.46766L16.2303 7.75203L17.0348 8.41211L18.1779 9.26069L19.2408 9.71208L20.2767 9.8023L21.0903 9.61387L21.7154 9.19526L22.054 8.7834L22.2684 8.11313L22.1792 7.46091L21.8216 6.88086L22.098 6.94291L22.4636 7.26338L22.5809 7.39093Z" fill="#0C3051"/>
<path d="M14.999 29.9999C11.5287 29.9997 8.16587 28.7962 5.48342 26.5945C2.80097 24.3928 0.964893 21.3291 0.288073 17.9254C-0.388747 14.5218 0.135523 10.9887 1.77159 7.92826C3.40766 4.86782 6.05432 2.46933 9.26054 1.14147C12.4668 -0.186381 16.0342 -0.361413 19.355 0.64614C22.6758 1.65369 25.5446 3.78151 27.4724 6.66707C29.4003 9.55262 30.268 13.0174 29.9277 16.471C29.5874 19.9246 28.0601 23.1532 25.6061 25.607C24.2163 27.0042 22.5633 28.1118 20.7426 28.8659C18.9219 29.6199 16.9697 30.0054 14.999 29.9999ZM14.999 0.383666C11.6178 0.383694 8.34112 1.55608 5.72737 3.70113C3.11362 5.84618 1.32448 8.83119 0.664807 12.1475C0.00513465 15.4638 0.515742 18.9062 2.10962 21.8882C3.7035 24.8703 6.28201 27.2074 9.40586 28.5014C12.5297 29.7954 16.0056 29.9662 19.2413 28.9848C22.477 28.0034 25.2723 25.9304 27.1509 23.119C29.0296 20.3077 29.8753 16.9319 29.5441 13.5669C29.2128 10.2019 27.7249 7.0559 25.3341 4.66487C23.98 3.30349 22.3693 2.22414 20.5953 1.48928C18.8213 0.754423 16.9192 0.378642 14.999 0.383666Z" fill="white"/>
<path d="M8.08411 17.0232H8.13714C7.99045 17.0232 7.84378 17.0232 7.69822 17.0086C7.72868 17.0086 7.76027 17.0085 7.78961 17.0141H7.88438C7.94757 17.0141 8.00962 17.0141 8.07281 17.0141H8.08184L8.08411 17.0232ZM7.3055 16.96H7.32245C7.41949 16.9758 7.5165 16.9905 7.61467 17.0006C7.51086 16.9905 7.40821 16.9758 7.3044 16.9577L7.3055 16.96ZM8.38653 20.7831C8.72223 20.8464 9.0474 20.9565 9.35247 21.1103C9.46531 21.1656 9.56799 21.2231 9.67294 21.2897C9.61651 21.3066 9.56009 21.3213 9.50254 21.3337C9.36662 21.2532 9.22522 21.1823 9.07939 21.1216C8.88094 21.0403 8.67201 20.9875 8.45878 20.9647C8.43395 20.9038 8.41025 20.844 8.38543 20.7831H8.38653ZM7.97012 21.7332L8.20601 21.767C8.19699 21.8223 8.17552 21.8652 8.13941 21.8799C8.08525 21.8957 8.01865 21.8291 7.97012 21.7377V21.7332ZM7.93858 21.2525C7.94531 21.2462 7.95342 21.2415 7.96227 21.2389C7.99387 21.2299 8.03111 21.2491 8.06496 21.2863L7.93858 21.2525ZM8.00401 22.329C8.02703 22.6132 8.00223 22.8993 7.93066 23.1753C7.9061 22.6026 7.70246 22.052 7.34841 21.6011C7.52219 21.6463 7.69707 21.6835 7.87536 21.714C7.94447 21.9132 7.98882 22.1201 8.00738 22.3301L8.00401 22.329ZM8.04685 23.1933C8.07957 23.0421 8.1744 22.8842 8.25677 22.9022C8.33915 22.9203 8.35723 23.1019 8.32337 23.2554C8.28952 23.4089 8.19582 23.5646 8.11345 23.5465C8.03108 23.5285 8.00741 23.3468 8.04465 23.1945L8.04685 23.1933ZM2.66437 20.7921L2.79075 20.7424L2.86521 20.7143L2.81445 20.7345L2.66437 20.7921ZM2.73993 20.6172L2.60907 20.6725L2.72188 20.6284L2.78738 20.6036L2.73993 20.6172ZM2.66885 20.5043L2.59213 20.537L2.64743 20.5145L2.70384 20.4863L2.66885 20.5043ZM2.61809 20.3825H2.62374H2.61809ZM2.98821 19.9785L3.08188 19.9514C3.16425 19.9277 3.24777 19.9052 3.33127 19.8837C3.43716 19.8751 3.54372 19.88 3.64836 19.8984C3.48599 19.9045 3.32422 19.9219 3.16425 19.9503L3.01866 19.9797L2.9566 19.9943L2.98821 19.9785ZM4.22944 20.3667C4.04961 20.3863 3.87104 20.4161 3.69457 20.4558L3.51516 20.4999L3.33575 20.5483L3.15971 20.6036L3.0909 20.6273L3.1157 20.6194L3.28161 20.563L3.44746 20.5089L3.61558 20.4569C3.84126 20.3881 4.06698 20.3272 4.29266 20.2618C4.05573 20.2738 3.82018 20.3055 3.58851 20.3565L3.41591 20.3972L3.24325 20.4434C3.18683 20.4603 3.13038 20.4784 3.07396 20.4964L3.01866 20.5156H3.02885L3.18794 20.4615L3.34814 20.4096L3.50951 20.361C3.72391 20.2956 3.94058 20.238 4.15836 20.1748C3.93078 20.1842 3.70438 20.2121 3.48134 20.2583L3.31543 20.2967L3.14958 20.3407L2.99613 20.3892L3.09428 20.3554C3.11233 20.3554 3.22857 20.3114 3.24662 20.3069L3.39897 20.2595C3.60434 20.1997 3.81193 20.1466 4.02068 20.0835C3.80387 20.0915 3.58809 20.1168 3.37528 20.1591L3.21501 20.1929L3.05592 20.2346C3.00965 20.247 2.9634 20.2629 2.91714 20.2775L2.99834 20.2505L3.14393 20.2031L3.29063 20.1591C3.48585 20.1027 3.68445 20.0462 3.88418 19.9921C3.67697 19.9966 3.4705 20.0185 3.26694 20.0575L3.11459 20.0902C3.08977 20.0902 2.98824 20.1218 2.96342 20.1286L2.84041 20.1658L2.90694 20.1444C2.93628 20.1354 3.01984 20.1094 3.04579 20.1004L3.18567 20.0586C3.35606 20.0101 3.5242 19.9649 3.70249 19.9142C3.96794 19.9753 4.22305 20.0749 4.45968 20.2098C4.43018 20.2581 4.39814 20.3049 4.36374 20.3498L4.22944 20.3667ZM6.34976 21.2694L6.41071 21.2942C6.37008 21.3281 6.33168 21.3664 6.29783 21.407C6.1786 21.5147 6.07188 21.6355 5.97963 21.767C5.85202 21.9205 5.74713 22.0915 5.66819 22.2748C5.68173 22.2354 5.69638 22.1981 5.7133 22.162C5.80901 21.9397 5.93721 21.7328 6.09362 21.5481C6.17174 21.4491 6.25699 21.356 6.34865 21.2694H6.34976ZM5.9266 23.1087C5.93899 22.7786 6.03131 22.4564 6.19562 22.1699C6.35993 21.8833 6.59133 21.641 6.86995 21.4635L7.09565 21.5334C7.37235 21.8117 7.57201 22.1571 7.67507 22.5357C7.77813 22.9143 7.78105 23.3131 7.68355 23.6932C7.64768 23.8 7.58977 23.898 7.51364 23.981C7.4375 24.0639 7.3448 24.13 7.24152 24.1749C7.13824 24.2198 7.0267 24.2425 6.9141 24.2416C6.80149 24.2406 6.69036 24.216 6.58785 24.1694C6.3835 24.0799 6.21101 23.9307 6.093 23.7414C5.97499 23.5521 5.91697 23.3316 5.9266 23.1087ZM7.59436 21.1362C7.14104 20.9514 6.7043 20.7283 6.2888 20.4693C6.32378 20.3926 6.35651 20.3159 6.38584 20.2358C6.49869 20.3001 6.59915 20.3667 6.70183 20.4389C6.82934 20.5292 6.95346 20.6251 7.07533 20.7255C6.97276 20.6063 6.85946 20.4967 6.73682 20.3983C6.63413 20.3158 6.52588 20.2403 6.41291 20.1726C6.42645 20.1376 6.43776 20.1004 6.45017 20.0598C6.91352 20.3197 7.30602 20.6893 7.59325 21.1362H7.59436ZM3.5987 20.9433C3.38356 21.0318 3.14451 21.0437 2.92161 20.9771C3.33639 20.7836 3.76963 20.6323 4.21477 20.5258C4.04438 20.7093 3.83342 20.8504 3.5987 20.9377V20.9433ZM6.32152 21.2581C6.22614 21.3368 6.13571 21.4212 6.05071 21.5109C5.9764 21.5921 5.90744 21.678 5.84423 21.7681C5.96267 21.5742 6.10234 21.394 6.26063 21.231L6.32152 21.2581ZM7.24682 24.5779C7.02077 24.6083 6.79069 24.5815 6.57766 24.5001L6.54949 24.4888L6.56863 24.4955C6.78249 24.5695 7.01196 24.5866 7.23443 24.5452L7.24682 24.5779ZM7.26487 24.658C7.02669 24.6907 6.78411 24.6628 6.55961 24.5768L6.53027 24.5644L6.55059 24.5722C6.77627 24.651 7.01863 24.6693 7.25357 24.6253L7.26487 24.658ZM7.20619 24.4131C7.0056 24.4394 6.80162 24.4155 6.61264 24.3432C6.57315 24.3263 6.53594 24.3093 6.49983 24.2901C6.61574 24.3464 6.74181 24.379 6.8705 24.3857C6.9992 24.3924 7.1279 24.3731 7.24903 24.3291C7.37016 24.2851 7.48121 24.2173 7.57562 24.1296C7.67003 24.0419 7.74587 23.9361 7.79863 23.8185C7.81669 23.7779 7.82796 23.7406 7.84602 23.6978C7.90001 23.5908 7.94678 23.4803 7.98597 23.3671C7.99161 23.4867 8.03446 23.5759 8.09878 23.5928C8.20146 23.6154 8.31657 23.4721 8.36284 23.2667C8.4091 23.0613 8.36281 22.8819 8.26125 22.8594C8.1958 22.8447 8.12477 22.8988 8.07061 22.9913C8.08863 22.8756 8.09837 22.7587 8.09988 22.6415C8.09823 22.4857 8.08731 22.3301 8.06717 22.1755C8.05213 22.0709 8.03064 21.9672 8.00284 21.8652C8.01994 21.8863 8.04229 21.9025 8.06765 21.9122C8.093 21.9219 8.12052 21.9248 8.14733 21.9205C8.19924 21.9058 8.23417 21.8517 8.24658 21.775C8.33572 21.7851 8.42377 21.7953 8.51291 21.802L8.59528 21.8077C8.61559 21.898 8.6348 22.0085 8.64721 22.0762C8.67761 22.2598 8.69456 22.4454 8.69797 22.6314C8.70243 22.7201 8.70243 22.809 8.69797 22.8977C8.69822 22.9496 8.6933 23.0014 8.6833 23.0523C8.65886 23.2368 8.61539 23.4184 8.55355 23.594C8.49856 23.739 8.43059 23.8787 8.35044 24.0115C8.29798 24.1026 8.23426 24.1867 8.16083 24.262C7.97627 24.4792 7.73358 24.6393 7.46122 24.7235C7.2715 24.7819 7.07116 24.7971 6.87477 24.7682C6.67838 24.7394 6.49093 24.667 6.32606 24.5565C6.3929 24.5935 6.46273 24.6248 6.53482 24.6501C6.77246 24.7331 7.02773 24.7522 7.27506 24.7054L7.20619 24.4131ZM7.22768 24.4944C7.0145 24.5227 6.79759 24.4972 6.59687 24.42L6.56863 24.4087L6.58675 24.4154C6.78901 24.4855 7.00605 24.5014 7.21638 24.4617L7.22768 24.4944ZM8.59983 21.3812C8.56936 21.2773 8.53435 21.1735 8.49824 21.0708C8.63529 21.0892 8.77021 21.1209 8.90108 21.1656C9.05331 21.2192 9.20087 21.2852 9.34228 21.363C9.09617 21.4004 8.84636 21.4069 8.59866 21.3823L8.59983 21.3812ZM9.87604 21.5684C9.91553 21.5436 9.95387 21.5176 9.98885 21.4894C10.1017 21.5639 10.2146 21.6384 10.3274 21.7151C10.8435 22.1029 11.4541 22.3453 12.0956 22.417C12.0314 22.428 11.9666 22.4348 11.9015 22.4373C11.1499 22.3749 10.4388 22.0705 9.87494 21.5696L9.87604 21.5684ZM10.3973 21.4556C10.9535 21.9769 11.6802 22.278 12.442 22.303L12.4116 22.3177L12.3924 22.3256C12.3856 22.3205 12.3771 22.3182 12.3687 22.3189C11.5761 22.294 10.813 22.0133 10.1931 21.5188L10.0577 21.4307C10.1081 21.3859 10.1545 21.3368 10.1965 21.284C10.2642 21.3472 10.3274 21.4048 10.3951 21.4601L10.3973 21.4556ZM9.30164 20.5777C9.5666 20.7401 9.81429 20.9291 10.0408 21.1419C9.95728 21.1836 9.76435 21.2547 9.67521 21.2829C9.50917 21.1118 9.30853 20.9782 9.08669 20.8908C8.86485 20.8034 8.62693 20.7644 8.3888 20.7763C8.33012 20.6386 8.23756 20.4378 8.16986 20.3046C8.56527 20.2862 8.95762 20.3826 9.29944 20.5822L9.30164 20.5777ZM7.39125 20.6906C7.12985 20.3976 6.82223 20.1495 6.48061 19.956C6.5092 19.8612 6.53407 19.7653 6.55513 19.6682L6.57091 19.5949C6.5788 19.5542 6.58673 19.5159 6.5935 19.4741L6.60817 19.3906C6.63645 19.2075 6.65339 19.0229 6.65893 18.8377L6.74467 18.832C7.28018 19.1703 7.71421 19.6472 8.00064 20.2121L8.05367 20.3159C8.19021 20.5845 8.40687 21.125 8.42041 21.1701C8.45765 21.283 8.47004 21.3619 8.42716 21.3563L8.38315 21.3506L8.2556 21.327C8.21611 21.3202 8.17777 21.3112 8.14279 21.3022C8.08524 21.2209 8.01531 21.1757 7.95325 21.1893C7.92991 21.1969 7.90968 21.212 7.89567 21.2322C7.84377 21.2164 7.79411 21.2006 7.74333 21.1836C7.72302 21.1464 7.71287 21.1317 7.68127 21.0708C7.59774 20.9353 7.49978 20.8093 7.38905 20.695L7.39125 20.6906ZM7.78169 18.6244C8.17021 18.5034 8.55151 18.3602 8.92367 18.1956C9.14935 18.5476 9.36485 18.902 9.60069 19.2405C9.79362 19.5155 10.0072 19.7754 10.2394 20.018C10.0724 19.886 9.90761 19.7472 9.74511 19.6084C9.96026 19.8122 10.1826 20.0082 10.412 20.1963L10.4504 20.2268C10.6681 20.4313 10.9026 20.6174 11.1512 20.7831L11.0552 20.7198C10.8093 20.5554 10.572 20.3784 10.3443 20.1895C10.1186 20.0033 9.89297 19.8059 9.66729 19.6073C9.87717 19.8172 10.0949 20.0203 10.3183 20.2155C10.5435 20.4106 10.7786 20.594 11.0225 20.765C11.1741 20.8744 11.3312 20.9761 11.493 21.0697C11.6559 21.1625 11.8244 21.245 11.9975 21.3168L12.1205 21.3676L12.2457 21.4161L12.3089 21.4387L12.3721 21.4601C12.4048 21.4714 12.4657 21.4894 12.4984 21.5007C12.5312 21.512 12.5842 21.5267 12.626 21.538C12.6677 21.5493 12.7219 21.5628 12.7546 21.5718L12.8054 21.5831C12.8754 21.5989 12.9465 21.6124 13.0164 21.6248C13.367 21.685 13.7237 21.7009 14.0782 21.6723C14.2193 21.661 14.3592 21.6429 14.498 21.6181C14.7073 21.5802 14.9135 21.5274 15.1153 21.4601C15.166 21.442 15.2168 21.4252 15.2676 21.4048L15.2236 21.4342L15.1423 21.4657C14.865 21.5716 14.5771 21.6472 14.2836 21.6914C13.9904 21.7344 13.6935 21.7462 13.3978 21.7264C13.1023 21.7058 12.8101 21.6521 12.5267 21.5661C12.2431 21.4797 11.9684 21.3663 11.7063 21.2276C11.4433 21.0908 11.1902 20.9354 10.9491 20.7627C10.7068 20.5908 10.4736 20.4063 10.2506 20.2098C10.025 20.0157 9.80832 19.8126 9.59167 19.6061C9.79591 19.8228 10.0092 20.0326 10.2281 20.2346C10.4474 20.4372 10.6772 20.6282 10.9164 20.8068C11.0946 20.9446 11.2811 21.0712 11.475 21.1859C11.6699 21.3 11.8736 21.3981 12.0843 21.4793C12.1238 21.4962 12.1633 21.5109 12.1972 21.5256C12.231 21.5402 12.2761 21.5549 12.3168 21.5684C12.328 21.5684 12.3653 21.5854 12.3766 21.5887C12.3879 21.5921 12.4251 21.6046 12.4376 21.608C12.45 21.6113 12.5369 21.6362 12.5583 21.6429L12.6813 21.6745L12.8042 21.7027L12.8528 21.7117C12.9205 21.7253 12.987 21.7355 13.0536 21.7456C13.3883 21.7935 13.7276 21.7988 14.0636 21.7614C14.197 21.7471 14.3296 21.7256 14.4608 21.6971C14.6587 21.6558 14.8533 21.5999 15.043 21.5301L15.0949 21.5097L15.0577 21.5334L15.0352 21.547L15.0182 21.5537C14.7412 21.6649 14.4523 21.7436 14.1572 21.7885C13.8635 21.8332 13.5656 21.845 13.2692 21.8235C12.973 21.8005 12.6806 21.7425 12.398 21.6508C12.1156 21.5584 11.8428 21.439 11.5833 21.2942C11.3229 21.1495 11.0733 20.9863 10.8363 20.8057C10.5988 20.6256 10.3705 20.4335 10.1525 20.2302C9.92681 20.0293 9.7192 19.8171 9.50819 19.605C9.70792 19.8307 9.91441 20.0439 10.1288 20.2549C10.3444 20.4637 10.5703 20.6614 10.8058 20.8474C10.8555 20.888 10.9051 20.9264 10.9559 20.9602C10.7302 20.8022 10.5046 20.6352 10.2935 20.4637C10.2168 20.3926 10.1401 20.3204 10.0679 20.2471C9.8512 20.0383 9.64472 19.8194 9.43822 19.6005C9.62177 19.8157 9.80984 20.0255 10.0024 20.2302C9.823 20.0846 9.64469 19.939 9.46866 19.7968C8.94304 19.3567 8.37838 18.9654 7.78169 18.6278V18.6244ZM9.33553 18.0162C9.35292 18.0434 9.37218 18.0694 9.39311 18.0941C9.41576 18.1195 9.44028 18.1433 9.46645 18.1651C9.48037 18.176 9.49501 18.1858 9.5104 18.1945C9.52583 18.2045 9.54253 18.2125 9.56005 18.2182C9.5705 18.22 9.58121 18.22 9.59167 18.2182C9.59833 18.2198 9.60532 18.2198 9.61198 18.2182C9.61938 18.2147 9.62564 18.2093 9.63003 18.2024C9.63618 18.1918 9.63896 18.1796 9.63795 18.1674C9.63654 18.1582 9.6343 18.1491 9.6312 18.1403C9.6184 18.1082 9.59915 18.079 9.57472 18.0545C9.58752 18.0841 9.59667 18.1153 9.60186 18.1471C9.6031 18.1542 9.6031 18.1614 9.60186 18.1685C9.60186 18.1742 9.60186 18.1685 9.60186 18.1685L9.59621 18.1787H9.58037L9.56233 18.1697C9.5621 18.1393 9.55561 18.1094 9.54318 18.0817C9.48337 17.9429 9.53523 18.0489 9.47768 17.9835L9.46081 17.9666L9.60633 17.9023C9.74062 18.0602 9.83202 18.2859 9.74739 18.3536C9.66276 18.4213 9.45516 18.3005 9.31976 18.1425C9.2948 18.1129 9.27177 18.0816 9.25088 18.049L9.33553 18.0162ZM14.0557 21.8945C13.761 21.9417 13.4617 21.9534 13.1642 21.9295L13.013 21.9126C12.637 21.8369 12.2724 21.7124 11.9286 21.5425C12.011 21.5797 12.0967 21.6135 12.1813 21.6451L12.2942 21.6858L12.407 21.7241L12.4646 21.7422L12.5221 21.758L12.635 21.7885C12.6745 21.7986 12.7128 21.8065 12.7478 21.8144C12.758 21.8144 12.8539 21.8347 12.8607 21.8381L12.9069 21.846L13.0988 21.872C13.4176 21.9066 13.7395 21.9009 14.0568 21.8551C14.1832 21.837 14.3073 21.8122 14.4314 21.7828C14.5667 21.7498 14.7 21.7095 14.8309 21.6621C14.7835 21.6858 14.735 21.7084 14.6854 21.731C14.4799 21.8048 14.2684 21.8606 14.0534 21.8979L14.0557 21.8945ZM13.6212 21.582C13.9262 21.5972 14.2321 21.5822 14.5341 21.5369C14.8291 21.4925 15.119 21.4191 15.3996 21.3179L15.3691 21.3393L15.2653 21.3789C14.9862 21.4778 14.6977 21.5481 14.4044 21.5887C14.112 21.6283 13.8165 21.6397 13.522 21.6226C13.2276 21.6049 12.936 21.5561 12.652 21.477C12.3678 21.3977 12.0913 21.2931 11.8259 21.1645C11.7413 21.1227 11.6567 21.0798 11.5743 21.0358L11.6206 21.0606C12.2403 21.3797 12.9225 21.5589 13.619 21.5854L13.6212 21.582ZM19.1279 21.784C19.0153 21.7624 18.9137 21.7026 18.8401 21.6147C18.8153 21.5729 18.7668 21.4725 18.8796 21.5019C18.9045 21.5075 18.9304 21.5414 18.9553 21.5526H18.9631C19.0725 21.6471 19.2076 21.7068 19.3511 21.7241C19.4947 21.7414 19.6401 21.7155 19.7688 21.6497C19.9462 21.5929 20.1086 21.4968 20.2439 21.3687C20.1124 21.5327 19.9392 21.6583 19.7424 21.7322C19.5456 21.8061 19.3326 21.8255 19.1257 21.7885L19.1279 21.784ZM10.4391 20.0642C10.0986 19.7195 9.79354 19.3415 9.52851 18.9358C9.34547 18.6813 9.18281 18.4126 9.04213 18.1324C9.13466 18.0986 9.13242 18.1008 9.17643 18.0861C9.44274 18.4021 9.70341 18.4721 9.79029 18.3976C9.87718 18.3231 9.83765 18.0783 9.66274 17.8673L9.85235 17.7849C10.0036 17.9745 10.1559 18.1652 10.3037 18.3491L10.6863 18.7926C10.8665 18.9909 11.0575 19.1793 11.2583 19.3568L11.3587 19.4448C11.4862 19.5509 11.6194 19.6535 11.7594 19.7483C11.8553 19.8126 11.95 19.868 12.0516 19.9266C12.1536 19.9858 12.2595 20.0378 12.3687 20.0824C12.577 20.1691 12.7912 20.2411 13.0096 20.2979C13.1767 20.3382 13.3464 20.3672 13.5174 20.3847C13.6937 20.401 13.8708 20.4075 14.0478 20.4039C14.2013 20.3994 14.3542 20.385 14.5059 20.361C14.8334 20.3081 15.1533 20.2153 15.4583 20.0846C16.0349 19.8329 16.6431 19.3962 17.275 19.0825L17.5459 18.9573C17.8281 18.8115 18.1383 18.728 18.4556 18.7122C18.7729 18.6964 19.0899 18.7488 19.3852 18.8659C19.6743 18.9944 19.9282 19.1906 20.1254 19.438L20.1604 19.482C20.3596 19.7412 20.483 20.0505 20.517 20.3757C20.537 20.5782 20.5026 20.7824 20.4176 20.9672C20.3325 21.1521 20.1997 21.3109 20.0328 21.4274C20.054 21.4021 20.0733 21.3754 20.0904 21.3473C20.1842 21.1877 20.2346 21.0063 20.2366 20.8212C20.2386 20.6361 20.1921 20.4538 20.1017 20.2922L20.0701 20.2324C20.0047 20.1201 19.9229 20.0182 19.8275 19.93L19.806 19.912L19.6752 19.8081C19.2975 19.5604 18.8457 19.4512 18.3966 19.4989C17.9423 19.555 17.5073 19.7161 17.1261 19.9695L16.9783 20.0654C16.8714 20.1361 16.7684 20.2114 16.6691 20.2911C16.3949 20.4999 16.1342 20.7278 15.869 20.9478C15.7742 21.0065 15.6761 21.0606 15.5745 21.1125C15.1522 21.3162 14.6987 21.4474 14.2329 21.5007C14.1279 21.512 14.0207 21.521 13.9158 21.5244C13.5304 21.5274 13.1462 21.4808 12.7727 21.3856C12.2325 21.2434 11.7165 21.0216 11.2414 20.7278C11.0704 20.6137 10.9065 20.4893 10.7506 20.3554L10.4391 20.0642ZM3.8142 15.7357C4.16365 15.568 4.50281 15.3796 4.8298 15.1714C5.09414 15.7947 5.5475 16.3194 6.12592 16.6712C6.70434 17.0231 7.37862 17.1845 8.05367 17.1327C8.43539 17.1282 8.81579 17.0878 9.18993 17.0119L9.41563 16.9679C9.62438 16.9239 9.83206 16.8743 10.0397 16.8235L10.5237 16.7106C10.6117 16.6892 10.6558 16.6779 10.7901 16.6497C10.9243 16.6215 11.2053 16.5617 11.3903 16.5368C11.51 16.5199 11.5303 16.5176 11.6646 16.503C11.8711 16.476 12.0797 16.4693 12.2875 16.4827C12.4173 16.494 12.4725 16.4928 12.5537 16.5052C12.635 16.5176 12.8065 16.5448 12.8708 16.5594L12.9589 16.5809C13.2762 16.6555 13.5721 16.8025 13.8232 17.0103C14.0744 17.2182 14.274 17.4814 14.4066 17.7792L14.4123 17.8018C14.4236 17.8525 14.4359 17.9034 14.4427 17.9553C14.4628 18.073 14.4692 18.1926 14.4619 18.3118C14.4468 18.2377 14.4249 18.1652 14.3964 18.0952C14.2601 17.7918 14.0445 17.531 13.7722 17.3401C13.4999 17.1492 13.181 17.0354 12.8494 17.0108C12.8494 17.0108 12.6395 16.9803 12.4816 16.9736C12.3902 16.9736 12.3834 16.9736 12.2559 16.9736C12.0856 16.9765 11.9157 16.9897 11.747 17.013C11.6883 17.0198 11.6645 17.0244 11.6228 17.0323C11.581 17.0401 11.563 17.0435 11.4795 17.0581C11.3272 17.0886 11.1545 17.1304 10.9368 17.1958L10.6874 17.276C10.6208 17.2997 10.403 17.3753 10.2225 17.4498C10.1503 17.4791 9.88959 17.5874 9.72597 17.6585L9.31184 17.8424L8.87849 18.0331H8.86726L8.84013 18.0444L8.6145 18.1392L7.98597 18.3773C7.65611 18.495 7.31614 18.5822 6.97037 18.638C6.69729 18.6718 6.4355 18.6842 6.4355 18.6842C5.89212 18.6865 5.35239 18.5952 4.83993 18.4145C4.66615 18.3536 4.58491 18.3231 4.32538 18.2125C4.07895 18.1043 3.83831 17.9834 3.60435 17.8503C3.47797 17.7758 3.12364 17.566 2.89344 17.4125C2.2843 17.0897 1.82784 16.5387 1.62398 15.8801C1.62282 15.8743 1.61962 15.8691 1.61496 15.8655C2.14332 15.9826 2.68989 15.9914 3.22176 15.8914C3.42417 15.8604 3.623 15.8094 3.81531 15.7391L3.8142 15.7357ZM8.81643 16.5019C8.84239 16.494 8.91349 16.5075 8.93944 16.5019C9.02633 16.5019 9.05228 16.5019 9.14819 16.4872C9.24411 16.4725 9.31974 16.4613 9.4055 16.4455C9.66391 16.4003 9.92007 16.3439 10.1751 16.2818C11.285 15.8821 12.4786 15.7726 13.6427 15.9636C14.1247 16.0863 14.5577 16.3532 14.8839 16.7287C15.215 17.1418 15.3692 17.6692 15.3127 18.1956C15.2682 18.611 15.0905 19.001 14.8061 19.3071L14.8151 19.2913C15.0012 19.0926 15.1346 18.8506 15.2033 18.5872C15.2394 18.4553 15.261 18.3198 15.2676 18.1832C15.2787 17.9101 15.2377 17.6375 15.1469 17.3798C15.1007 17.2521 15.0429 17.129 14.9742 17.0119C14.9045 16.8959 14.8244 16.7863 14.7349 16.6847C14.6455 16.5838 14.5477 16.4905 14.4427 16.4059C14.3362 16.3236 14.223 16.2504 14.1042 16.187C13.9846 16.127 13.86 16.0775 13.7318 16.0392C13.6038 16.0039 13.4727 15.9813 13.3403 15.9715C13.8585 16.0636 14.3259 16.3402 14.656 16.7501C14.7363 16.8511 14.8091 16.9578 14.8738 17.0694C14.8918 17.101 14.9088 17.1349 14.9235 17.1665C14.9088 17.1394 14.8952 17.1123 14.8794 17.0864C14.8163 16.9816 14.745 16.882 14.6661 16.7885C14.5699 16.6736 14.4617 16.5692 14.3434 16.4771C14.2345 16.3946 14.1185 16.3217 13.997 16.2593C13.9349 16.2288 13.8729 16.2017 13.8085 16.1769C13.7442 16.1521 13.6822 16.1306 13.6167 16.1114C13.4863 16.0765 13.3529 16.0531 13.2184 16.0414C13.4696 16.0877 13.7111 16.1762 13.9326 16.3033C14.1502 16.4295 14.3457 16.5903 14.5115 16.7795C14.5729 16.8514 14.6302 16.9267 14.6831 17.0051C14.656 16.9656 14.6266 16.9295 14.5962 16.8923C14.4939 16.7624 14.3752 16.6463 14.243 16.547C14.1308 16.4645 14.0119 16.3917 13.8875 16.3292C13.8251 16.2999 13.7612 16.2728 13.6957 16.248C13.6314 16.2243 13.5659 16.2017 13.5005 16.1837C13.3678 16.1475 13.2323 16.123 13.0954 16.1103C13.3385 16.1577 13.573 16.2421 13.7905 16.3608C14.0038 16.4779 14.1976 16.6275 14.3648 16.8043C14.3863 16.828 14.4077 16.8517 14.428 16.8765C14.3429 16.7804 14.2475 16.6937 14.1437 16.6181C14.0294 16.5347 13.9078 16.4619 13.7804 16.4003C13.7164 16.371 13.6513 16.3439 13.5851 16.3191C13.5185 16.2954 13.4531 16.2739 13.3854 16.2547C13.2508 16.2183 13.1134 16.193 12.9746 16.1791C13.2101 16.2283 13.4379 16.3092 13.6517 16.4195C13.8593 16.5283 14.0495 16.6675 14.2159 16.8325C14.1595 16.78 14.1 16.731 14.0376 16.6858C13.9208 16.6024 13.7965 16.5298 13.6664 16.4691C13.6009 16.4398 13.5347 16.4127 13.4678 16.3879C13.4001 16.3642 13.3324 16.3427 13.2647 16.3236C13.1275 16.2876 12.988 16.2616 12.8471 16.2457C13.0739 16.2958 13.2942 16.3715 13.5038 16.4714C13.7096 16.5707 13.8997 16.6995 14.0681 16.8539L14.0782 16.863C14.0335 16.823 13.9868 16.7854 13.9383 16.7501C13.8188 16.6656 13.6915 16.5926 13.558 16.5323C13.4915 16.503 13.4226 16.477 13.356 16.4522C13.2895 16.4274 13.2184 16.4071 13.1485 16.389C13.0094 16.3527 12.868 16.3255 12.7253 16.3078C12.9437 16.3611 13.1567 16.4344 13.3617 16.5267C13.5646 16.6174 13.7544 16.7351 13.9259 16.8765C13.953 16.9002 13.9801 16.925 14.0072 16.951C13.9543 16.9047 13.8989 16.8614 13.8413 16.8212C13.6979 16.7145 13.5393 16.6301 13.3707 16.5707C13.2979 16.542 13.2222 16.5208 13.145 16.5075C13.0694 16.4928 13.0142 16.4951 12.9521 16.4827C12.4611 16.3672 11.9529 16.3446 11.4536 16.4161C10.6129 16.5165 9.80946 16.8032 8.97105 16.942C8.71661 16.9853 8.45946 17.0109 8.20147 17.0187L8.19355 17.0097C8.27254 17.0097 8.35158 17.0018 8.42944 16.9939L8.81643 16.5019ZM8.81871 16.6373H8.79956H8.81871ZM8.88758 16.6756H8.84694H8.88758ZM8.95976 16.7106L8.90562 16.7174L8.95976 16.7106ZM9.02863 16.7501L8.96203 16.758L9.02863 16.7501ZM9.09743 16.7896L9.02409 16.7986L9.09743 16.7896ZM9.16624 16.8291L9.08841 16.8393L9.16624 16.8291ZM7.44318 15.6578C7.86587 15.8371 8.25448 16.0878 8.59191 16.3992C8.41437 16.4072 8.23653 16.4045 8.05932 16.3913C7.79612 16.3739 7.53901 16.3042 7.30323 16.1859C7.22875 16.1374 7.15321 16.0911 7.0776 16.0471C6.93189 15.9433 6.80156 15.8195 6.69054 15.6792C6.63329 15.6068 6.57978 15.5315 6.53027 15.4535C6.84361 15.4718 7.15194 15.5408 7.44318 15.6578ZM4.50934 18.454C4.62218 18.498 4.72597 18.5398 4.83655 18.5759L4.89186 18.5928L4.87264 18.8264C4.87264 18.8806 4.86699 18.9392 4.86135 18.9889L4.8557 19.0544C4.8478 19.1288 4.83545 19.2033 4.82078 19.2801L4.81059 19.3376C4.80156 19.385 4.79028 19.4312 4.77787 19.4775C4.65375 19.47 4.5296 19.4677 4.40548 19.4707L4.26105 19.4188L3.60655 19.2473C3.243 19.1809 2.86999 19.1867 2.50865 19.2642C2.14478 19.3138 1.8136 19.5005 1.58286 19.7862C1.35213 20.0719 1.23925 20.435 1.26736 20.8011C1.3489 21.19 1.54722 21.5448 1.83577 21.818C2.12431 22.0912 2.48937 22.2699 2.88215 22.3301C3.28731 22.4112 3.70499 22.4064 4.10815 22.3158C4.51132 22.2252 4.89094 22.051 5.22245 21.8043C5.49544 21.6011 5.73563 21.3571 5.93452 21.0809C6.01125 21.1204 6.08793 21.1566 6.16015 21.1938C5.89191 21.488 5.68241 21.8308 5.54291 22.2037C5.38723 22.5656 5.33766 22.9643 5.4 23.3533C5.46234 23.7423 5.63402 24.1056 5.89499 24.4007C6.14094 24.6788 6.4786 24.8592 6.84647 24.9092C7.21433 24.9591 7.58789 24.8752 7.89905 24.6727C8.21952 24.4329 8.47207 24.1137 8.63192 23.7467C8.79178 23.3797 8.85341 22.9775 8.81079 22.5795C8.79632 22.3236 8.76163 22.0694 8.707 21.819C9.07056 21.8441 9.43474 21.7798 9.7677 21.6316C9.95728 21.7569 10.1435 21.8889 10.3319 22.0108C10.6366 22.2732 11.0099 22.4431 11.4079 22.5007C11.8059 22.5582 12.212 22.501 12.5786 22.3357C12.6192 22.3098 12.5786 22.2399 12.5357 22.2636C12.2909 22.2766 12.0459 22.2413 11.8147 22.1597C11.3631 22.0116 10.9424 21.7822 10.5734 21.4827C10.4605 21.3947 10.3601 21.3032 10.2563 21.2096C10.271 21.1893 10.2834 21.1679 10.2969 21.1464C10.3043 21.1294 10.3052 21.1103 10.2995 21.0927C10.2937 21.0751 10.2817 21.0602 10.2657 21.0508C10.2497 21.0415 10.2308 21.0384 10.2126 21.0421C10.1945 21.0458 10.1783 21.056 10.1672 21.0708L10.1536 21.0922L10.1367 21.1002C9.90164 20.8722 9.64328 20.6695 9.36597 20.4953C8.98692 20.2745 8.54974 20.1741 8.11235 20.2076C8.06157 20.1116 8.0085 20.0191 7.95208 19.9288C7.68987 19.4858 7.33163 19.1071 6.90377 18.8207C6.97034 18.8128 7.03805 18.8027 7.1035 18.7914C7.28292 18.7609 7.46126 18.7192 7.63616 18.6718L7.65985 18.6831C8.20864 18.995 8.72698 19.3577 9.20804 19.7664C10.0883 20.6025 11.0867 21.3047 12.1712 21.8505C12.7286 22.0979 13.34 22.1989 13.9473 22.1439C14.5282 22.0556 15.0762 21.8176 15.5372 21.4533C16.4682 20.7706 17.3687 19.6321 18.628 19.6479C18.9272 19.6314 19.2242 19.7077 19.4783 19.8665C19.7324 20.0253 19.9312 20.2587 20.0475 20.5348C20.1055 20.6878 20.1197 20.8539 20.0886 21.0145C20.0575 21.1752 19.9824 21.324 19.8715 21.4443C19.7645 21.5444 19.6279 21.6072 19.4822 21.623C19.3365 21.6389 19.1896 21.6071 19.0635 21.5323C19.0474 21.5151 19.0327 21.4966 19.0195 21.477C18.987 21.4343 18.9408 21.404 18.8887 21.3913C18.8686 21.3856 18.8474 21.385 18.827 21.3894C18.8066 21.3938 18.7876 21.4032 18.7717 21.4167C18.7558 21.4302 18.7434 21.4473 18.7356 21.4667C18.7279 21.4861 18.725 21.507 18.7273 21.5278C18.7408 21.7219 18.9902 21.855 19.1787 21.8505C19.4094 21.8905 19.6468 21.8624 19.8618 21.7696C20.0769 21.6768 20.2602 21.5234 20.3895 21.3281C20.5482 21.0621 20.6286 20.7568 20.6214 20.4472C20.6142 20.1375 20.5198 19.8362 20.3488 19.5779C20.1869 19.3253 19.9717 19.1111 19.7183 18.9503C19.4649 18.7895 19.1795 18.686 18.8819 18.647C18.1611 18.6021 17.4446 18.7874 16.836 19.1762C16.1937 19.6075 15.4956 19.9492 14.7609 20.1918C14.0366 20.3646 13.2769 20.3138 12.582 20.0462C11.5269 19.5243 10.6308 18.7295 9.98665 17.7443L10.1615 17.6709C11.1531 17.1477 12.3058 17.0183 13.3888 17.3087C13.6961 17.4107 13.9591 17.6152 14.1335 17.8881C14.3079 18.1609 14.3832 18.4855 14.3468 18.8072C14.3341 18.8681 14.3152 18.9274 14.2904 18.9844L14.2656 19.0307C14.2407 19.0772 14.2128 19.122 14.182 19.1649L14.1539 19.2033C14.029 19.3671 13.849 19.4802 13.6472 19.5217C13.4454 19.5632 13.2353 19.5303 13.0559 19.429C13.0509 19.4104 13.042 19.3931 13.0299 19.3782C13.0141 19.3566 12.9911 19.3414 12.9651 19.3351C12.939 19.3289 12.9116 19.3322 12.8878 19.3443C12.8613 19.3526 12.8376 19.3682 12.8197 19.3894C12.8017 19.4106 12.7901 19.4364 12.7862 19.4639C12.7838 19.4796 12.7838 19.4956 12.7862 19.5113C12.7941 20.0688 13.4452 20.1264 13.8605 20.0327C14.223 19.9524 14.5577 19.7772 14.8303 19.525C15.1028 19.2727 15.3034 18.9525 15.4114 18.5972C15.5195 18.242 15.5311 17.8643 15.4452 17.5031C15.3592 17.1418 15.1788 16.8099 14.9223 16.5414C14.5299 16.1882 14.0596 15.9326 13.5499 15.7954C13.0401 15.6581 12.5051 15.6431 11.9884 15.7515C10.9164 15.8959 9.87266 16.3044 8.79164 16.3902C8.44379 16.0573 8.04494 15.7823 7.6102 15.5755C7.24237 15.4023 6.8456 15.299 6.44005 15.2708C6.27191 14.9458 6.16245 14.5938 6.02027 14.2552C6.02027 14.2552 6.06762 14.2292 6.11614 14.1988C6.29889 14.0471 6.46428 13.8757 6.60927 13.6876L6.63751 13.6526L6.77966 13.4687C6.81125 13.427 6.84509 13.3886 6.87443 13.3446C6.89023 13.3265 6.90264 13.304 6.91844 13.2859L7.16783 12.9869C7.3732 12.7352 7.5763 12.4791 7.77942 12.224C7.96598 12.455 8.15405 12.6845 8.34362 12.9124L8.84577 13.5127L8.89998 13.577L8.93607 13.6199L8.96651 13.6549L8.97333 13.6628L9.04213 13.7429L9.07822 13.7858L9.12113 13.8332L9.14819 13.8648L9.18993 13.911L9.22946 13.9573L9.35584 14.0939C9.78631 14.5858 10.3048 14.9929 10.8848 15.2945C11.2886 15.4803 11.7269 15.5791 12.1714 15.5843C12.6158 15.5896 13.0564 15.5012 13.4644 15.325C13.5626 15.2855 13.6607 15.2437 13.7589 15.1986C14.0877 15.489 14.497 15.6727 14.9325 15.7255C15.4524 15.7432 15.9729 15.7225 16.4897 15.6635C16.9652 15.6487 17.4394 15.7209 17.8889 15.8767C18.1225 15.9506 18.3391 16.0699 18.5265 16.2277C18.5456 16.2717 18.6201 16.2412 18.6032 16.1961C18.4103 15.8433 18.1207 15.5529 17.7685 15.3591C17.4163 15.1652 17.0161 15.0759 16.6149 15.1015C16.0591 15.1029 15.5052 15.037 14.9652 14.9052C14.8336 14.8623 14.7065 14.8063 14.586 14.7382C15.0165 14.4541 15.4041 14.1098 15.737 13.7158C16.0106 13.4235 16.2037 13.0653 16.2975 12.676C16.3912 12.2868 16.3824 11.8799 16.2718 11.4951C16.1455 11.1459 15.898 10.8537 15.5742 10.6719C15.2505 10.49 14.8721 10.4305 14.5081 10.5044C14.1221 10.5826 13.7664 10.7692 13.4825 11.0421C13.1986 11.3151 12.9982 11.6632 12.9047 12.0458C12.7566 12.541 12.7341 13.0653 12.8392 13.5714C12.1102 13.5232 11.4258 13.2035 10.9209 12.6754C10.8859 12.6371 10.8544 12.6032 10.8194 12.5626C10.5683 12.2535 10.3441 11.9236 10.1491 11.5764C10.0363 11.3744 9.69101 10.7413 9.42245 10.352C9.7606 10.0356 10.1291 9.75322 10.5226 9.50907C11.4137 8.96774 12.4439 8.69979 13.4858 8.73839C14.5596 8.81926 15.596 9.16849 16.4998 9.75398C17.3899 10.3693 18.3838 10.8188 19.4337 11.081C19.884 11.1682 20.3484 11.1527 20.7919 11.0355C21.2354 10.9183 21.6467 10.7024 21.9952 10.4039C22.3375 10.1133 22.5992 9.73935 22.7549 9.31816C22.9107 8.89696 22.9553 8.44275 22.8844 7.99931C22.8135 7.59742 22.61 7.23078 22.3065 6.95796C22.003 6.68513 21.617 6.52178 21.2098 6.49396C21.0938 6.48828 20.9775 6.49894 20.8645 6.52557C20.6072 6.53911 20.2586 6.70163 20.2394 6.97696C20.236 7.00266 20.2388 7.02879 20.2477 7.05314C20.2566 7.07748 20.2713 7.09929 20.2905 7.11671C20.3097 7.13413 20.3328 7.14663 20.3579 7.15314C20.383 7.15965 20.4093 7.15999 20.4346 7.15411C20.504 7.13812 20.5669 7.10152 20.6151 7.04914C20.6628 7.00075 20.7129 6.9548 20.7652 6.91147C20.907 6.83743 21.0658 6.80242 21.2256 6.80995C21.3705 6.81638 21.5126 6.85247 21.6431 6.91601C21.8253 7.01369 21.9764 7.16083 22.0788 7.34047C22.1812 7.52012 22.2308 7.72502 22.222 7.93161C22.2025 8.31987 22.0582 8.69147 21.8106 8.99115C21.563 9.29082 21.2252 9.50256 20.8476 9.59489C19.0422 10.1444 17.5583 8.71247 16.29 7.65853C15.6371 7.05812 14.8737 6.5905 14.0422 6.28183C13.1868 6.03644 12.2776 6.05176 11.431 6.32584C10.0248 6.8298 8.73453 7.61196 7.63726 8.62557C7.52442 8.55448 7.41159 8.48673 7.29875 8.42467C6.51131 7.97777 5.61381 7.76194 4.70927 7.80185C3.80474 7.84177 2.92982 8.13584 2.18481 8.65037C2.01307 8.77945 1.85194 8.92208 1.70298 9.0769C1.69894 9.08094 1.69664 9.08647 1.69664 9.09218C1.69664 9.0979 1.69894 9.10337 1.70298 9.10741C1.70702 9.11145 1.71249 9.11367 1.7182 9.11367C1.72391 9.11367 1.72938 9.11145 1.73342 9.10741C2.48794 8.418 3.45453 8.00573 4.47435 7.93836C5.48394 7.87218 6.48969 8.11543 7.35743 8.6357C7.41047 8.66729 7.46239 8.70118 7.51543 8.73391L6.96699 9.18523C6.73115 9.38045 6.49421 9.57568 6.25499 9.76638C6.06231 9.6548 5.85489 9.57085 5.63885 9.51699C5.41317 9.44703 5.20895 9.40415 4.96183 9.3466C4.79821 9.31613 4.66052 9.29472 4.51044 9.2778C4.16894 9.24343 3.8242 9.26131 3.48809 9.33083C3.23577 9.38307 2.99037 9.46445 2.75687 9.5734C2.53732 9.65423 2.32419 9.75155 2.11931 9.86452L1.78983 10.0632C1.63559 10.1649 1.4875 10.2757 1.34636 10.3949C1.15172 10.5376 0.98241 10.7119 0.845375 10.9106C0.804752 10.9839 0.89388 11.0923 0.969483 11.0347C1.14439 10.9027 1.28434 10.7199 1.45022 10.5743C1.54839 10.4897 1.65104 10.4084 1.75711 10.3317L1.75146 10.3385L1.88914 10.2437C1.89841 10.265 1.91455 10.2826 1.93501 10.2937C1.95547 10.3047 1.97904 10.3086 2.00196 10.3046L2.0742 10.3509L2.08322 10.3667C2.09304 10.3929 2.11077 10.4154 2.13398 10.431L2.2322 10.5077C2.22602 10.5226 2.22283 10.5385 2.22283 10.5546C2.22283 10.5706 2.22602 10.5866 2.2322 10.6014L2.30775 10.7143C2.40367 10.6917 2.49734 10.6691 2.59213 10.6488L2.67222 10.6319C2.68395 10.6439 2.69827 10.6532 2.71403 10.659C2.65084 10.6759 2.58986 10.6917 2.5278 10.712C2.46574 10.7323 2.40594 10.7537 2.34501 10.7774L2.42063 10.9388L2.57298 10.923C2.68582 10.9095 2.80652 10.8959 2.92161 10.879V10.9015C2.78545 10.9203 2.65041 10.944 2.5165 10.9726L2.4353 10.9918L2.53572 11.1995C2.68866 11.2042 2.84176 11.1982 2.99386 11.1814L2.85729 11.2085L2.55604 11.2299C2.47108 11.2358 2.38663 11.2475 2.30327 11.2649C2.2446 11.2751 2.22653 11.2773 2.1656 11.2909C2.15206 11.2909 2.10131 11.3089 2.08777 11.31C2.06973 11.3108 2.05207 11.3156 2.03612 11.3241C2.02016 11.3325 2.00628 11.3445 1.99548 11.3589C1.98468 11.3734 1.97721 11.3901 1.97365 11.4078C1.97009 11.4255 1.97052 11.4438 1.97489 11.4613C1.99858 11.5335 2.14982 11.5944 2.14982 11.5944C2.24824 11.6311 2.35105 11.6546 2.45562 11.6644C2.95124 11.7059 3.44893 11.6148 3.89768 11.4003C4.76471 10.9934 5.57843 10.4814 6.32042 9.87582C6.8519 9.46395 7.37325 9.02386 7.90022 8.59506L8.52758 8.10421C9.32652 7.46542 10.2205 6.95561 11.1771 6.59327L11.3407 6.53797C11.6255 6.46314 11.9162 6.41293 12.2096 6.3879C13.0692 6.3189 13.9328 6.4583 14.7271 6.79418C14.7824 6.81674 14.8399 6.84043 14.8918 6.86525L14.9516 6.90024L15.1773 7.0435L15.2258 7.07628L15.377 7.18007L15.4199 7.20941L15.5452 7.30191L15.5802 7.32677C15.5271 7.30646 15.4752 7.28497 15.4211 7.26692C15.0184 7.12248 14.6027 7.01747 14.1798 6.95327C13.5338 6.85566 12.8769 6.85566 12.231 6.95327C11.5977 7.03927 10.9797 7.21397 10.3951 7.4723C9.71823 7.7727 9.09078 8.17408 8.53433 8.66276C8.44067 8.73498 8.36622 8.81173 8.28047 8.88846L8.12137 9.04535C7.84395 9.32292 7.58643 9.61966 7.35068 9.9334C6.47278 11.0934 5.83183 12.4159 4.86816 13.5195C4.40172 14.1642 3.75819 14.6597 3.01569 14.946C2.2732 15.2322 1.46361 15.2968 0.685108 15.132C0.671866 15.1321 0.658997 15.1364 0.648467 15.1444C0.637938 15.1525 0.630343 15.1637 0.626773 15.1765C0.623202 15.1892 0.623872 15.2028 0.628701 15.2151C0.63353 15.2274 0.642215 15.2379 0.653495 15.2448C1.22156 15.4062 1.82267 15.4117 2.39357 15.2606C2.56825 15.2127 2.74033 15.1558 2.90922 15.0902C2.98143 15.0643 3.31546 14.9018 3.34931 14.886C3.53663 14.7912 3.716 14.6603 3.75663 14.6445C3.79725 14.6287 4.0726 14.4188 4.21704 14.306L4.29831 14.236L4.82753 13.7192C4.99792 13.533 5.15927 13.3389 5.31274 13.1392L5.50007 12.8898C5.69754 12.619 5.88486 12.338 6.06428 12.0559L6.3791 11.564C6.50096 11.3721 6.62168 11.1791 6.74467 10.9896C7.12877 10.3678 7.56921 9.78273 8.06042 9.24164C8.36483 8.92226 8.69545 8.629 9.04888 8.36489C9.14028 8.30621 9.23173 8.25204 9.32313 8.18885C10.0393 7.73314 10.8214 7.39063 11.642 7.17332C12.2961 7.00845 12.9715 6.94484 13.6449 6.98482C14.2819 7.04591 14.9051 7.20821 15.491 7.46555C15.7717 7.5932 16.0412 7.74421 16.2967 7.91694L16.5619 8.14257C17.8246 9.21004 19.4957 10.3994 21.2075 9.61631C21.557 9.47338 21.8539 9.22609 22.0576 8.90823C22.2614 8.59036 22.3621 8.21744 22.3461 7.84022C22.3229 7.53064 22.1896 7.23956 21.9704 7.0198C22.1064 7.09782 22.2313 7.19384 22.3416 7.30528C22.5285 7.4998 22.6657 7.7367 22.7413 7.99566C22.817 8.25462 22.8289 8.52803 22.776 8.79259C22.7753 8.79583 22.7755 8.79914 22.7765 8.8023C22.7774 8.80546 22.7793 8.80837 22.7817 8.81063C22.6639 9.419 22.3423 9.96901 21.8699 10.3701C21.4838 10.6857 21.0238 10.8981 20.5331 10.9874C20.0425 11.0766 19.5372 11.0397 19.0647 10.8801C18.8524 10.8173 18.644 10.7419 18.4406 10.6544L18.1935 10.5416C17.5402 10.2324 16.9298 9.83405 16.299 9.47973C15.6053 9.07845 14.8469 8.80127 14.0579 8.66056C13.6844 8.61091 13.6461 8.612 13.549 8.60636C13.2507 8.59472 12.952 8.60565 12.6553 8.63907C12.4519 8.66141 12.2499 8.6957 12.0505 8.74176C11.6711 8.83557 11.301 8.96367 10.9447 9.12435L10.7506 9.22022C9.93968 9.67125 9.21649 10.2645 8.6156 10.9715L8.15519 11.5053C7.94079 11.7648 7.73089 12.0277 7.52101 12.2952L7.169 12.7318C7.11032 12.8041 7.05611 12.8774 6.99179 12.9485C6.96922 12.9756 6.96137 12.988 6.93993 13.0128L6.85755 13.1122L6.82704 13.1493L6.77966 13.2035C6.35573 13.7128 5.88504 14.1813 5.37369 14.6028L4.95729 14.9153C4.72395 15.0779 4.47922 15.2234 4.22496 15.3509L4.12455 15.3994C3.97982 15.4666 3.8318 15.5265 3.68107 15.5788L3.61 15.6025C3.44711 15.6562 3.28084 15.6992 3.11232 15.7312L3.05254 15.7413C2.9397 15.7616 2.8167 15.7752 2.69709 15.7853H2.67112L2.55831 15.791H2.51767C2.29481 15.7958 2.07193 15.7803 1.85188 15.7447C1.62427 15.7079 1.40009 15.6525 1.18161 15.5788C1.10375 15.5529 1.04734 15.6793 1.1252 15.7142C1.27131 15.7765 1.4223 15.8267 1.5766 15.8643C1.5729 15.8644 1.56923 15.8653 1.56592 15.8669C1.56261 15.8686 1.55972 15.871 1.55745 15.8739C1.55518 15.8768 1.55356 15.8802 1.55277 15.8838C1.55197 15.8874 1.55206 15.8912 1.5529 15.8948C1.6597 16.3964 1.93921 16.8444 2.34274 17.1608C2.77569 17.52 3.24458 17.8335 3.74196 18.0963C3.92589 18.1956 4.11208 18.2893 4.30616 18.3728L4.50934 18.454ZM15.0656 15.0372C16.062 15.299 17.2604 14.9875 18.1123 15.6939C18.2129 15.7765 18.3021 15.8722 18.3775 15.9783L18.215 15.8835C18.1688 15.8497 18.1236 15.8158 18.0762 15.7842L18.0356 15.756C18.0051 15.7345 17.9938 15.7278 17.9566 15.7052C17.531 15.4405 17.0463 15.2854 16.5461 15.2538C15.7291 15.2008 14.8749 15.4694 14.1663 14.965C14.2701 14.9074 14.3716 14.8521 14.4743 14.7822C14.6605 14.8955 14.8619 14.9817 15.0724 15.0383L15.0656 15.0372ZM15.7878 11.0878C15.6181 10.9016 15.4025 10.7631 15.1626 10.686C15.0891 10.6624 15.0136 10.6454 14.9369 10.6353C15.1349 10.6465 15.328 10.7017 15.5019 10.797C15.6758 10.8923 15.8263 11.0251 15.9424 11.1859C16.105 11.4192 16.2018 11.6921 16.2223 11.9758V12.2895C16.2082 12.4427 16.1782 12.5939 16.1331 12.7409L15.9074 13.2532C15.8814 13.2983 15.8543 13.3423 15.825 13.3852C15.7765 13.4585 15.7246 13.5285 15.6693 13.5985L15.2924 14.0126C15.1954 14.1051 15.0927 14.1954 14.9866 14.28L14.5635 14.5904C14.4371 14.675 14.3096 14.754 14.1787 14.8285L13.6427 15.1049C13.2611 15.3009 12.8441 15.4184 12.4163 15.4504C11.9886 15.4824 11.5587 15.4282 11.1523 15.2911C10.3161 14.9062 9.58751 14.3214 9.03083 13.5883C8.61671 13.111 8.21049 12.6281 7.80201 12.1485C8.04349 11.8461 8.28607 11.5459 8.53771 11.2559C8.67086 11.4737 8.80745 11.6926 8.94963 11.9092L9.00941 12.0131C9.06866 12.1073 9.13428 12.1974 9.20577 12.2827C9.74497 13.1306 10.5299 13.7939 11.4558 14.1841C12.0951 14.4283 12.7907 14.4851 13.461 14.3477C13.6159 14.321 13.7672 14.2771 13.9123 14.2168C14.006 14.1796 14.1008 14.1401 14.2294 14.0757C14.3825 13.9913 14.5292 13.8959 14.6684 13.7903C14.742 13.7336 14.8117 13.6722 14.8772 13.6064C14.9925 13.4888 15.0985 13.3623 15.1943 13.2283C15.2462 13.1505 15.3071 13.0444 15.3827 12.9146C15.438 12.8138 15.4837 12.7081 15.5192 12.5987C15.5474 12.5096 15.5745 12.4294 15.6129 12.294C15.6309 12.2263 15.6445 12.1654 15.658 12.1045C15.6871 11.979 15.6906 11.8489 15.6683 11.722C15.6461 11.5951 15.5986 11.474 15.5286 11.3659C15.4586 11.2578 15.3675 11.1648 15.2608 11.0926C15.1541 11.0204 15.034 10.9704 14.9076 10.9456C14.9494 10.9523 14.99 10.9614 15.0306 10.9715C15.2256 11.0271 15.4034 11.1312 15.5474 11.2739L15.7878 11.0878ZM15.7122 11.1329C15.5515 10.9561 15.3472 10.8246 15.1197 10.7515L15.0983 10.7447L15.1299 10.7526C15.3608 10.8198 15.5712 10.9439 15.7415 11.1137L15.7122 11.1329ZM15.6468 11.1859C15.494 11.0175 15.2993 10.8925 15.0825 10.8237L15.0633 10.8181L15.0927 10.826C15.3114 10.8883 15.5109 11.0047 15.6727 11.1645L15.6468 11.1859ZM15.5791 11.2367C15.4348 11.0795 15.2519 10.9628 15.0487 10.8982H15.0306L15.0589 10.9049C15.2661 10.9644 15.455 11.075 15.6084 11.2266L15.5791 11.2367ZM13.0367 13.5815C12.9716 13.3582 12.9338 13.1279 12.9239 12.8955C12.9113 12.6585 12.933 12.421 12.9882 12.1902C12.9449 12.4109 12.9347 12.6368 12.9578 12.8605C12.9695 12.9707 12.9883 13.08 13.0142 13.1877C13.0308 13.3076 13.0607 13.4253 13.1033 13.5387C13.1035 13.5531 13.1087 13.567 13.118 13.5781L13.0367 13.5815ZM13.2342 12.7318V12.7115V12.7454V12.7318ZM13.7352 11.5481C13.8612 11.364 14.0399 11.2223 14.248 11.1418C14.4561 11.0612 14.6837 11.0455 14.9009 11.0968C15.0107 11.1215 15.1142 11.1689 15.2046 11.236C15.295 11.3031 15.3703 11.3884 15.4257 11.4865C15.4811 11.5845 15.5153 11.6931 15.5262 11.8052C15.537 11.9172 15.5243 12.0303 15.4888 12.1372C15.3201 12.5253 15.0496 12.8606 14.706 13.1075C14.3623 13.3545 13.9583 13.5038 13.5366 13.5398C13.4021 13.2168 13.3517 12.865 13.3901 12.5173C13.4286 12.1696 13.5547 11.8372 13.7566 11.5515L13.7352 11.5481ZM12.8607 12.5637C12.8569 12.674 12.8603 12.7844 12.8708 12.8943C12.895 13.128 12.9496 13.3575 13.0333 13.577C12.9983 13.577 12.9622 13.577 12.9272 13.577C12.8573 13.2466 12.8421 12.907 12.8821 12.5716L12.8607 12.5637ZM11.1985 13.1426C11.8586 13.6162 12.6754 13.8182 13.4802 13.7068L13.593 13.6899L13.6687 13.6752C14.3337 13.5613 14.9367 13.215 15.3703 12.698C15.2869 12.8991 15.178 13.0887 15.0464 13.2622C14.6473 13.7673 14.084 14.1166 13.4543 14.2496C12.8188 14.3606 12.1656 14.307 11.5567 14.0939C10.9479 13.8807 10.4039 13.5151 9.97646 13.032C9.77117 12.8161 9.58078 12.5865 9.4066 12.3448C9.42466 12.3651 9.44159 12.3854 9.45626 12.399L9.53753 12.4847C9.64788 12.5959 9.76589 12.6992 9.89071 12.7939C9.77787 12.6427 9.66504 12.4994 9.5522 12.3527L9.47093 12.2399C9.44836 12.2105 9.41227 12.1586 9.39083 12.127L9.34228 12.0548L9.38629 12.1146C9.41788 12.1575 9.4506 12.197 9.48333 12.2376C9.51605 12.2782 9.56122 12.3312 9.58492 12.3504L9.67294 12.4453C9.7915 12.5691 9.91899 12.6842 10.0544 12.7894C9.94151 12.6303 9.81513 12.4791 9.6989 12.3245L9.61308 12.2116C9.5939 12.1879 9.54654 12.1191 9.52961 12.0988L9.45399 11.9859C9.47656 12.0175 9.50137 12.0537 9.5104 12.0649C9.54312 12.1089 9.57586 12.153 9.60971 12.1936C9.62776 12.215 9.69552 12.2974 9.71357 12.3177C9.73162 12.338 9.77557 12.3877 9.80717 12.4216C9.93378 12.559 10.0708 12.6864 10.2168 12.8029C10.0938 12.6359 9.9663 12.4745 9.84443 12.3121L9.75531 12.1902C9.73951 12.1699 9.68079 12.0864 9.66612 12.0661L9.58037 11.9408L9.57472 11.9318C9.59842 11.9668 9.62667 12.0074 9.63457 12.0176C9.6673 12.0638 9.70114 12.109 9.73499 12.153C9.7474 12.1688 9.82751 12.2658 9.84105 12.2816C9.87265 12.3211 9.90764 12.3583 9.94037 12.3944C10.0751 12.5445 10.2215 12.6838 10.3782 12.8108C10.2484 12.6371 10.1152 12.4723 9.98885 12.2963C9.95839 12.2523 9.92565 12.2094 9.89519 12.1676C9.8839 12.1518 9.81398 12.0548 9.80269 12.0368L9.7124 11.9058L9.7 11.8878L9.75641 11.9679C9.78913 12.0153 9.82412 12.0627 9.8591 12.1089C9.867 12.118 9.95844 12.2342 9.97198 12.2444C10.0058 12.2861 10.0419 12.3267 10.0769 12.3674C10.2194 12.5302 10.3748 12.6811 10.5418 12.8188C10.4052 12.6359 10.2687 12.4599 10.1356 12.2793L10.0385 12.1439L9.94264 12.0063C9.91105 11.9589 9.87827 11.9137 9.8478 11.8675L9.83313 11.8449L9.88279 11.9171C9.91777 11.9657 9.95164 12.0153 9.98775 12.0627C9.98775 12.0683 10.0927 12.1992 10.1006 12.2049C10.1355 12.25 10.174 12.294 10.2134 12.3369C10.364 12.5131 10.529 12.6765 10.7066 12.8255C10.5644 12.6359 10.4211 12.4509 10.2845 12.2613C10.2507 12.2128 10.2168 12.1654 10.1818 12.118L10.0825 11.9746C10.0509 11.9261 10.0171 11.8787 9.98438 11.8302L9.96971 11.8077L10.0103 11.8675C10.0453 11.9183 10.0814 11.969 10.1232 12.0187L10.236 12.1654C10.2755 12.2139 10.3139 12.2613 10.3489 12.3087C10.4653 12.4463 10.5897 12.577 10.7212 12.7002C10.8702 12.8688 11.0374 13.0202 11.22 13.1516L11.1985 13.1426Z" fill="#0C3051"/>
<path d="M12.2312 8.23733C12.6826 8.17978 13.0211 7.95641 12.9929 7.7296C12.9647 7.50279 12.5844 7.36959 12.1286 7.42601C11.6727 7.48243 11.3387 7.707 11.3658 7.93381C11.3929 8.16062 11.7799 8.29375 12.2312 8.23733ZM12.141 7.52643C12.4795 7.48355 12.8711 7.56368 12.8937 7.7431C12.9162 7.92252 12.5551 8.09634 12.2166 8.13809C11.8781 8.17984 11.4865 8.10196 11.4639 7.92141C11.4414 7.74087 11.807 7.56931 12.1444 7.52643H12.141Z" fill="#0C3051"/>
<path d="M11.7988 7.91953C11.8117 7.93177 11.8271 7.941 11.8439 7.9466C11.8985 7.96253 11.956 7.96561 12.012 7.95562C11.9605 7.94511 11.9107 7.92725 11.8642 7.90259C11.8555 7.89772 11.8481 7.8908 11.8428 7.88234C11.8428 7.8767 11.8428 7.87551 11.8428 7.87325L11.8586 7.85638L11.8868 7.83943H11.8947C11.9208 7.86658 11.954 7.88577 11.9906 7.89474C12.0398 7.90641 12.0907 7.90869 12.1407 7.90149C12.2051 7.89585 12.2683 7.88023 12.328 7.85521C12.3732 7.83484 12.4138 7.8057 12.4476 7.76946L12.4804 7.77621C12.4891 7.77878 12.4975 7.78259 12.5052 7.7875H12.5108C12.5108 7.7875 12.5108 7.79652 12.5041 7.80555C12.4972 7.81476 12.4893 7.82314 12.4804 7.83041C12.4382 7.8621 12.3927 7.88935 12.3449 7.91168C12.4011 7.9084 12.4563 7.89461 12.5074 7.87105C12.521 7.86355 12.5338 7.85485 12.5458 7.84508C12.5612 7.83145 12.5718 7.81325 12.5762 7.79315C12.5774 7.7801 12.5755 7.76696 12.5706 7.75479C12.5661 7.74454 12.5596 7.73533 12.5514 7.72772C12.5388 7.71495 12.5238 7.70465 12.5074 7.69728C12.4799 7.68421 12.4506 7.67504 12.4205 7.67014C12.3923 7.66401 12.3636 7.66022 12.3348 7.65885C12.2784 7.65408 12.2218 7.65408 12.1655 7.65885C12.1095 7.66564 12.054 7.67663 11.9996 7.69163C11.9438 7.70801 11.8906 7.73229 11.8416 7.76381C11.8282 7.77261 11.8157 7.78287 11.8044 7.79432C11.7899 7.80756 11.7797 7.8248 11.7751 7.84391C11.7739 7.84986 11.7739 7.85607 11.7751 7.86202V7.88007C11.7788 7.89535 11.787 7.90911 11.7988 7.91953Z" fill="#0C3051"/>
<path d="M9.05927 17.23C8.80087 17.3192 8.63392 17.4884 8.67793 17.6159C8.72193 17.7434 8.95885 17.775 9.215 17.687C9.47115 17.599 9.64042 17.4286 9.59641 17.3011C9.5524 17.1736 9.32219 17.1409 9.05927 17.23ZM9.19695 17.6306C9.00625 17.696 8.76929 17.6982 8.73543 17.5967C8.70158 17.4951 8.88776 17.3507 9.07394 17.2852C9.26013 17.2198 9.50161 17.2175 9.53546 17.3202C9.56931 17.4229 9.39781 17.5651 9.2026 17.6317L9.19695 17.6306Z" fill="#0C3051"/>
<path d="M9.34929 17.3541C9.34062 17.3484 9.33114 17.3442 9.32113 17.3416C9.30373 17.3376 9.28593 17.3357 9.26809 17.336C9.25004 17.336 9.23422 17.336 9.21616 17.336C9.18316 17.3409 9.15068 17.3489 9.11912 17.3597C9.08774 17.3707 9.0572 17.3838 9.02773 17.3992C8.99741 17.4148 8.96964 17.435 8.94536 17.459L8.92731 17.4816C8.92134 17.4916 8.91748 17.5027 8.91602 17.5143V17.5245V17.5335C8.91937 17.5397 8.92447 17.5448 8.93069 17.5482C8.93937 17.5535 8.94887 17.5573 8.95885 17.5594C8.99235 17.5615 9.02592 17.5561 9.05707 17.5436C9.02614 17.5431 8.99543 17.5386 8.96567 17.5301L8.94983 17.521V17.5154L8.95775 17.5098L8.97242 17.4962C8.99021 17.5092 9.01141 17.5166 9.03337 17.5176C9.06369 17.5177 9.09379 17.5127 9.1225 17.503C9.15913 17.4919 9.19379 17.4752 9.22519 17.4533C9.24851 17.436 9.26811 17.4142 9.28276 17.3891H9.30308H9.31885C9.3196 17.3908 9.31995 17.3927 9.31995 17.3946C9.31995 17.3966 9.3196 17.3985 9.31885 17.4003L9.30756 17.4183C9.28692 17.4421 9.26388 17.4637 9.23875 17.4827C9.27129 17.4736 9.30184 17.4587 9.32898 17.4386C9.33626 17.4328 9.34274 17.4259 9.34819 17.4183C9.35529 17.4089 9.35925 17.3974 9.35949 17.3856C9.3589 17.3779 9.35614 17.3705 9.35157 17.3642L9.34929 17.3541Z" fill="#0C3051"/>
<path d="M6.18976 17.2616C5.70906 17.1262 5.2791 17.2075 5.21252 17.4478C5.14595 17.6882 5.46982 17.9805 5.94939 18.1159C6.42897 18.2513 6.86005 18.17 6.92663 17.9308C6.9932 17.6916 6.67046 17.3971 6.18976 17.2616ZM5.97873 18.0109C5.62215 17.9105 5.26222 17.6667 5.31638 17.476C5.37055 17.2853 5.80384 17.2651 6.16042 17.3632C6.517 17.4614 6.8758 17.7085 6.82277 17.8981C6.76973 18.0877 6.33641 18.1113 5.97983 18.0109H5.97873Z" fill="#0C3051"/>
<path d="M6.48997 17.7434C6.48276 17.7252 6.47248 17.7084 6.45953 17.6938C6.43758 17.6692 6.4125 17.6476 6.38501 17.6294C6.35953 17.6117 6.33277 17.5958 6.30491 17.582C6.24984 17.5544 6.19247 17.5318 6.13342 17.5143C6.07478 17.4973 6.01474 17.4856 5.954 17.4794C5.89151 17.4704 5.82806 17.4704 5.76557 17.4794C5.74869 17.4836 5.7321 17.4888 5.71591 17.4951C5.69565 17.5028 5.67797 17.5161 5.66508 17.5335L5.65496 17.5504C5.65258 17.5571 5.65069 17.5639 5.64931 17.5708C5.64685 17.5827 5.64685 17.5949 5.64931 17.6069C5.65658 17.6242 5.66777 17.6396 5.68202 17.652C5.72978 17.6914 5.78626 17.7189 5.84677 17.7321C5.7996 17.701 5.75742 17.6629 5.72156 17.6192C5.71504 17.6105 5.7104 17.6005 5.70799 17.5899C5.70799 17.5831 5.70799 17.5831 5.71364 17.5809L5.73623 17.573L5.77114 17.5673H5.78017C5.79496 17.6056 5.81996 17.6393 5.85241 17.6644C5.89714 17.6971 5.94772 17.7207 6.00139 17.7343C6.0676 17.7564 6.13698 17.7674 6.20676 17.7671C6.26053 17.7662 6.31354 17.7544 6.36249 17.7321L6.39183 17.7536C6.3986 17.7615 6.40876 17.7705 6.41214 17.7761V17.7829C6.41214 17.7829 6.41214 17.7919 6.39747 17.7987C6.38698 17.8052 6.37554 17.8102 6.36359 17.8133C6.30789 17.8279 6.25074 17.8363 6.1932 17.8382C6.2508 17.8584 6.31159 17.8679 6.37261 17.8664C6.38944 17.8646 6.40608 17.8612 6.42227 17.8562C6.44394 17.8501 6.46251 17.836 6.4742 17.8167C6.48138 17.8048 6.48521 17.7912 6.48542 17.7772C6.48881 17.7663 6.49037 17.7548 6.48997 17.7434Z" fill="#0C3051"/>
<path d="M11.2191 16.6482C11.0453 16.6719 10.9189 16.7611 10.9301 16.8446C10.9414 16.9281 11.087 16.9812 11.2619 16.9575C11.4368 16.9338 11.5621 16.8446 11.5508 16.7611C11.5395 16.6776 11.3928 16.6246 11.2191 16.6482ZM11.2574 16.9191C11.1288 16.9372 10.9787 16.909 10.9685 16.8401C10.9583 16.7713 11.096 16.7035 11.2258 16.6866C11.3556 16.6697 11.5057 16.6968 11.5136 16.7656C11.5215 16.8344 11.386 16.9022 11.2563 16.9191H11.2574Z" fill="#0C3051"/>
<path d="M11.3847 16.765C11.3793 16.7604 11.3732 16.7565 11.3667 16.7537C11.3562 16.749 11.3452 16.7456 11.334 16.7436H11.3023C11.2806 16.7417 11.2587 16.7417 11.2369 16.7436C11.2154 16.7464 11.1943 16.7513 11.1738 16.7582C11.1524 16.7638 11.1321 16.7729 11.1139 16.7853L11.0992 16.7966C11.0947 16.8023 11.0913 16.8088 11.0891 16.8157V16.8304L11.0959 16.8406C11.1004 16.8458 11.1062 16.8497 11.1128 16.8519C11.1339 16.8572 11.156 16.8572 11.1771 16.8519C11.1578 16.8483 11.1392 16.8418 11.1218 16.8327L11.1139 16.8259L11.1196 16.8203L11.1308 16.8146C11.1405 16.8252 11.153 16.8327 11.1669 16.836C11.186 16.8395 11.2055 16.8395 11.2245 16.836C11.249 16.8331 11.2729 16.8267 11.2956 16.8169C11.3127 16.8092 11.328 16.798 11.3407 16.7842H11.3543H11.3633V16.7909L11.3554 16.8C11.3396 16.8128 11.3222 16.8234 11.3035 16.8316C11.325 16.8295 11.346 16.8238 11.3656 16.8146L11.3813 16.8044C11.3872 16.7996 11.3912 16.7928 11.3926 16.7853C11.3933 16.7804 11.3933 16.7755 11.3926 16.7706L11.3847 16.765Z" fill="#0C3051"/>
<path d="M12.8495 16.6562C12.696 16.6213 12.5618 16.6562 12.5437 16.7296C12.5257 16.8029 12.634 16.8944 12.7875 16.9282C12.9409 16.9621 13.0752 16.9282 13.091 16.8537C13.1068 16.7792 12.9985 16.6878 12.8495 16.6562ZM12.7954 16.8954C12.6825 16.8695 12.5697 16.7984 12.5776 16.7375C12.5855 16.6766 12.7277 16.663 12.8428 16.689C12.9579 16.7149 13.0685 16.786 13.0594 16.8469C13.0504 16.9079 12.9037 16.9214 12.7897 16.8954H12.7954Z" fill="#0C3051"/>
<path d="M12.9477 16.7959L12.9364 16.7812C12.9288 16.7737 12.9201 16.7676 12.9105 16.7632L12.8833 16.7519C12.8653 16.7457 12.8468 16.7408 12.8281 16.7372C12.8089 16.736 12.7897 16.736 12.7705 16.7372C12.7506 16.7374 12.7309 16.7404 12.7118 16.7462L12.6972 16.753C12.6905 16.7556 12.685 16.7604 12.6814 16.7665V16.7722V16.7778V16.7891C12.6846 16.7937 12.6884 16.7979 12.6927 16.8015C12.7093 16.8115 12.7277 16.8181 12.7468 16.8207C12.7308 16.8123 12.716 16.8016 12.7028 16.7891V16.7812H12.7096H12.7198C12.7255 16.7926 12.7346 16.802 12.7457 16.8083C12.7609 16.8174 12.7777 16.8232 12.7953 16.8252C12.817 16.8288 12.8391 16.8288 12.8608 16.8252C12.8776 16.8228 12.8937 16.8171 12.9082 16.8083H12.9195L12.9262 16.8151V16.8207H12.9172C12.9004 16.8275 12.883 16.8327 12.8653 16.8365C12.8839 16.8401 12.9031 16.8401 12.9217 16.8365H12.9375C12.9439 16.8334 12.949 16.8282 12.9522 16.8219V16.8083L12.9477 16.7959Z" fill="#0C3051"/>
<path d="M8.91364 12.5406C9.01971 12.4639 8.98241 12.2382 8.82782 12.0249C8.67323 11.8116 8.47127 11.7055 8.3652 11.7812C8.25913 11.8568 8.29636 12.0859 8.45095 12.2969C8.60554 12.5079 8.8087 12.6173 8.91364 12.5406ZM8.49723 12.2642C8.38439 12.1073 8.31559 11.8884 8.39909 11.8274C8.48259 11.7665 8.66874 11.9008 8.78271 12.0531C8.89668 12.2055 8.96436 12.4289 8.88085 12.4899C8.79735 12.5508 8.6112 12.4221 8.49723 12.2642Z" fill="#0C3051"/>
<path d="M8.76822 12.1943C8.75412 12.1657 8.73794 12.1382 8.71974 12.1119C8.70066 12.0855 8.67949 12.0605 8.65651 12.0374C8.63318 12.0141 8.60663 11.9943 8.57758 11.9787L8.55272 11.9686C8.54195 11.9662 8.53078 11.9662 8.52 11.9686H8.51098L8.50306 11.9743C8.49817 11.9789 8.49468 11.9847 8.49294 11.9912C8.49064 12.0009 8.49064 12.0109 8.49294 12.0205C8.49937 12.0525 8.51371 12.0824 8.53467 12.1074C8.52592 12.0788 8.52099 12.0492 8.52 12.0194V12.0025H8.53357L8.54934 12.0126C8.5431 12.0336 8.5431 12.056 8.54934 12.077C8.5575 12.1046 8.57048 12.1306 8.58771 12.1537C8.60844 12.1842 8.63351 12.2116 8.66216 12.2349C8.68465 12.2517 8.71042 12.2637 8.73778 12.2699V12.2891V12.3094C8.73415 12.3108 8.73012 12.3108 8.72648 12.3094H8.70844C8.68051 12.2969 8.65402 12.2813 8.62944 12.2631C8.64672 12.2906 8.66889 12.3147 8.69487 12.3342C8.7024 12.3387 8.7104 12.3425 8.71863 12.3455C8.72953 12.3497 8.74155 12.3497 8.75245 12.3455C8.75969 12.3429 8.76597 12.3382 8.77049 12.332L8.77841 12.315C8.77995 12.3049 8.77995 12.2947 8.77841 12.2846C8.77736 12.2674 8.77433 12.2503 8.76939 12.2338C8.78181 12.2247 8.77499 12.2101 8.76822 12.1943Z" fill="#0C3051"/>
<path d="M9.76218 13.8954C9.9495 14.0793 10.1684 14.1515 10.2598 14.0579C10.3512 13.9642 10.2767 13.7464 10.0894 13.5636C9.90208 13.3808 9.68316 13.3075 9.59289 13.4011C9.50262 13.4948 9.57486 13.7148 9.76218 13.8954ZM9.63242 13.444C9.70577 13.3696 9.90996 13.47 10.0488 13.6065C10.1876 13.743 10.2914 13.945 10.2192 14.0206C10.1469 14.0962 9.94161 13.9947 9.80281 13.857C9.66402 13.7193 9.55903 13.5139 9.63125 13.4406L9.63242 13.444Z" fill="#0C3051"/>
<path d="M9.78567 13.6101C9.78492 13.6045 9.78492 13.5988 9.78567 13.5932H9.79132H9.80371L9.82176 13.5989C9.81862 13.6204 9.82175 13.6423 9.83078 13.662C9.84234 13.6885 9.85925 13.7123 9.88044 13.732C9.90558 13.7595 9.93538 13.7825 9.96846 13.7997C9.99332 13.8129 10.0205 13.8209 10.0486 13.8234L10.0565 13.8403V13.8561H10.0464C10.04 13.8573 10.0335 13.8573 10.0271 13.8561C9.99751 13.8492 9.96876 13.839 9.94139 13.8257C9.96319 13.8489 9.98876 13.8684 10.017 13.8832L10.0429 13.8911C10.0535 13.8949 10.065 13.8949 10.0756 13.8911C10.0827 13.8875 10.0884 13.8815 10.0915 13.8741L10.0971 13.8561C10.0989 13.846 10.0989 13.8357 10.0971 13.8257C10.0931 13.8088 10.087 13.7925 10.0791 13.7771C10.0715 13.7625 10.0628 13.7486 10.0531 13.7354C10.0351 13.7084 10.0143 13.6835 9.99105 13.6609C9.96829 13.638 9.94377 13.6168 9.9177 13.5977C9.89033 13.5784 9.86025 13.5632 9.82851 13.5526L9.80261 13.5469C9.79187 13.5443 9.78057 13.5443 9.76983 13.5469L9.76198 13.5526L9.75516 13.5593C9.75076 13.5643 9.74837 13.5707 9.74841 13.5774C9.74597 13.587 9.74597 13.5971 9.74841 13.6067C9.76068 13.6365 9.77961 13.6632 9.80371 13.6846C9.795 13.6605 9.78896 13.6355 9.78567 13.6101Z" fill="#0C3051"/>
<path d="M11.8125 14.6312C11.5507 14.5534 11.316 14.594 11.2765 14.7249C11.237 14.8558 11.4131 15.0183 11.6737 15.0962C11.9344 15.1741 12.1724 15.1323 12.2097 15.0025C12.2469 14.8728 12.0743 14.7091 11.8125 14.6312ZM12.151 14.9867C12.1205 15.0894 11.8836 15.0995 11.6895 15.0397C11.4954 14.9799 11.3002 14.8456 11.3307 14.7429C11.3611 14.6403 11.5993 14.6301 11.7934 14.6888C11.9874 14.7475 12.1849 14.8818 12.1533 14.9856L12.151 14.9867Z" fill="#0C3051"/>
<path d="M11.9558 14.872C11.9443 14.8582 11.9305 14.8463 11.9152 14.837C11.9012 14.8268 11.8865 14.8178 11.8712 14.8099C11.841 14.7947 11.8097 14.7819 11.7776 14.7716C11.7458 14.7621 11.7133 14.7549 11.6805 14.7501C11.6461 14.7448 11.6111 14.7448 11.5767 14.7501L11.5496 14.758C11.5388 14.762 11.5294 14.7691 11.5225 14.7783L11.5169 14.7874V14.7976C11.5155 14.8039 11.5155 14.8104 11.5169 14.8167C11.5213 14.8263 11.5274 14.8351 11.5349 14.8427C11.5612 14.8643 11.5921 14.8797 11.6252 14.8878C11.5994 14.8701 11.5765 14.8483 11.5575 14.8234L11.5507 14.8066H11.562H11.5823C11.5899 14.8278 11.6037 14.8463 11.6218 14.8596C11.6456 14.878 11.6729 14.8914 11.7019 14.8991C11.7383 14.9117 11.7763 14.9185 11.8147 14.9194C11.8443 14.9195 11.8735 14.9134 11.9005 14.9013L11.9174 14.9126L11.9276 14.9239L11.9197 14.933L11.9005 14.9397C11.8698 14.9472 11.8385 14.951 11.8069 14.951C11.8383 14.9628 11.8715 14.9686 11.905 14.9679C11.914 14.9695 11.9232 14.9695 11.9321 14.9679C11.9437 14.9643 11.9537 14.9567 11.9603 14.9465C11.9643 14.94 11.9666 14.9326 11.9671 14.925V14.9058C11.9667 14.8937 11.9627 14.882 11.9558 14.872Z" fill="#0C3051"/>
<path d="M13.6146 14.4793C13.3889 14.5707 13.2433 14.7298 13.2885 14.8438C13.3336 14.9577 13.548 14.9758 13.776 14.8867C14.0039 14.7975 14.1483 14.6362 14.1032 14.5222C14.058 14.4082 13.8425 14.3901 13.6146 14.4793ZM13.7567 14.837C13.5875 14.9047 13.3731 14.9149 13.3381 14.8257C13.3032 14.7366 13.4656 14.6001 13.6349 14.5301C13.8042 14.4601 14.0174 14.4522 14.0535 14.5413C14.0896 14.6305 13.926 14.7693 13.7567 14.837Z" fill="#0C3051"/>
<path d="M13.8718 14.5862C13.8637 14.5815 13.8549 14.5781 13.8458 14.5761C13.8297 14.5736 13.8133 14.5736 13.7972 14.5761C13.7822 14.5748 13.7672 14.5748 13.7521 14.5761C13.7225 14.5818 13.6934 14.5901 13.6652 14.6009C13.6376 14.6121 13.6109 14.6253 13.5851 14.6403C13.5585 14.6561 13.5343 14.6755 13.5129 14.6979L13.4983 14.7193C13.4924 14.7279 13.4896 14.7383 13.4904 14.7487V14.7577V14.7656C13.4928 14.7711 13.4967 14.7758 13.5016 14.7792C13.51 14.7838 13.5192 14.7864 13.5287 14.787C13.5591 14.7884 13.5893 14.7822 13.6167 14.769C13.5891 14.7705 13.5614 14.7683 13.5344 14.7622L13.5197 14.7555V14.7498L13.5253 14.7386L13.5366 14.7273C13.5531 14.738 13.5723 14.7438 13.5919 14.7442C13.6187 14.7434 13.6451 14.7376 13.6698 14.7273C13.7025 14.7165 13.7331 14.7001 13.7601 14.6788C13.7808 14.6624 13.7981 14.642 13.8108 14.6189H13.8289H13.8435C13.8435 14.6189 13.8435 14.619 13.8435 14.6291L13.8345 14.6449C13.8176 14.6672 13.7983 14.6877 13.7769 14.7058C13.8052 14.6963 13.8316 14.6817 13.8548 14.6629L13.8718 14.6438C13.878 14.6349 13.8807 14.624 13.8796 14.6133C13.8789 14.6063 13.8762 14.5996 13.8718 14.5941V14.5862Z" fill="#0C3051"/>
<path d="M15.0151 13.592C14.8808 13.7545 14.8402 13.9305 14.9203 14.0005C15.0004 14.0705 15.1697 13.9937 15.3039 13.8312C15.4382 13.6687 15.4788 13.4927 15.3987 13.4239C15.3186 13.3551 15.1482 13.4307 15.0151 13.592ZM15.2679 13.803C15.1686 13.9227 15.0129 14.0186 14.9497 13.9655C14.8865 13.9125 14.9496 13.7398 15.0501 13.627C15.1505 13.5142 15.3051 13.4103 15.3683 13.4634C15.4315 13.5164 15.3672 13.6823 15.2679 13.803Z" fill="#0C3051"/>
<path d="M15.2803 13.6274V13.6071C15.2813 13.5976 15.2789 13.588 15.2735 13.58L15.2611 13.5699H15.2464C15.2382 13.5691 15.2299 13.5691 15.2216 13.5699C15.2089 13.5743 15.1967 13.5804 15.1855 13.588C15.1743 13.5947 15.1641 13.6037 15.1539 13.6105C15.1344 13.627 15.1163 13.6452 15.0997 13.6647C15.0833 13.6845 15.0686 13.7056 15.0557 13.7278C15.0418 13.7501 15.0315 13.7745 15.0253 13.8001V13.8227C15.0246 13.8313 15.0266 13.84 15.0309 13.8475V13.8542H15.0377H15.0523C15.0598 13.8557 15.0675 13.8557 15.0749 13.8542C15.0981 13.843 15.1182 13.8264 15.1336 13.8057C15.1132 13.8178 15.0912 13.8269 15.0682 13.8328C15.0638 13.8342 15.059 13.8342 15.0546 13.8328V13.8238V13.808C15.0714 13.8093 15.0882 13.8057 15.1031 13.7978C15.123 13.7861 15.1407 13.7708 15.155 13.7527C15.1743 13.7307 15.1903 13.706 15.2024 13.6793C15.2108 13.6585 15.215 13.6363 15.2149 13.6139L15.2284 13.606H15.2397V13.6139C15.2402 13.6192 15.2402 13.6244 15.2397 13.6297" fill="#0C3051"/>
<path d="M15.868 12.0305C15.7868 12.0238 15.7112 12.1434 15.6954 12.3104C15.6796 12.4774 15.7338 12.6094 15.815 12.6184C15.8962 12.6275 15.9719 12.5056 15.9877 12.3374C16.0035 12.1693 15.9515 12.0373 15.868 12.0305ZM15.9527 12.333C15.9425 12.4548 15.8838 12.5857 15.8184 12.5801C15.7529 12.5744 15.7202 12.4345 15.7315 12.3126C15.7428 12.1908 15.8003 12.0599 15.8658 12.0655C15.9312 12.0712 15.9628 12.2111 15.9527 12.333Z" fill="#0C3051"/>
<path d="M15.8759 12.1924C15.8724 12.1855 15.8663 12.1802 15.8589 12.1777H15.8454H15.8352L15.8206 12.1901C15.8136 12.1987 15.8079 12.2081 15.8036 12.2183L15.7935 12.2476C15.788 12.2668 15.7842 12.2865 15.7822 12.3063C15.7809 12.327 15.7809 12.3478 15.7822 12.3684C15.784 12.3889 15.7885 12.409 15.7957 12.4282L15.8036 12.444C15.8073 12.4504 15.8128 12.4555 15.8194 12.4587H15.825H15.8319H15.842C15.8479 12.4559 15.8528 12.4511 15.8556 12.4452C15.8659 12.4277 15.8717 12.4079 15.8724 12.3876C15.8648 12.4046 15.8549 12.4206 15.8431 12.435L15.8341 12.4406V12.4339V12.4215C15.8457 12.4144 15.8551 12.4043 15.8612 12.3921C15.869 12.3758 15.874 12.3582 15.8759 12.3402C15.8795 12.317 15.8795 12.2934 15.8759 12.2702C15.8729 12.2531 15.8659 12.2369 15.8556 12.2228V12.2104L15.8612 12.2036H15.8669L15.8736 12.2138C15.8814 12.2313 15.8878 12.2494 15.8927 12.268C15.8962 12.2482 15.8962 12.228 15.8927 12.2082L15.8759 12.1924Z" fill="#0C3051"/>
<path d="M15.6784 7.8632C15.3038 7.70861 14.9495 7.73345 14.8728 7.91851C14.796 8.10357 15.0285 8.36985 15.4031 8.52783C15.7777 8.6858 16.1321 8.65761 16.2088 8.47142C16.2856 8.28523 16.052 8.01667 15.6784 7.8632ZM16.1298 8.43871C16.0689 8.58653 15.7168 8.56172 15.4393 8.44663C15.1617 8.33153 14.8953 8.10132 14.9562 7.9535C15.0172 7.80567 15.3692 7.82938 15.6468 7.94447C15.9244 8.05957 16.1885 8.28976 16.1264 8.43871H16.1298Z" fill="#0C3051"/>
<path d="M15.852 8.24049C15.8371 8.21858 15.8193 8.19883 15.799 8.18181C15.7798 8.16499 15.7594 8.14951 15.7381 8.13553C15.6968 8.10806 15.6529 8.08462 15.6072 8.06556C15.5616 8.04607 15.5144 8.03064 15.4661 8.01934C15.4164 8.0068 15.365 8.00186 15.3138 8.00467C15.2997 8.00577 15.2857 8.00801 15.272 8.01142C15.2548 8.01552 15.2391 8.02454 15.2269 8.03739L15.2179 8.04868L15.2122 8.06446C15.2105 8.07416 15.2105 8.08409 15.2122 8.0938C15.2163 8.10898 15.224 8.12294 15.2348 8.13443C15.2695 8.17082 15.3124 8.19829 15.36 8.21453C15.3245 8.18458 15.294 8.14914 15.2697 8.10957C15.2654 8.10234 15.2628 8.09426 15.2619 8.08587C15.2619 8.0791 15.2618 8.08025 15.2675 8.07913L15.2867 8.07348H15.3239C15.3325 8.10544 15.3492 8.13463 15.3724 8.15812C15.4052 8.18875 15.4435 8.21286 15.4853 8.2292C15.5372 8.2528 15.5923 8.26841 15.6489 8.27548C15.6923 8.27952 15.7361 8.27453 15.7775 8.26081L15.799 8.28113C15.8048 8.28718 15.8097 8.29403 15.8136 8.30145V8.30709C15.8136 8.30709 15.8137 8.31383 15.8001 8.31722L15.7719 8.32514C15.725 8.33052 15.6777 8.33052 15.6308 8.32514C15.6758 8.34716 15.7244 8.36093 15.7742 8.36577H15.8159C15.8337 8.36235 15.8496 8.3527 15.861 8.33864C15.8681 8.32982 15.8728 8.31935 15.8746 8.3082C15.8759 8.29884 15.8759 8.28931 15.8746 8.27996C15.8694 8.26557 15.8618 8.25223 15.852 8.24049Z" fill="#0C3051"/>
<path d="M17.8429 9.40953C17.5969 9.24252 17.3384 9.20864 17.2561 9.33163C17.1737 9.45463 17.3001 9.68035 17.5461 9.84735C17.7921 10.0144 18.0516 10.0482 18.134 9.92518C18.2164 9.80218 18.0889 9.57428 17.8429 9.40953ZM18.081 9.89019C18.0144 9.98724 17.765 9.91732 17.5822 9.79432C17.3994 9.67132 17.2436 9.46366 17.3091 9.36662C17.3745 9.26958 17.6239 9.33956 17.8056 9.46256C17.9873 9.58556 18.1464 9.79315 18.081 9.89019Z" fill="#0C3051"/>
<path d="M17.8823 9.65651C17.8713 9.64139 17.8592 9.62704 17.8461 9.61361C17.8203 9.58804 17.7924 9.56463 17.7627 9.54363C17.7326 9.52305 17.7009 9.50497 17.6679 9.4895C17.6321 9.47346 17.594 9.4628 17.555 9.45788C17.5449 9.45675 17.5347 9.45675 17.5246 9.45788C17.5121 9.4581 17.4999 9.46203 17.4896 9.46918L17.4817 9.4771L17.4749 9.48612C17.4732 9.49316 17.4732 9.5005 17.4749 9.50754C17.476 9.51868 17.4794 9.52947 17.485 9.53915C17.5045 9.57058 17.5312 9.59689 17.5629 9.61588C17.5419 9.5889 17.5251 9.55885 17.5133 9.52676C17.5116 9.52048 17.5116 9.51382 17.5133 9.50754H17.528H17.5494C17.5509 9.53203 17.5587 9.55569 17.572 9.57634C17.5917 9.6027 17.6158 9.62565 17.643 9.64412C17.6774 9.66883 17.7155 9.68787 17.7559 9.70052C17.7865 9.71007 17.8188 9.71314 17.8507 9.70954L17.862 9.72759L17.8687 9.74453L17.8574 9.75018C17.85 9.75159 17.8423 9.75159 17.8349 9.75018C17.8009 9.74737 17.7673 9.74126 17.7344 9.73207C17.7633 9.75449 17.7962 9.77102 17.8315 9.78062C17.8412 9.7819 17.8511 9.7819 17.8608 9.78062C17.8744 9.7803 17.8875 9.77551 17.8981 9.76705C17.9047 9.76176 17.9098 9.75473 17.9127 9.74674C17.9133 9.7396 17.9133 9.73245 17.9127 9.72532C17.9115 9.71376 17.9088 9.70243 17.9048 9.6915C17.8983 9.67921 17.8908 9.6675 17.8823 9.65651Z" fill="#0C3051"/>
<path d="M19.6764 10.747C19.9686 10.8 20.218 10.7278 20.2406 10.5823C20.2631 10.4367 20.0589 10.281 19.7644 10.2268C19.4699 10.1726 19.2227 10.246 19.2002 10.3916C19.1776 10.5371 19.383 10.6985 19.6764 10.747ZM19.2645 10.4085C19.2859 10.2957 19.5432 10.2561 19.7587 10.2956C19.9743 10.3351 20.2022 10.4592 20.1807 10.5754C20.1593 10.6917 19.9043 10.7278 19.6865 10.6883C19.4687 10.6488 19.2431 10.5213 19.2645 10.4085Z" fill="#0C3051"/>
<path d="M19.4911 10.4963C19.5217 10.5174 19.5569 10.5309 19.5938 10.5358C19.5643 10.5189 19.5373 10.498 19.5136 10.4737L19.5046 10.4568C19.5046 10.4568 19.5046 10.4568 19.5046 10.4512L19.5182 10.4455L19.5396 10.4399C19.5509 10.4615 19.5677 10.4797 19.5881 10.4929C19.6168 10.5092 19.6481 10.5203 19.6806 10.5256C19.7213 10.535 19.7633 10.5372 19.8048 10.5324C19.8365 10.5292 19.8672 10.5197 19.895 10.5042L19.9143 10.5143L19.9267 10.5267L19.9187 10.538L19.8984 10.5482C19.8662 10.5596 19.8329 10.5675 19.7991 10.5719C19.836 10.5813 19.8743 10.5835 19.912 10.5787C19.9217 10.5767 19.9311 10.5737 19.9402 10.5697C19.9526 10.5645 19.9629 10.5554 19.9695 10.5437C19.9713 10.5359 19.9713 10.5278 19.9695 10.52C19.9685 10.5126 19.9666 10.5055 19.9639 10.4986C19.9579 10.4886 19.9508 10.4795 19.9424 10.4714C19.9279 10.4583 19.9116 10.4473 19.8939 10.4387C19.8776 10.4296 19.8606 10.4217 19.8431 10.415C19.8096 10.4015 19.7748 10.3913 19.7393 10.3846C19.7021 10.3781 19.6643 10.3747 19.6265 10.3744C19.5885 10.3727 19.5504 10.3769 19.5136 10.3869C19.5039 10.3896 19.4944 10.3933 19.4855 10.3981C19.4743 10.4037 19.4649 10.4123 19.4583 10.423V10.4331V10.4444C19.4569 10.4515 19.4569 10.4587 19.4583 10.4658C19.466 10.479 19.4774 10.4896 19.4911 10.4963Z" fill="#0C3051"/>
<path d="M21.6207 9.67598C21.4458 9.84411 21.3735 10.0439 21.457 10.1274C21.5405 10.2109 21.7437 10.151 21.9186 9.98287C22.0935 9.81474 22.1669 9.61505 22.0834 9.53155C21.9999 9.44805 21.7967 9.50784 21.6207 9.67598ZM21.8836 9.94906C21.7539 10.0732 21.562 10.1645 21.4954 10.0946C21.4288 10.0246 21.527 9.83736 21.6579 9.71324C21.7888 9.58911 21.9795 9.49881 22.0461 9.56764C22.1127 9.63647 22.0134 9.82493 21.8836 9.94906Z" fill="#0C3051"/>
<path d="M21.9165 9.67548L21.8996 9.66983C21.8902 9.66865 21.8807 9.66865 21.8713 9.66983C21.8558 9.67364 21.8407 9.67891 21.8262 9.6856C21.8121 9.69196 21.7985 9.69953 21.7856 9.70819C21.7605 9.72427 21.737 9.7428 21.7156 9.7635C21.6928 9.78328 21.6724 9.80557 21.6547 9.83003C21.6358 9.85397 21.6206 9.8806 21.6095 9.90903L21.6039 9.93389C21.6018 9.94393 21.6018 9.95429 21.6039 9.96433V9.97225L21.6107 9.979C21.6158 9.98251 21.6215 9.9848 21.6276 9.98575C21.6365 9.98761 21.6458 9.98761 21.6547 9.98575C21.6829 9.97488 21.7083 9.95799 21.7292 9.93616C21.7042 9.94801 21.6776 9.956 21.6502 9.95985C21.645 9.96136 21.6396 9.96136 21.6344 9.95985V9.94739L21.6412 9.93051C21.6605 9.93366 21.6804 9.93171 21.6987 9.92487C21.7232 9.91352 21.7457 9.89823 21.7653 9.87969C21.7906 9.85649 21.8126 9.8299 21.8307 9.80069C21.8433 9.77803 21.8514 9.75311 21.8545 9.72734L21.8702 9.72059H21.8849H21.8905C21.8916 9.7239 21.8916 9.72748 21.8905 9.73078V9.74883C21.8831 9.77594 21.8725 9.80204 21.8589 9.82665C21.8815 9.80704 21.9005 9.7838 21.9153 9.75785L21.9233 9.73416C21.9265 9.72388 21.9265 9.71282 21.9233 9.70254C21.9244 9.69299 21.922 9.68338 21.9165 9.67548Z" fill="#0C3051"/>
<path d="M8.52672 9.09015C8.18255 9.39482 8.03023 9.76721 8.18256 9.93873C8.3349 10.1102 8.72307 10.0064 9.06723 9.70174C9.4114 9.39707 9.5626 9.0247 9.41139 8.85205C9.26018 8.67941 8.86975 8.7866 8.52672 9.09015ZM9.0018 9.62729C8.74565 9.85297 8.37775 10.0087 8.25701 9.87213C8.13627 9.73559 8.33712 9.39028 8.59552 9.1646C8.85393 8.93892 9.21957 8.78212 9.34031 8.91865C9.46105 9.05519 9.25904 9.4016 9.00063 9.62729H9.0018Z" fill="#0C3051"/>
<path d="M9.08176 9.11502C9.07245 9.10927 9.06212 9.10543 9.05132 9.10373C9.03376 9.10084 9.01585 9.10084 8.99828 9.10373C8.96837 9.10877 8.93915 9.1175 8.91137 9.12969C8.8845 9.14097 8.85851 9.15421 8.83354 9.16922C8.78539 9.19853 8.73968 9.23169 8.69697 9.26847C8.65593 9.30537 8.6182 9.34583 8.58415 9.38927C8.54726 9.43406 8.51685 9.4838 8.49386 9.53707C8.48808 9.55209 8.48352 9.56759 8.48029 9.58336C8.47532 9.60222 8.47532 9.622 8.48029 9.64086L8.48821 9.65781L8.50178 9.6702C8.51047 9.67792 8.52091 9.68339 8.53222 9.68604C8.54895 9.68968 8.56625 9.68968 8.58298 9.68604C8.63733 9.66836 8.68685 9.63822 8.72748 9.59803C8.67928 9.61852 8.6283 9.6318 8.57623 9.63749C8.56696 9.63974 8.55733 9.63974 8.54806 9.63749C8.54129 9.63749 8.54806 9.63747 8.54806 9.62957V9.60705C8.54806 9.59802 8.55709 9.58674 8.56273 9.57771V9.56979C8.60024 9.57819 8.63932 9.57587 8.67555 9.56304C8.72304 9.54457 8.76668 9.51734 8.8042 9.48287C8.85426 9.4424 8.89731 9.39404 8.93169 9.33961C8.95824 9.29746 8.97553 9.2501 8.98244 9.20077L9.01295 9.18954H9.04002H9.05132C9.05364 9.19611 9.05364 9.20322 9.05132 9.20979C9.05132 9.21882 9.05131 9.23129 9.04567 9.24257C9.02892 9.29305 9.00657 9.34148 8.97907 9.387C9.02422 9.35271 9.06254 9.31019 9.09195 9.26172C9.09956 9.24775 9.1056 9.23299 9.11 9.21771C9.11671 9.19873 9.11671 9.17801 9.11 9.15903C9.10612 9.14147 9.0961 9.12587 9.08176 9.11502Z" fill="#0C3051"/>
<path d="M6.45159 11.9124C6.18979 12.2182 6.1051 12.559 6.25743 12.6888C6.40977 12.8185 6.73368 12.682 6.99547 12.3751C7.25726 12.0681 7.34076 11.7285 7.18956 11.5987C7.03835 11.469 6.71225 11.6054 6.45159 11.9124ZM6.92887 12.3187C6.73479 12.5443 6.43575 12.726 6.31501 12.6233C6.19427 12.5206 6.32516 12.1956 6.51812 11.97C6.71107 11.7443 7.01124 11.5626 7.13198 11.6653C7.25272 11.7679 7.12183 12.0918 6.92887 12.3187Z" fill="#0C3051"/>
<path d="M6.93574 11.8632C6.92671 11.8597 6.91715 11.8579 6.9075 11.8576C6.89187 11.8569 6.87622 11.8587 6.86122 11.8632C6.83595 11.8712 6.81175 11.8822 6.78904 11.8959C6.76739 11.9092 6.74666 11.9239 6.72699 11.9399C6.68859 11.9705 6.65309 12.0044 6.62092 12.0415C6.58856 12.079 6.55913 12.119 6.5329 12.1611C6.50595 12.2046 6.48541 12.2516 6.47195 12.301C6.47061 12.3149 6.47061 12.3289 6.47195 12.3428C6.47053 12.36 6.47402 12.3772 6.48207 12.3924L6.48999 12.4059L6.50239 12.415C6.51061 12.42 6.51986 12.4231 6.52946 12.424C6.54491 12.4248 6.56038 12.4221 6.57464 12.4161C6.61883 12.3938 6.65738 12.3618 6.68745 12.3225C6.64867 12.3462 6.60645 12.3637 6.56224 12.3743C6.55375 12.3767 6.54477 12.3767 6.53628 12.3743C6.53064 12.3743 6.53628 12.3743 6.53628 12.3676C6.53514 12.3609 6.53514 12.354 6.53628 12.3473L6.54413 12.3202V12.3134C6.57701 12.3158 6.60994 12.3087 6.63897 12.2931C6.67794 12.2712 6.71237 12.2421 6.74049 12.2074C6.77929 12.1663 6.81096 12.119 6.83415 12.0674C6.85176 12.028 6.86097 11.9853 6.86122 11.9421L6.88718 11.9275C6.89424 11.9239 6.90191 11.9216 6.90977 11.9207H6.91769C6.91769 11.9207 6.92332 11.9275 6.92444 11.9365C6.925 11.9463 6.925 11.9561 6.92444 11.9658C6.91609 12.0119 6.90281 12.0569 6.88491 12.1001C6.91888 12.0644 6.94609 12.0227 6.96508 11.9771C6.97002 11.9645 6.97306 11.9512 6.9741 11.9377C6.9766 11.9197 6.97299 11.9014 6.96391 11.8857C6.95602 11.8765 6.94649 11.8688 6.93574 11.8632Z" fill="#0C3051"/>
<path d="M4.6381 14.1237C4.41242 14.3493 4.32324 14.6066 4.43383 14.7183C4.54441 14.83 4.80621 14.7443 5.03302 14.5231C5.25983 14.3019 5.34788 14.0401 5.2373 13.9273C5.12671 13.8145 4.86491 13.9014 4.6381 14.1237ZM4.98336 14.4746C4.81636 14.6383 4.56923 14.759 4.48121 14.6698C4.39319 14.5807 4.51958 14.3313 4.68659 14.171C4.85359 14.0108 5.10072 13.8855 5.18874 13.9747C5.27676 14.0638 5.15041 14.311 4.98453 14.4757L4.98336 14.4746Z" fill="#0C3051"/>
<path d="M4.62214 14.5376L4.63117 14.5455C4.63857 14.5492 4.6466 14.5515 4.65486 14.5523C4.66728 14.5532 4.6797 14.5508 4.69095 14.5455C4.72797 14.5279 4.76014 14.5016 4.78461 14.4687C4.75255 14.4888 4.71754 14.5037 4.68082 14.5127C4.67411 14.514 4.66722 14.514 4.66051 14.5127C4.66051 14.5127 4.66051 14.5127 4.66051 14.5071C4.66008 14.5015 4.66008 14.4958 4.66051 14.4902L4.66726 14.4676V14.462C4.69424 14.4632 4.72112 14.4574 4.74515 14.445C4.77673 14.4271 4.80467 14.4033 4.82752 14.3751C4.85908 14.3419 4.885 14.3038 4.90425 14.2623C4.91882 14.23 4.92653 14.195 4.92684 14.1596L4.94826 14.1483L4.9663 14.1426H4.97422C4.97587 14.147 4.97587 14.1518 4.97422 14.1562C4.97539 14.1644 4.97539 14.1728 4.97422 14.181C4.96873 14.2198 4.95809 14.2578 4.94261 14.2939C4.97091 14.2649 4.99352 14.2307 5.00921 14.1934C5.0131 14.1828 5.0157 14.1718 5.01706 14.1607C5.01947 14.1458 5.01626 14.1305 5.00804 14.1178C5.00301 14.1104 4.99596 14.1045 4.98772 14.1009C4.98026 14.0975 4.97222 14.0956 4.96403 14.0952C4.95132 14.0933 4.93838 14.0933 4.92567 14.0952C4.90512 14.102 4.88542 14.111 4.86699 14.1223C4.84905 14.1334 4.83177 14.1455 4.81513 14.1585C4.78351 14.1842 4.75406 14.2125 4.72711 14.243C4.70082 14.2738 4.67706 14.3067 4.65603 14.3413C4.63364 14.376 4.61688 14.4141 4.60637 14.4541C4.60582 14.4653 4.60582 14.4767 4.60637 14.488C4.60514 14.5023 4.60783 14.5168 4.61422 14.5297L4.62214 14.5376Z" fill="#0C3051"/>
<path d="M2.68155 15.2697C2.45587 15.3216 2.30466 15.4491 2.33175 15.5608C2.35883 15.6726 2.55743 15.7165 2.77522 15.6646C2.993 15.6127 3.15208 15.4852 3.12612 15.3735C3.10017 15.2618 2.90385 15.2156 2.68155 15.2697ZM2.76275 15.6162C2.59687 15.6556 2.39944 15.6376 2.37913 15.5485C2.35882 15.4593 2.5269 15.3555 2.69278 15.3228C2.85865 15.29 3.05616 15.3024 3.07647 15.3905C3.09678 15.4785 2.9275 15.5766 2.76275 15.6139V15.6162Z" fill="#0C3051"/>
<path d="M2.5165 15.5127V15.5217C2.51866 15.5267 2.52215 15.5311 2.52662 15.5342C2.53452 15.539 2.54339 15.5421 2.55259 15.5432C2.58203 15.5462 2.61172 15.5423 2.63944 15.5319C2.61233 15.5319 2.58538 15.5281 2.55934 15.5206L2.54577 15.5127V15.5071L2.55259 15.498L2.56388 15.4868C2.57959 15.4985 2.59844 15.5052 2.61802 15.506C2.6441 15.5075 2.67021 15.5037 2.69474 15.4947C2.72731 15.4859 2.75819 15.4718 2.78613 15.4529C2.80727 15.4382 2.82529 15.4194 2.83917 15.3976H2.85611H2.87078C2.8715 15.3992 2.87188 15.401 2.87188 15.4027C2.87188 15.4045 2.8715 15.4062 2.87078 15.4078L2.85948 15.4225C2.84185 15.4433 2.82179 15.4618 2.7997 15.4778C2.82781 15.4705 2.85421 15.4578 2.87753 15.4405L2.89564 15.4225C2.90194 15.414 2.90545 15.4037 2.90577 15.3931C2.9048 15.3864 2.90252 15.3798 2.89902 15.3739L2.88772 15.3626C2.87969 15.3576 2.87093 15.3538 2.86176 15.3513C2.8467 15.3472 2.83109 15.3453 2.81547 15.3458H2.77036C2.74078 15.3496 2.71164 15.3563 2.68345 15.366C2.6557 15.3742 2.62887 15.3852 2.60335 15.3988C2.57613 15.4124 2.55106 15.4298 2.52889 15.4507L2.51305 15.4699C2.50744 15.4787 2.504 15.4888 2.50293 15.4992L2.5165 15.5127Z" fill="#0C3051"/>
<path d="M12.2899 14.1746C12.4473 14.1966 12.6061 14.2056 12.7649 14.2017C12.9236 14.1977 13.0815 14.1788 13.2366 14.1453C13.0775 14.152 12.9218 14.1543 12.7661 14.1453C12.6104 14.1362 12.4535 14.1261 12.2989 14.1046C12.1444 14.0832 11.9909 14.0538 11.8385 14.0166C11.6862 13.9794 11.5373 13.9354 11.3872 13.8857C11.5276 13.9595 11.6745 14.0199 11.8261 14.0663C11.9774 14.1153 12.1326 14.1516 12.2899 14.1746Z" fill="#0C3051"/>
<path d="M6.86704 20.098C7.05548 20.256 7.26311 20.3068 7.34322 20.2109C7.42334 20.115 7.33641 19.9198 7.14797 19.7595C6.95952 19.5993 6.75187 19.5508 6.67288 19.6467C6.5939 19.7426 6.67972 19.9367 6.86704 20.098ZM6.71352 19.6839C6.77671 19.6094 6.97532 19.684 7.11298 19.8047C7.25065 19.9254 7.36348 20.1037 7.30142 20.1782C7.23935 20.2527 7.04078 20.1782 6.90085 20.0563C6.76093 19.9344 6.65032 19.7595 6.70787 19.6805L6.71352 19.6839Z" fill="#0C3051"/>
<path d="M6.95583 19.9997C6.9794 20.0187 7.00427 20.0361 7.03028 20.0516C7.04371 20.059 7.05765 20.0654 7.07202 20.0708C7.08726 20.0768 7.10316 20.081 7.1194 20.0832C7.12873 20.0849 7.13831 20.0849 7.14764 20.0832L7.16458 20.0764C7.17064 20.0727 7.17534 20.0672 7.17808 20.0607C7.1821 20.0505 7.1821 20.0392 7.17808 20.029L7.16906 20.0064C7.15298 19.9807 7.13188 19.9584 7.107 19.941C7.12283 19.9646 7.13571 19.99 7.14536 20.0166V20.0347C7.14634 20.038 7.14634 20.0415 7.14536 20.0448H7.13972H7.12505L7.10817 20.0392C7.10375 20.0134 7.09413 19.9889 7.07994 19.967C7.06063 19.938 7.03662 19.9124 7.00886 19.8914C6.98841 19.8734 6.96463 19.8596 6.93888 19.8507C6.91974 19.845 6.89935 19.845 6.8802 19.8507L6.87346 19.835V19.8226H6.88923C6.91707 19.8252 6.94444 19.8316 6.9705 19.8417C6.94832 19.8212 6.92163 19.8061 6.8926 19.7977C6.88373 19.7953 6.8744 19.7953 6.86553 19.7977C6.85923 19.7986 6.85331 19.8013 6.84859 19.8056L6.84294 19.8124V19.8203C6.84011 19.8306 6.84011 19.8416 6.84294 19.8519L6.84976 19.8756C6.86249 19.9041 6.87961 19.9303 6.90052 19.9534C6.91771 19.9703 6.93621 19.9858 6.95583 19.9997Z" fill="#0C3051"/>
<path d="M8.108 23.3702C8.11084 23.3778 8.11464 23.385 8.1193 23.3917L8.13059 23.4007C8.13649 23.4024 8.14274 23.4024 8.14864 23.4007C8.15799 23.4 8.16676 23.396 8.17343 23.3894L8.187 23.3725C8.19983 23.3497 8.20862 23.3249 8.21296 23.2991C8.20016 23.32 8.18543 23.3396 8.16895 23.3578L8.15766 23.3668H8.14974V23.3555V23.3386C8.16737 23.325 8.18229 23.3081 8.19375 23.289C8.20741 23.2624 8.21695 23.2338 8.22199 23.2043C8.22616 23.1816 8.22616 23.1583 8.22199 23.1355C8.21846 23.1187 8.21108 23.1028 8.2005 23.0893L8.20842 23.0769L8.21634 23.07L8.22309 23.0802C8.23302 23.1024 8.23952 23.126 8.2423 23.1502C8.24819 23.1246 8.24819 23.0979 8.2423 23.0723C8.24062 23.0645 8.23711 23.0572 8.23211 23.0509L8.21971 23.043H8.21179H8.20394C8.19499 23.045 8.1865 23.0489 8.17908 23.0543L8.16331 23.07C8.14636 23.091 8.13298 23.1147 8.12377 23.14C8.11443 23.1639 8.10693 23.1884 8.10125 23.2134C8.09639 23.2387 8.09338 23.2643 8.09223 23.2901C8.091 23.3032 8.091 23.3165 8.09223 23.3296C8.09571 23.3438 8.101 23.3574 8.108 23.3702Z" fill="#0C3051"/>
<path d="M14.5906 21.2688C14.8896 21.2067 15.1006 21.0431 15.0702 20.893C15.0397 20.7429 14.7824 20.6752 14.4823 20.7362C14.1821 20.7971 13.9722 20.9619 14.0027 21.1097C14.0332 21.2575 14.2904 21.3286 14.5906 21.2688ZM14.4958 20.8016C14.7215 20.7565 14.981 20.7903 15.0047 20.9077C15.0284 21.025 14.7993 21.1582 14.5759 21.2033C14.3525 21.2485 14.0907 21.2146 14.067 21.0973C14.0433 20.9799 14.2724 20.8456 14.4981 20.8016H14.4958Z" fill="#0C3051"/>
<path d="M14.2847 21.0727C14.2916 21.0837 14.3014 21.0927 14.3129 21.0987L14.3422 21.1089C14.379 21.1188 14.4171 21.1226 14.4551 21.1202C14.4931 21.1192 14.5309 21.1142 14.5679 21.1055C14.6067 21.0992 14.6446 21.0881 14.6808 21.0727C14.6988 21.0661 14.7161 21.0579 14.7326 21.0479C14.7503 21.0385 14.7666 21.0267 14.7812 21.013C14.7895 21.0045 14.7967 20.995 14.8026 20.9847C14.8052 20.9778 14.8071 20.9706 14.8082 20.9633C14.81 20.9551 14.81 20.9467 14.8082 20.9385C14.8016 20.9268 14.7913 20.9176 14.7789 20.9125C14.7692 20.9085 14.7589 20.9058 14.7485 20.9046C14.7107 20.8999 14.6723 20.9026 14.6356 20.9125C14.6705 20.9166 14.7049 20.9242 14.7383 20.9351L14.7586 20.9452L14.7665 20.9554L14.7529 20.9678L14.7338 20.9791C14.7051 20.9628 14.6731 20.9531 14.6401 20.9509C14.5973 20.9472 14.5543 20.9506 14.5126 20.961C14.4794 20.9664 14.4476 20.9783 14.419 20.996C14.3978 21.0093 14.3809 21.0286 14.3704 21.0513H14.3648H14.3433L14.3287 21.0446C14.3287 21.0446 14.3287 21.0446 14.3287 21.0389L14.3377 21.022C14.3614 20.9963 14.3888 20.9743 14.419 20.9565C14.3816 20.9624 14.3461 20.9766 14.3151 20.9983C14.3058 21.0052 14.2982 21.0141 14.2926 21.0242C14.2913 21.0317 14.2913 21.0394 14.2926 21.0468V21.0581L14.2847 21.0727Z" fill="#0C3051"/>
<path d="M16.123 20.351C16.185 20.4413 16.3746 20.4165 16.5563 20.2935C16.738 20.1705 16.8317 20.0035 16.7707 19.9121C16.7098 19.8207 16.5202 19.8466 16.3385 19.9696C16.1569 20.0926 16.0632 20.2607 16.123 20.351ZM16.7312 19.9392C16.7797 20.0102 16.6635 20.1649 16.5304 20.2529C16.3972 20.3409 16.2121 20.3962 16.1636 20.324C16.1151 20.2517 16.2302 20.0983 16.3645 20.0102C16.4988 19.9222 16.6827 19.8669 16.7312 19.9392Z" fill="#0C3051"/>
<path d="M16.5792 20.0415L16.5736 20.0528L16.5645 20.0663C16.541 20.0632 16.5171 20.0655 16.4946 20.0731C16.4654 20.0826 16.438 20.0968 16.4133 20.1149C16.3935 20.1286 16.376 20.1454 16.3614 20.1645C16.3518 20.1798 16.346 20.1972 16.3445 20.2153H16.3287H16.3174C16.3163 20.2105 16.3163 20.2054 16.3174 20.2006C16.3257 20.1772 16.3375 20.1551 16.3524 20.1352C16.3297 20.1497 16.3104 20.1689 16.2959 20.1916C16.2915 20.1987 16.2891 20.2069 16.2892 20.2153C16.288 20.2205 16.288 20.2258 16.2892 20.2311L16.2948 20.2378L16.3005 20.2434C16.3082 20.2486 16.3172 20.2513 16.3264 20.2514C16.3339 20.2526 16.3415 20.2526 16.349 20.2514C16.3765 20.2476 16.4032 20.2392 16.428 20.2266C16.4771 20.2042 16.5218 20.1733 16.56 20.1352C16.5696 20.1255 16.5786 20.1153 16.5871 20.1047C16.5957 20.0932 16.6029 20.0807 16.6085 20.0675C16.612 20.0596 16.6143 20.0512 16.6153 20.0426V20.0257C16.6134 20.0202 16.6103 20.0151 16.6063 20.011C16.5986 20.0048 16.589 20.0016 16.5792 20.002H16.5566C16.531 20.0103 16.507 20.0229 16.4855 20.0392C16.5098 20.0323 16.5348 20.0282 16.56 20.0268H16.5769" fill="#0C3051"/>
<path d="M17.8733 19.4553C18.0583 19.3616 18.1667 19.2172 18.1204 19.1246C18.0741 19.0321 17.8947 19.0332 17.7085 19.1246C17.5223 19.216 17.4151 19.3628 17.4614 19.4553C17.5077 19.5478 17.6893 19.5478 17.8733 19.4553ZM17.7288 19.1664C17.8665 19.0976 18.0436 19.0727 18.0809 19.145C18.1181 19.2172 17.9906 19.3458 17.8552 19.4147C17.7198 19.4835 17.5404 19.5094 17.5043 19.4361C17.4681 19.3627 17.5923 19.2352 17.7288 19.1709V19.1664Z" fill="#0C3051"/>
<path d="M17.6329 19.377V19.3826C17.6397 19.3881 17.6479 19.3916 17.6566 19.3928H17.678C17.7041 19.3921 17.73 19.3875 17.7548 19.3792C17.7793 19.3722 17.8032 19.3628 17.8259 19.351C17.8485 19.3393 17.87 19.3257 17.8902 19.3104L17.9195 19.2844C17.9294 19.2752 17.9378 19.2646 17.9444 19.2528C17.9484 19.2457 17.9514 19.2382 17.9534 19.2303C17.954 19.2254 17.954 19.2205 17.9534 19.2156L17.9466 19.1998C17.9401 19.193 17.9312 19.189 17.9218 19.1885H17.9004C17.8755 19.1934 17.8515 19.2022 17.8293 19.2144C17.8529 19.2123 17.8767 19.2123 17.9004 19.2144H17.9161H17.923L17.9161 19.2246L17.9071 19.2359C17.8852 19.2311 17.8625 19.2311 17.8406 19.2359C17.8122 19.2416 17.7848 19.2515 17.7593 19.2653C17.7389 19.2754 17.7206 19.2891 17.7052 19.3058C17.6943 19.319 17.6866 19.3345 17.6826 19.351H17.6543V19.3386C17.6656 19.3179 17.6796 19.2989 17.6961 19.2821C17.6725 19.2927 17.6517 19.3086 17.6352 19.3284C17.6306 19.3344 17.6275 19.3414 17.6262 19.3487C17.6249 19.3539 17.6249 19.3593 17.6262 19.3645L17.6329 19.377Z" fill="#0C3051"/>
<path d="M19.2828 19.4126C19.478 19.4792 19.6574 19.4555 19.6912 19.3573C19.7251 19.2591 19.5964 19.1317 19.4012 19.0651C19.206 18.9985 19.0266 19.0222 18.9927 19.1192C18.9589 19.2163 19.0864 19.3449 19.2828 19.4126ZM19.0357 19.1339C19.0616 19.056 19.241 19.0572 19.3877 19.1068C19.5344 19.1565 19.6755 19.2659 19.6495 19.3426C19.6236 19.4194 19.4441 19.4194 19.2974 19.3698C19.1507 19.3201 19.0097 19.2117 19.0357 19.1339Z" fill="#0C3051"/>
<path d="M19.1765 19.2175L19.1889 19.2344C19.2079 19.2526 19.2292 19.2681 19.2522 19.2807C19.2747 19.2922 19.2981 19.302 19.3221 19.31C19.3464 19.318 19.3713 19.3237 19.3966 19.3269C19.4097 19.3282 19.4229 19.3282 19.4361 19.3269C19.4495 19.3286 19.4632 19.3286 19.4767 19.3269C19.4844 19.3254 19.4917 19.3223 19.4982 19.3179L19.5094 19.3089V19.292C19.5099 19.2873 19.5095 19.2826 19.5081 19.2782C19.5067 19.2737 19.5045 19.2696 19.5016 19.266L19.4869 19.2513C19.4663 19.236 19.4429 19.2249 19.418 19.2186C19.4375 19.2327 19.4553 19.249 19.471 19.2672L19.479 19.2807V19.2886H19.4666H19.4507C19.4392 19.2698 19.4243 19.2533 19.4067 19.24C19.3825 19.2235 19.3559 19.2109 19.3278 19.2028C19.3066 19.1947 19.2839 19.1912 19.2612 19.1926C19.2442 19.1929 19.2276 19.1985 19.2138 19.2085L19.2036 19.1995L19.198 19.1915L19.2093 19.1848C19.2319 19.178 19.2556 19.175 19.2792 19.1758C19.2551 19.1666 19.2293 19.1627 19.2036 19.1645C19.1959 19.1651 19.1885 19.1677 19.1822 19.1723L19.1709 19.1836V19.1915V19.1995C19.1717 19.2058 19.1736 19.2119 19.1765 19.2175Z" fill="#0C3051"/>
<path d="M20.3962 20.3137C20.4492 20.2912 20.4549 20.1885 20.4086 20.0813C20.3623 19.9741 20.2845 19.9086 20.2315 19.9312C20.1784 19.9538 20.1727 20.0564 20.2179 20.1636C20.263 20.2708 20.3432 20.3397 20.3962 20.3137ZM20.2416 19.9549C20.2845 19.9357 20.3545 20.0114 20.3861 20.0915C20.4177 20.1716 20.429 20.2731 20.3861 20.29C20.3432 20.307 20.2732 20.2336 20.2416 20.1535C20.21 20.0734 20.2021 19.9729 20.2416 19.9549Z" fill="#0C3051"/>
<path d="M20.2777 20.1417C20.2837 20.1551 20.2909 20.168 20.2992 20.1801L20.3127 20.197L20.3296 20.2128L20.3432 20.2185H20.3511H20.3589C20.3634 20.2148 20.3662 20.2095 20.3669 20.2038V20.1925C20.3657 20.1784 20.3618 20.1646 20.3556 20.1519C20.3575 20.1653 20.3575 20.179 20.3556 20.1925V20.2003L20.3488 20.1936C20.3513 20.1813 20.3513 20.1686 20.3488 20.1563C20.347 20.1404 20.3428 20.1248 20.3364 20.1101C20.331 20.0981 20.3238 20.0871 20.3149 20.0774C20.3077 20.0715 20.2992 20.0672 20.2901 20.0649V20.0481H20.2969C20.3082 20.0549 20.3184 20.0632 20.3273 20.0729C20.3217 20.0598 20.3137 20.0479 20.3036 20.0379L20.2924 20.0322H20.2788L20.2721 20.0458V20.0571C20.2697 20.0717 20.2697 20.0865 20.2721 20.1011C20.2728 20.1148 20.2747 20.1283 20.2777 20.1417Z" fill="#0C3051"/>
<path d="M10.7823 20.1095C11.0192 20.3228 11.2877 20.3973 11.3927 20.2788C11.4976 20.1603 11.3927 19.9008 11.1591 19.6887C10.9255 19.4765 10.6536 19.402 10.5486 19.5194C10.4437 19.6367 10.5464 19.8963 10.7823 20.1095ZM10.6006 19.5656C10.6841 19.472 10.939 19.5837 11.1139 19.7406C11.2888 19.8974 11.4265 20.1389 11.3396 20.2325C11.2528 20.3262 11.0012 20.2156 10.8263 20.0576C10.6514 19.8996 10.5159 19.6582 10.6006 19.5645V19.5656Z" fill="#0C3051"/>
<path d="M10.9006 19.9887C10.9307 20.014 10.9623 20.0374 10.9953 20.0587C11.0134 20.0677 11.0303 20.0779 11.0484 20.0858C11.0676 20.0939 11.0877 20.1 11.1082 20.1038C11.1201 20.1067 11.1325 20.1067 11.1443 20.1038C11.1518 20.1027 11.159 20.1004 11.1657 20.0971C11.1755 20.0904 11.1828 20.0808 11.1867 20.0696C11.1905 20.0584 11.1908 20.0463 11.1872 20.035C11.1846 20.0245 11.1808 20.0142 11.1759 20.0045C11.1566 19.9709 11.1309 19.9414 11.1003 19.9177C11.1188 19.9491 11.1339 19.9824 11.1454 20.017V20.0407C11.1454 20.0474 11.1454 20.0542 11.1454 20.0542H11.1387H11.1195L11.098 20.0463C11.0938 20.0123 11.0823 19.9795 11.0642 19.9504C11.0402 19.9126 11.0105 19.8788 10.9762 19.85C10.9499 19.8264 10.9197 19.8077 10.887 19.7946C10.8628 19.7858 10.8367 19.7838 10.8115 19.789L10.8024 19.7676V19.7517V19.7461C10.8091 19.7441 10.8161 19.7441 10.8228 19.7461C10.8589 19.7499 10.8942 19.759 10.9276 19.7732C10.8996 19.7454 10.8656 19.7242 10.8283 19.7112C10.8165 19.7083 10.8041 19.7083 10.7922 19.7112C10.7844 19.7121 10.777 19.7153 10.7708 19.7202L10.7629 19.7292L10.7573 19.7393C10.7538 19.7527 10.7538 19.7667 10.7573 19.78C10.7586 19.7908 10.7612 19.8014 10.7652 19.8116C10.7806 19.8487 10.8015 19.8833 10.8272 19.9143C10.85 19.9407 10.8745 19.9656 10.9006 19.9887Z" fill="#0C3051"/>
<path d="M6.34317 19.3105C6.35835 19.6715 6.29796 20.0315 6.16596 20.3678C5.9689 20.8808 5.62365 21.3235 5.17412 21.6395C5.02583 21.7445 4.86744 21.8346 4.70131 21.9082C4.37268 22.0579 4.01641 22.1375 3.65527 22.1417C4.00105 22.0765 4.33525 21.9605 4.64711 21.7975C4.80012 21.7167 4.94652 21.6238 5.08493 21.5199C5.22341 21.4163 5.3529 21.3012 5.472 21.1758C5.59125 21.0509 5.69926 20.9157 5.79474 20.7718C5.8926 20.6286 5.97867 20.4776 6.05205 20.3204C6.19893 20.0002 6.29706 19.6598 6.34317 19.3105Z" fill="#0C3051"/>
<path d="M6.16273 19.3574C6.17151 19.5915 6.14451 19.8255 6.08263 20.0514C6.05344 20.1669 6.01575 20.2801 5.96982 20.39C5.90829 20.5401 5.83271 20.684 5.74413 20.8199C5.71479 20.865 5.68428 20.9102 5.65156 20.9542C5.58702 21.0407 5.51775 21.1236 5.44398 21.2024C5.33133 21.3187 5.20859 21.4248 5.07723 21.5195C4.94627 21.6137 4.80645 21.695 4.65972 21.7621C4.36133 21.9058 4.03612 21.9854 3.70508 21.9957C4.02042 21.9259 4.32431 21.8119 4.60779 21.6572C4.74644 21.5795 4.87887 21.4912 5.00388 21.3931C5.25487 21.1988 5.47286 20.9652 5.64936 20.7014C5.7383 20.5695 5.81712 20.4311 5.88518 20.2873C6.02113 19.992 6.11455 19.6789 6.16273 19.3574Z" fill="#0C3051"/>
<path d="M5.98318 19.4072C5.98984 19.6363 5.95934 19.8649 5.89289 20.0842C5.86022 20.1949 5.81988 20.3031 5.77216 20.4082C5.71662 20.5375 5.64978 20.6617 5.57243 20.7794C5.5461 20.8192 5.51899 20.8568 5.49116 20.8922C5.43443 20.9675 5.37378 21.0399 5.30947 21.1089C5.21054 21.2105 5.10335 21.3037 4.98901 21.3876C4.87477 21.4702 4.75359 21.5427 4.6268 21.6043C4.35773 21.7407 4.06357 21.8206 3.76245 21.839C4.04391 21.7618 4.314 21.6479 4.56585 21.5004C4.68962 21.4265 4.80805 21.3439 4.9202 21.2533C5.14417 21.0713 5.34001 20.8573 5.50135 20.618C5.58166 20.498 5.65331 20.3724 5.71575 20.2422C5.84112 19.9768 5.93103 19.6961 5.98318 19.4072Z" fill="#0C3051"/>
<path d="M5.80518 19.4551C5.80848 19.6788 5.77455 19.9015 5.70477 20.1141C5.67053 20.222 5.62828 20.3272 5.57838 20.4289C5.52701 20.5382 5.46739 20.6434 5.40007 20.7437C5.37675 20.7783 5.35307 20.8114 5.329 20.843C5.27935 20.9073 5.22742 20.9683 5.171 21.0281C5.08655 21.1154 4.99523 21.1957 4.89792 21.2684C4.80075 21.3408 4.69769 21.405 4.58985 21.4602C4.3504 21.5894 4.08764 21.6695 3.81689 21.6961C4.06522 21.6114 4.30272 21.4978 4.52442 21.3576C4.63437 21.2872 4.73921 21.2092 4.83814 21.124C4.9366 21.0404 5.02898 20.9499 5.1146 20.8532C5.20183 20.7568 5.28144 20.6538 5.35269 20.5451C5.42507 20.4367 5.49026 20.3236 5.54787 20.2066C5.66309 19.9672 5.74949 19.7149 5.80518 19.4551Z" fill="#0C3051"/>
<path d="M5.62433 19.5039C5.62469 19.7229 5.58646 19.9402 5.51144 20.1459C5.47504 20.2502 5.43011 20.3514 5.37714 20.4484C5.33173 20.5386 5.27968 20.6253 5.22142 20.7079L5.16164 20.7891C5.11876 20.8422 5.07473 20.893 5.02734 20.9415C4.88706 21.0872 4.72586 21.2112 4.54895 21.3093C4.33861 21.4312 4.10682 21.5117 3.86621 21.5463C4.08199 21.455 4.28772 21.3415 4.48007 21.2077C4.57508 21.1408 4.66593 21.0681 4.75205 20.99C4.83748 20.9129 4.91771 20.8304 4.99235 20.7429C5.06894 20.6559 5.13913 20.5635 5.20227 20.4664C5.26615 20.3699 5.32417 20.2697 5.37604 20.1663C5.48192 19.9548 5.56517 19.7328 5.62433 19.5039Z" fill="#0C3051"/>
<path d="M5.44495 19.5527C5.44426 19.7671 5.40368 19.9795 5.32532 20.179C5.28631 20.2799 5.2395 20.3776 5.18537 20.4713C5.13007 20.5643 5.06823 20.6534 5.00031 20.7376C4.86217 20.9047 4.69797 21.0483 4.514 21.163C4.3337 21.2782 4.13358 21.3589 3.92383 21.4011C4.10608 21.3031 4.27975 21.1898 4.44292 21.0626C4.6025 20.9367 4.74815 20.794 4.87737 20.6371C4.94212 20.5596 5.00204 20.4782 5.05679 20.3934C5.11273 20.3086 5.16395 20.2209 5.21023 20.1305C5.30512 19.9451 5.38366 19.7518 5.44495 19.5527Z" fill="#0C3051"/>
<path d="M14.8954 17.8262C14.9739 18.0518 14.9933 18.2938 14.9518 18.5292C14.9322 18.6481 14.8988 18.7643 14.8525 18.8756C14.8054 18.9872 14.746 19.0932 14.6754 19.1916C14.5304 19.3869 14.3418 19.5457 14.1247 19.6554C13.9125 19.7644 13.676 19.8176 13.4375 19.8099C13.6594 19.7572 13.871 19.6679 14.0638 19.5459C14.2513 19.4262 14.4154 19.2732 14.5479 19.0945C14.6141 19.0061 14.6704 18.9108 14.716 18.8102C14.763 18.71 14.8007 18.6057 14.8288 18.4987C14.8875 18.2797 14.91 18.0525 14.8954 17.8262Z" fill="#0C3051"/>
<path d="M1.88794 10.249C2.13838 10.5602 2.36257 10.8916 2.55821 11.2398C2.79561 11.2957 3.04534 11.2602 3.25782 11.1405L2.83349 10.2851L2.13388 10.1475L1.88794 10.249Z" fill="#0C3051"/>
<path d="M10.9087 12.8831C10.8162 12.8831 9.98567 12.8199 9.7803 12.7793C9.57493 12.7387 9.17773 11.8291 9.17773 11.8291L10.0127 11.7344L10.9087 12.8831Z" fill="#0C3051"/>
<path d="M13.2363 13.6435H12.8978L12.8154 13.0793L12.8831 12.5726L12.9858 12.084L13.2612 13.2293L13.2363 13.6435Z" fill="#0C3051"/>
<path d="M15.5496 11.3779C15.6195 11.3498 15.6832 11.3079 15.7367 11.2548C15.7901 11.2017 15.8324 11.1385 15.861 11.0687C15.8983 10.9096 15.2743 10.6354 15.2743 10.6354L14.8658 10.5869L14.7925 10.9254L15.2563 11.1849L15.5496 11.3779Z" fill="#0C3051"/>
<path d="M8.94435 16.4834C9.02002 16.6544 9.14144 16.8012 9.29525 16.9077C9.46 16.99 7.86105 17.078 7.86105 17.078L7.20435 16.9821L7.34423 16.7565L8.94435 16.4834Z" fill="#0C3051"/>
<path d="M13.3462 15.9648C13.2015 15.989 13.0636 16.0437 12.9416 16.1252C12.8197 16.2067 12.7163 16.3132 12.6387 16.4377C12.913 16.504 13.1829 16.5877 13.4466 16.6882C13.6739 16.7926 13.8879 16.9236 14.0842 17.0786L14.5356 17.2818L15.0072 17.1565L14.5706 16.5347L14.0143 16.1601L13.6373 16.0078L13.3462 15.9648Z" fill="#0C3051"/>
<path d="M8.33032 20.6547L8.42509 20.8804L9.64944 21.2967L9.68326 21.2866L9.64827 21.2166L9.14392 20.745L8.64962 20.6152L8.33032 20.6547Z" fill="#0C3051"/>
<path d="M12.0652 22.418C12.0918 22.4148 12.1182 22.4099 12.1442 22.4034C12.2346 22.383 12.3233 22.3554 12.4093 22.321C12.1701 22.3097 11.7988 22.2556 11.7988 22.2556L11.2696 22.0863L10.5 21.6473L10.1288 21.3652L9.95166 21.521L10.1209 21.6451L10.7607 22.0547L11.0665 22.2217L11.4603 22.356L11.8981 22.4078L12.0652 22.418Z" fill="#0C3051"/>
<path d="M7.2481 24.2465C7.31533 24.3269 7.36008 24.4236 7.37772 24.5269C7.39536 24.6302 7.38533 24.7363 7.34859 24.8344C7.11346 24.8494 6.87738 24.8327 6.6467 24.7848L6.12988 24.4959V24.2363L6.85429 24.3086L7.2481 24.2465Z" fill="#0C3051"/>
<path d="M6.41081 21.2948C6.10594 21.5742 5.85304 21.9054 5.66382 22.2731C5.75128 21.8726 5.95964 21.5087 6.26074 21.2305C6.34875 21.2688 6.41081 21.2948 6.41081 21.2948Z" fill="#0C3051"/>
<path d="M15.4719 21.262L15.0566 21.6716L13.7522 22.0574L12.7174 21.9446L11.3464 21.3297L10.1413 20.4563L9.41678 19.8853C9.41678 19.8853 9.16514 19.6596 9.26106 19.6348C9.47239 19.5877 9.68973 19.5732 9.90543 19.5919C10.0973 19.7566 10.5825 20.2554 10.5825 20.2554L11.0597 20.6582L11.9264 21.1671L12.6779 21.4075L13.2827 21.5463H14.155L14.8862 21.4233L15.4719 21.262Z" fill="#0C3051"/>
<path d="M4.46086 20.2028C4.46086 20.2028 3.58748 19.6385 2.95557 19.9929C2.32366 20.3472 2.62383 20.8629 2.91721 20.9768C3.08064 21.0196 3.25141 21.0261 3.41764 20.9961C3.58387 20.9661 3.74154 20.9003 3.87971 20.8031C4.11642 20.6496 4.31516 20.4444 4.46086 20.2028Z" fill="#0C3051"/>
<path d="M11.7504 7.10449L10.7134 7.41483L9.35932 8.12574L8.71722 8.59738L8.19027 9.08486L7.69487 9.64907L7.35636 10.0598L7.03135 10.4999L6.46715 11.336L5.90976 12.2264L5.33653 13.0535L4.71027 13.7971L4.06817 14.3613L3.48819 14.7721L2.86076 15.0959L2.10247 15.29L1.35885 15.3284L0.840931 15.2437L0.647949 15.1896C0.812162 15.37 0.996549 15.5309 1.19749 15.6692C1.42847 15.7424 1.66362 15.802 1.90164 15.8475H2.93074L5.32971 15.0339L5.86348 14.3568L6.15013 13.9856L6.69966 13.3819L7.60238 12.3144L8.29861 11.5008L8.88651 10.8813L9.33783 10.3633L10.0815 9.3963L11.5202 7.46112L12.1634 7.28391L11.7504 7.10449Z" fill="#0C3051"/>
<path d="M7.40593 21.8008C7.54426 22.3644 7.60838 22.9436 7.59664 23.5238C7.55263 24.14 7.20619 24.3137 6.85074 24.3137C6.7521 24.2971 6.65791 24.2604 6.57401 24.206C6.49011 24.1515 6.41824 24.0804 6.36292 23.9971C6.3076 23.9137 6.26999 23.8199 6.25238 23.7214C6.23477 23.623 6.23757 23.5219 6.26057 23.4245C6.59414 22.8508 6.97741 22.3075 7.40593 21.8008Z" fill="white"/>
<path d="M13.9939 13.7181C13.8587 13.3687 13.8046 12.9931 13.8357 12.6198C13.8668 12.2464 13.9822 11.885 14.1733 11.5628C14.243 11.4724 14.3302 11.3969 14.4296 11.3408C14.529 11.2847 14.6386 11.2491 14.752 11.2361C14.8654 11.223 14.9802 11.2328 15.0898 11.2649C15.1993 11.297 15.3013 11.3507 15.3897 11.4229C15.5599 11.5647 15.6698 11.7659 15.697 11.9857C15.7243 12.2056 15.6668 12.4276 15.5364 12.6066C15.1142 13.0904 14.5864 13.4707 13.9939 13.7181Z" fill="white"/>
</svg>
