<svg width="24" height="24" viewBox="0 0 24 24" fill="none" xmlns="http://www.w3.org/2000/svg">
<path d="M23.25 12C23.25 18.2132 18.2132 23.25 12 23.25C5.7868 23.25 0.75 18.2132 0.75 12C0.75 5.7868 5.7868 0.75 12 0.75C18.2132 0.75 23.25 5.7868 23.25 12Z" stroke="white" stroke-width="1.5"/>
<path d="M11.1167 18V14.25H12.1167V15.6333H18V16.6333H12.1167V18H11.1167ZM6 16.6333V15.6333H10.1167V16.6333H6ZM9.11667 13.8667V12.5H6V11.5H9.11667V10.1H10.1167V13.8667H9.11667ZM11.1167 12.5V11.5H18V12.5H11.1167ZM13.8833 9.75V6H14.8833V7.36667H18V8.36667H14.8833V9.75H13.8833ZM6 8.36667V7.36667H12.8833V8.36667H6Z" fill="white"/>
</svg>
