<svg width="24" height="24" viewBox="0 0 24 24" fill="none" xmlns="http://www.w3.org/2000/svg">
<path d="M23.5 12C23.5 18.3513 18.3513 23.5 12 23.5C5.64873 23.5 0.5 18.3513 0.5 12C0.5 5.64873 5.64873 0.5 12 0.5C18.3513 0.5 23.5 5.64873 23.5 12Z" stroke="white"/>
<path d="M12.0008 23.2008C18.1864 23.2008 23.2008 18.1864 23.2008 12.0008C23.2008 5.81519 18.1864 0.800781 12.0008 0.800781C5.81519 0.800781 0.800781 5.81519 0.800781 12.0008C0.800781 18.1864 5.81519 23.2008 12.0008 23.2008Z" stroke="white"/>
<path d="M9.15 9.65C9.28333 9.65 9.4 9.6 9.5 9.5C9.6 9.4 9.65 9.28333 9.65 9.15C9.65 9.01667 9.6 8.9 9.5 8.8C9.4 8.7 9.28333 8.65 9.15 8.65C9.01667 8.65 8.9 8.7 8.8 8.8C8.7 8.9 8.65 9.01667 8.65 9.15C8.65 9.28333 8.7 9.4 8.8 9.5C8.9 9.6 9.01667 9.65 9.15 9.65ZM9.15 12.5C9.28333 12.5 9.4 12.45 9.5 12.35C9.6 12.25 9.65 12.1333 9.65 12C9.65 11.8667 9.6 11.75 9.5 11.65C9.4 11.55 9.28333 11.5 9.15 11.5C9.01667 11.5 8.9 11.55 8.8 11.65C8.7 11.75 8.65 11.8667 8.65 12C8.65 12.1333 8.7 12.25 8.8 12.35C8.9 12.45 9.01667 12.5 9.15 12.5ZM9.15 15.35C9.28333 15.35 9.4 15.3 9.5 15.2C9.6 15.1 9.65 14.9833 9.65 14.85C9.65 14.7167 9.6 14.6 9.5 14.5C9.4 14.4 9.28333 14.35 9.15 14.35C9.01667 14.35 8.9 14.4 8.8 14.5C8.7 14.6 8.65 14.7167 8.65 14.85C8.65 14.9833 8.7 15.1 8.8 15.2C8.9 15.3 9.01667 15.35 9.15 15.35ZM7 18C6.73333 18 6.5 17.9 6.3 17.7C6.1 17.5 6 17.2667 6 17V7C6 6.73333 6.1 6.5 6.3 6.3C6.5 6.1 6.73333 6 7 6H14.7L18 9.3V17C18 17.2667 17.9 17.5 17.7 17.7C17.5 17.9 17.2667 18 17 18H7ZM7 17H17V9.85715H14.15V7H7V17Z" fill="white"/>
</svg>
