<svg width="24" height="24" viewBox="0 0 24 24" fill="none" xmlns="http://www.w3.org/2000/svg">
<circle cx="12" cy="12" r="11.25" stroke="white" stroke-width="1.5"/>
<path d="M12 18C11.17 18 10.39 17.8425 9.66 17.5275C8.93 17.2125 8.295 16.785 7.755 16.245C7.215 15.705 6.7875 15.07 6.4725 14.34C6.1575 13.61 6 12.83 6 12C6 11.17 6.1575 10.39 6.4725 9.66C6.7875 8.93 7.215 8.295 7.755 7.755C8.295 7.215 8.93 6.7875 9.66 6.4725C10.39 6.1575 11.17 6 12 6H12.45V10.89C12.67 10.98 12.85 11.125 12.99 11.325C13.13 11.525 13.2 11.75 13.2 12C13.2 12.33 13.0825 12.6125 12.8475 12.8475C12.6125 13.0825 12.33 13.2 12 13.2C11.67 13.2 11.3875 13.0825 11.1525 12.8475C10.9175 12.6125 10.8 12.33 10.8 12C10.8 11.75 10.87 11.525 11.01 11.325C11.15 11.125 11.33 10.98 11.55 10.89V9.33C10.9 9.44 10.3625 9.7425 9.9375 10.2375C9.5125 10.7325 9.3 11.32 9.3 12C9.3 12.75 9.5625 13.3875 10.0875 13.9125C10.6125 14.4375 11.25 14.7 12 14.7C12.75 14.7 13.3875 14.4375 13.9125 13.9125C14.4375 13.3875 14.7 12.75 14.7 12C14.7 11.59 14.62 11.215 14.46 10.875C14.3 10.535 14.08 10.24 13.8 9.99L14.445 9.345C14.795 9.675 15.075 10.0675 15.285 10.5225C15.495 10.9775 15.6 11.47 15.6 12C15.6 13 15.25 13.85 14.55 14.55C13.85 15.25 13 15.6 12 15.6C11 15.6 10.15 15.25 9.45 14.55C8.75 13.85 8.4 13 8.4 12C8.4 11.07 8.7 10.2675 9.3 9.5925C9.9 8.9175 10.65 8.525 11.55 8.415V6.915C10.24 7.025 9.1375 7.565 8.2425 8.535C7.3475 9.505 6.9 10.66 6.9 12C6.9 13.42 7.395 14.625 8.385 15.615C9.375 16.605 10.58 17.1 12 17.1C13.42 17.1 14.625 16.605 15.615 15.615C16.605 14.625 17.1 13.42 17.1 12C17.1 11.26 16.9575 10.575 16.6725 9.945C16.3875 9.315 15.995 8.765 15.495 8.295L16.14 7.65C16.71 8.2 17.1625 8.8475 17.4975 9.5925C17.8325 10.3375 18 11.14 18 12C18 12.83 17.8425 13.61 17.5275 14.34C17.2125 15.07 16.785 15.705 16.245 16.245C15.705 16.785 15.07 17.2125 14.34 17.5275C13.61 17.8425 12.83 18 12 18Z" fill="white"/>
</svg>
