<svg width="24" height="24" viewBox="0 0 24 24" fill="none" xmlns="http://www.w3.org/2000/svg">
<path d="M23.5 12C23.5 18.3513 18.3513 23.5 12 23.5C5.64873 23.5 0.5 18.3513 0.5 12C0.5 5.64873 5.64873 0.5 12 0.5C18.3513 0.5 23.5 5.64873 23.5 12Z" stroke="white"/>
<path d="M12.0008 23.2008C18.1864 23.2008 23.2008 18.1864 23.2008 12.0008C23.2008 5.81519 18.1864 0.800781 12.0008 0.800781C5.81519 0.800781 0.800781 5.81519 0.800781 12.0008C0.800781 18.1864 5.81519 23.2008 12.0008 23.2008Z" stroke="white"/>
<g clip-path="url(#clip0_3469_16684)">
<path d="M16.7608 6H7.23923C7.11164 6 7 6.10633 7 6.22785V17.7722C7 17.8937 7.11164 18 7.23923 18H16.7448C16.8884 18 16.9841 17.8937 17 17.7722V6.22785C17 6.10633 16.8884 6 16.7608 6ZM12.3748 15.2506H8.41946C8.29187 15.2506 8.18022 15.1443 8.18022 15.0228C8.18022 14.9013 8.29187 14.7949 8.41946 14.7949H12.3748C12.5024 14.7949 12.614 14.9013 12.614 15.0228C12.614 15.1443 12.5024 15.2506 12.3748 15.2506ZM12.3748 14.2329H8.41946C8.29187 14.2329 8.18022 14.1266 8.18022 14.0051C8.18022 13.8835 8.29187 13.7772 8.41946 13.7772H12.3748C12.5024 13.7772 12.614 13.8835 12.614 14.0051C12.614 14.1266 12.5024 14.2329 12.3748 14.2329ZM12.3748 13.2304H8.41946C8.29187 13.2304 8.18022 13.1241 8.18022 13.0025C8.18022 12.881 8.29187 12.7747 8.41946 12.7747H12.3748C12.5024 12.7747 12.614 12.881 12.614 13.0025C12.614 13.1241 12.5024 13.2304 12.3748 13.2304ZM12.311 10.9868V11.2451C12.311 11.4122 12.1834 11.5185 12.0239 11.5185C11.8485 11.5185 11.7368 11.4122 11.7368 11.2451V11.0172C11.5295 10.9868 11.3541 10.9413 11.1946 10.8653C11.067 10.8046 11.0191 10.7286 11.0191 10.6071C11.0191 10.44 11.1308 10.3337 11.2903 10.3337C11.37 10.3337 11.4179 10.3489 11.5455 10.4096C11.6571 10.4552 11.7847 10.5008 11.9761 10.5008C12.2313 10.5008 12.3748 10.4096 12.3748 10.2425C12.3748 10.1058 12.2951 10.0451 12.0718 9.95392L11.5614 9.74127C11.2903 9.63494 11.0351 9.40709 11.0351 9.02734C11.0351 8.61722 11.3222 8.35899 11.7687 8.28304V8.04C11.7687 7.87291 11.8963 7.76658 12.0558 7.76658C12.2153 7.76658 12.3429 7.87291 12.3429 8.04V8.29823C12.5024 8.32861 12.63 8.37418 12.7416 8.43494C12.8533 8.4957 12.9011 8.58684 12.9011 8.69316C12.9011 8.82987 12.7895 8.95139 12.63 8.95139C12.5343 8.95139 12.4705 8.92101 12.3748 8.89063C12.2313 8.84506 12.1356 8.79949 11.9442 8.79949C11.8006 8.79949 11.6093 8.82987 11.6093 9.01215C11.6093 9.13367 11.689 9.19443 11.8963 9.28557L12.3748 9.48304C12.6459 9.58937 12.949 9.77165 12.949 10.2273C12.949 10.6071 12.7097 10.8805 12.311 10.9868ZM15.5646 15.2506H14.3365C14.2089 15.2506 14.0973 15.1443 14.0973 15.0228C14.0973 14.9013 14.2089 14.7949 14.3365 14.7949H15.5646C15.6922 14.7949 15.8038 14.9013 15.8038 15.0228C15.8038 15.1443 15.6922 15.2506 15.5646 15.2506ZM15.5646 14.2329H14.3365C14.2089 14.2329 14.0973 14.1266 14.0973 14.0051C14.0973 13.8835 14.2089 13.7772 14.3365 13.7772H15.5646C15.6922 13.7772 15.8038 13.8835 15.8038 14.0051C15.8038 14.1266 15.6922 14.2329 15.5646 14.2329ZM15.5646 13.2304H14.3365C14.2089 13.2304 14.0973 13.1241 14.0973 13.0025C14.0973 12.881 14.2089 12.7747 14.3365 12.7747H15.5646C15.6922 12.7747 15.8038 12.881 15.8038 13.0025C15.8038 13.1241 15.6922 13.2304 15.5646 13.2304Z" fill="white"/>
</g>
<defs>
<clipPath id="clip0_3469_16684">
<rect width="10" height="12" fill="white" transform="translate(7 6)"/>
</clipPath>
</defs>
</svg>
